<svg id="_2030-logo" data-name="2030-logo" xmlns="http://www.w3.org/2000/svg" width="79.611" height="53.671" viewBox="0 0 79.611 53.671">
  <g id="Group_3" data-name="Group 3">
    <path id="Path_99" data-name="Path 99" d="M211.489,182.309q-.509.233-1.032.432.256.537.543,1.057.543-.263,1.072-.56-.305-.454-.582-.929Z" transform="translate(-184.858 -147.3)" fill="#fff" fill-rule="evenodd"/>
    <path id="Path_100" data-name="Path 100" d="M185.538,167.913l-3.1-2.508s2.9-4.648,8.2-4.151c0,0,4.477.234,5.852,3.842,0,0,1.553,4.813-2.015,7.995,0,0-5.656,4.971-7.924,6.215l2.692-1.153H197.1v3.881h-14.94v-3.669l8.287-6.7c1.75-1.415,3.046-4.26.906-6.013a2.534,2.534,0,0,0-2.1-.52c-1.5.267-2.89,1.84-3.709,2.776Z" transform="translate(-181.873 -145.075)" fill="#fff" fill-rule="evenodd"/>
    <path id="Path_101" data-name="Path 101" d="M229.495,165.265l0-3.729h13.633v3.331L238,169.9s4.285.431,5.328,4.451c1.175,4.53-2.828,8.342-7.612,8a9.8,9.8,0,0,1-7.346-3.584l2.84-2.8s2.106,2.749,5.142,2.357c0,0,2.655,0,2.788-2.339.175-3.082-3.476-3.2-5.824-2.915l-.686-2.749,6.562-6.578-2.6,1.522Z" transform="translate(-186.748 -145.109)" fill="#fff" fill-rule="evenodd"/>
    <path id="Path_102" data-name="Path 102" d="M257.754,161a10.667,10.667,0,1,1-10.706,10.667A10.654,10.654,0,0,1,257.754,161Zm0,4.07a6.612,6.612,0,1,1-6.16,6.6A6.4,6.4,0,0,1,257.754,165.068Z" transform="translate(-188.718 -145.052)" fill="#fff" fill-rule="evenodd"/>
    <path id="Path_103" data-name="Path 103" d="M214.407,162.81q.38-.372.791-.719-.38-.439-.791-.851-.411.411-.79.851Q214.027,162.439,214.407,162.81Z" transform="translate(-185.192 -145.078)" fill="#fff" fill-rule="evenodd"/>
    <path id="Path_104" data-name="Path 104" d="M214.4,159.362q.521-.532,1.088-1.021-.519-.639-1.088-1.228-.568.589-1.088,1.228.566.488,1.088,1.021Z" transform="translate(-185.16 -144.643)" fill="#fff" fill-rule="evenodd"/>
    <path id="Path_105" data-name="Path 105" d="M216.093,161.338q.507-.38,1.049-.722-.357-.574-.751-1.12-.559.418-1.078.877.407.468.78.964Z" transform="translate(-185.37 -144.894)" fill="#fff" fill-rule="evenodd"/>
    <path id="Path_106" data-name="Path 106" d="M218.512,165.262q-.185-.42-.39-.829.479-.176.97-.32.189.459.356.93-.475.093-.936.219Z" transform="translate(-185.667 -145.381)" fill="#fff" fill-rule="evenodd"/>
    <path id="Path_107" data-name="Path 107" d="M216.971,165.782q-.212-.34-.445-.673c.258-.126.52-.246.785-.357q.219.374.416.76-.384.124-.756.27Z" transform="translate(-185.498 -145.448)" fill="#fff" fill-rule="evenodd"/>
    <path id="Path_108" data-name="Path 108" d="M217.535,163.339q-.28-.486-.592-.953.521-.289,1.052-.544.29.53.55,1.08-.513.192-1.012.418Z" transform="translate(-185.542 -145.141)" fill="#fff" fill-rule="evenodd"/>
    <path id="Path_109" data-name="Path 109" d="M215.855,164.215q-.312-.387-.655-.754.422-.287.854-.551c.218.28.425.569.622.862Q216.26,163.983,215.855,164.215Z" transform="translate(-185.359 -145.254)" fill="#fff" fill-rule="evenodd"/>
    <path id="Path_110" data-name="Path 110" d="M212.731,161.365q.371-.5.777-.963-.517-.46-1.074-.878-.391.545-.747,1.118.541.343,1.045.724Z" transform="translate(-184.988 -144.897)" fill="#fff" fill-rule="evenodd"/>
    <path id="Path_111" data-name="Path 111" d="M214.407,182.819q.38.371.791.719-.38.438-.791.851-.411-.412-.79-.851Q214.027,183.191,214.407,182.819Z" transform="translate(-185.192 -147.354)" fill="#fff" fill-rule="evenodd"/>
    <path id="Path_112" data-name="Path 112" d="M214.4,186.189q.521.532,1.088,1.021-.519.639-1.088,1.229-.568-.589-1.088-1.229.566-.488,1.088-1.021Z" transform="translate(-185.16 -147.71)" fill="#fff" fill-rule="evenodd"/>
    <path id="Path_113" data-name="Path 113" d="M216.093,184.259q.507.379,1.049.722-.357.574-.751,1.12-.559-.418-1.078-.877Q215.72,184.755,216.093,184.259Z" transform="translate(-185.37 -147.506)" fill="#fff" fill-rule="evenodd"/>
    <path id="Path_114" data-name="Path 114" d="M212.731,184.232q.371.5.777.963-.517.46-1.074.879-.391-.544-.747-1.118.541-.343,1.045-.724Z" transform="translate(-184.988 -147.503)" fill="#fff" fill-rule="evenodd"/>
    <path id="Path_115" data-name="Path 115" d="M220.228,164.631q.524-.082,1.06-.126-.055-.579-.152-1.153-.573.1-1.136.233.133.521.228,1.045Z" transform="translate(-185.865 -145.301)" fill="#fff" fill-rule="evenodd"/>
    <path id="Path_116" data-name="Path 116" d="M222.192,161.839q.733-.13,1.477-.2-.053-.823-.176-1.633-.8.15-1.6.368.179.726.3,1.463Z" transform="translate(-186.065 -144.948)" fill="#fff" fill-rule="evenodd"/>
    <path id="Path_117" data-name="Path 117" d="M222.45,164.431q.632-.014,1.273.022.041-.676.036-1.349-.7.015-1.386.087.061.617.078,1.239Z" transform="translate(-186.115 -145.274)" fill="#fff" fill-rule="evenodd"/>
    <path id="Path_118" data-name="Path 118" d="M222.481,166.878c.034-.373.058-.746.068-1.119q.591.068,1.174.168-.07.6-.177,1.2-.528-.141-1.066-.248Z" transform="translate(-186.126 -145.555)" fill="#fff" fill-rule="evenodd"/>
    <path id="Path_119" data-name="Path 119" d="M220.614,166.616q-.031-.5-.1-1,.509.012,1.015.048.022.533.007,1.065-.46-.071-.925-.117Z" transform="translate(-185.919 -145.54)" fill="#fff" fill-rule="evenodd"/>
    <path id="Path_120" data-name="Path 120" d="M218.964,166.63q-.108-.387-.241-.77c.283-.05.567-.092.854-.125q.107.419.19.845c-.268.008-.536.026-.8.05Z" transform="translate(-185.73 -145.552)" fill="#fff" fill-rule="evenodd"/>
    <path id="Path_121" data-name="Path 121" d="M219.679,162.475q.589-.187,1.19-.333-.155-.674-.366-1.34-.634.215-1.256.476.242.594.432,1.2Z" transform="translate(-185.786 -145.032)" fill="#fff" fill-rule="evenodd"/>
    <path id="Path_122" data-name="Path 122" d="M208.657,180.928q.095.523.228,1.045-.562.136-1.136.233-.1-.574-.152-1.152.535-.044,1.06-.126Z" transform="translate(-184.557 -147.155)" fill="#fff" fill-rule="evenodd"/>
    <path id="Path_123" data-name="Path 123" d="M208.448,179.067q.031.5.1,1-.509-.011-1.014-.048-.022-.532-.007-1.065.46.072.925.117Z" transform="translate(-184.548 -146.946)" fill="#fff" fill-rule="evenodd"/>
    <path id="Path_124" data-name="Path 124" d="M206.682,183.688q.116.737.3,1.463-.793.219-1.6.368c-.081-.54-.141-1.085-.176-1.633q.743-.068,1.477-.2Z" transform="translate(-184.304 -147.446)" fill="#fff" fill-rule="evenodd"/>
    <path id="Path_125" data-name="Path 125" d="M209.179,183.08q.192.6.436,1.2-.623.259-1.26.475-.213-.665-.37-1.341Q208.587,183.267,209.179,183.08Z" transform="translate(-184.597 -147.382)" fill="#fff" fill-rule="evenodd"/>
    <path id="Path_126" data-name="Path 126" d="M213.381,181.33c-.262.157-.529.306-.8.448q.289.423.605.825.419-.264.828-.55-.331-.352-.636-.723Z" transform="translate(-185.082 -147.197)" fill="#fff" fill-rule="evenodd"/>
    <path id="Path_127" data-name="Path 127" d="M212.43,180.025q-.37.156-.752.289.206.379.433.748.395-.177.779-.377-.241-.324-.46-.66Z" transform="translate(-184.987 -147.06)" fill="#fff" fill-rule="evenodd"/>
    <path id="Path_128" data-name="Path 128" d="M210.628,180.642q-.479.133-.97.233.177.478.377.945.509-.153,1.006-.34-.218-.413-.413-.838Z" transform="translate(-184.774 -147.125)" fill="#fff" fill-rule="evenodd"/>
    <path id="Path_129" data-name="Path 129" d="M210.115,179.094q-.4.023-.8.023.069.427.161.851c.287-.024.574-.057.859-.1-.08-.257-.151-.516-.215-.776Z" transform="translate(-184.737 -146.961)" fill="#fff" fill-rule="evenodd"/>
    <path id="Path_130" data-name="Path 130" d="M206.468,181.118q.015.618.075,1.236-.686.074-1.383.091,0-.671.037-1.346Q205.837,181.134,206.468,181.118Z" transform="translate(-184.299 -147.173)" fill="#fff" fill-rule="evenodd"/>
    <path id="Path_131" data-name="Path 131" d="M223.943,169.569q.471.243.93.524.295-.5.555-1.021-.52-.261-1.055-.482Q224.174,169.089,223.943,169.569Z" transform="translate(-186.281 -145.853)" fill="#fff" fill-rule="evenodd"/>
    <path id="Path_132" data-name="Path 132" d="M220.45,168.284q.39.093.778.21.057-.428.09-.86c-.282-.06-.566-.112-.85-.156q0,.4-.017.8Z" transform="translate(-185.912 -145.736)" fill="#fff" fill-rule="evenodd"/>
    <path id="Path_133" data-name="Path 133" d="M222.247,168.82q.465.176.921.385.138-.491.251-.987-.5-.178-1.013-.319Q222.338,168.362,222.247,168.82Z" transform="translate(-186.102 -145.78)" fill="#fff" fill-rule="evenodd"/>
    <path id="Path_134" data-name="Path 134" d="M227.139,168.485q.668.327,1.31.712.441-.7.818-1.423c-.492-.235-.994-.452-1.507-.646q-.283.692-.621,1.358Z" transform="translate(-186.618 -145.699)" fill="#fff" fill-rule="evenodd"/>
    <path id="Path_135" data-name="Path 135" d="M225.839,170.705q.519.362,1.015.769.43-.522.821-1.069-.572-.4-1.172-.748-.314.535-.665,1.047Z" transform="translate(-186.481 -145.966)" fill="#fff" fill-rule="evenodd"/>
    <path id="Path_136" data-name="Path 136" d="M224.758,167.526q.586.2,1.157.434.271-.637.491-1.3-.639-.2-1.294-.357-.154.623-.354,1.223Z" transform="translate(-186.367 -145.612)" fill="#fff" fill-rule="evenodd"/>
    <path id="Path_137" data-name="Path 137" d="M205.008,175.9q-.231.479-.43.979-.535-.221-1.055-.482.26-.522.555-1.021.458.28.93.525Z" transform="translate(-184.127 -146.569)" fill="#fff" fill-rule="evenodd"/>
    <path id="Path_138" data-name="Path 138" d="M207.067,172.737q-.257.31-.5.637-.3-.309-.587-.633.284-.327.587-.637.238.326.5.633Z" transform="translate(-184.386 -146.224)" fill="#fff" fill-rule="evenodd"/>
    <path id="Path_139" data-name="Path 139" d="M205.934,174.259q-.267.419-.506.862-.4-.31-.791-.638.3-.444.619-.865.33.329.679.641Z" transform="translate(-184.244 -146.384)" fill="#fff" fill-rule="evenodd"/>
    <path id="Path_140" data-name="Path 140" d="M201.754,176.97q-.339.664-.621,1.357-.769-.292-1.507-.646.378-.726.818-1.424.641.384,1.31.712Z" transform="translate(-183.716 -146.662)" fill="#fff" fill-rule="evenodd"/>
    <path id="Path_141" data-name="Path 141" d="M204.159,177.964q-.2.6-.351,1.225-.656-.158-1.3-.361.219-.664.489-1.3.572.238,1.16.437Z" transform="translate(-184.02 -146.796)" fill="#fff" fill-rule="evenodd"/>
    <path id="Path_142" data-name="Path 142" d="M208.631,177.412q-.39-.093-.777-.211-.057.428-.09.86.423.09.85.155c0-.269,0-.538.017-.8Z" transform="translate(-184.574 -146.762)" fill="#fff" fill-rule="evenodd"/>
    <path id="Path_143" data-name="Path 143" d="M206.508,178.715q-.548-.113-1.088-.261-.109.586-.183,1.175.594.109,1.2.181c.014-.365.039-.73.075-1.094Z" transform="translate(-184.308 -146.894)" fill="#fff" fill-rule="evenodd"/>
    <path id="Path_144" data-name="Path 144" d="M206.8,176.842q-.465-.175-.921-.385-.138.491-.251.987.5.178,1.013.319.068-.461.158-.921Z" transform="translate(-184.349 -146.683)" fill="#fff" fill-rule="evenodd"/>
    <path id="Path_145" data-name="Path 145" d="M207.294,175.266q-.34-.217-.664-.457c-.13.257-.254.517-.369.782q.369.226.751.429.129-.382.282-.754Z" transform="translate(-184.416 -146.509)" fill="#fff" fill-rule="evenodd"/>
    <path id="Path_146" data-name="Path 146" d="M203.109,174.749q-.351.51-.665,1.043-.6-.345-1.171-.743.391-.544.821-1.065.5.406,1.016.765Z" transform="translate(-183.889 -146.422)" fill="#fff" fill-rule="evenodd"/>
    <path id="Path_147" data-name="Path 147" d="M224.039,175.77q.238.476.441.973.532-.229,1.049-.5-.266-.518-.568-1.013-.455.285-.923.536Z" transform="translate(-186.291 -146.554)" fill="#fff" fill-rule="evenodd"/>
    <path id="Path_148" data-name="Path 148" d="M222.935,171.305q.343.3.669.625.313-.4.6-.829-.378-.32-.775-.623-.233.424-.493.828Z" transform="translate(-186.174 -146.052)" fill="#fff" fill-rule="evenodd"/>
    <path id="Path_149" data-name="Path 149" d="M221.987,172.638q.261.306.5.63c.2-.209.392-.422.577-.641q-.289-.323-.6-.629-.234.329-.487.64Z" transform="translate(-186.074 -146.213)" fill="#fff" fill-rule="evenodd"/>
    <path id="Path_150" data-name="Path 150" d="M224.433,172.785q.376.415.726.854.433-.408.839-.84-.416-.438-.859-.853-.34.431-.705.839Z" transform="translate(-186.333 -146.207)" fill="#fff" fill-rule="evenodd"/>
    <path id="Path_151" data-name="Path 151" d="M223.113,174.144q.272.416.518.855.4-.315.783-.648-.3-.44-.631-.857-.325.333-.67.65Z" transform="translate(-186.193 -146.371)" fill="#fff" fill-rule="evenodd"/>
    <path id="Path_152" data-name="Path 152" d="M227.231,176.8q.348.66.638,1.349.766-.3,1.5-.666-.388-.721-.837-1.413-.636.392-1.3.73Z" transform="translate(-186.628 -146.642)" fill="#fff" fill-rule="evenodd"/>
    <path id="Path_153" data-name="Path 153" d="M221.7,170.465c.232.134.461.275.685.424q.177-.394.331-.8-.379-.208-.771-.392C221.873,169.957,221.79,170.212,221.7,170.465Z" transform="translate(-186.044 -145.97)" fill="#fff" fill-rule="evenodd"/>
    <path id="Path_154" data-name="Path 154" d="M224.9,177.826q.207.6.368,1.221.654-.167,1.292-.378-.227-.661-.506-1.3Q225.482,177.62,224.9,177.826Z" transform="translate(-186.382 -146.78)" fill="#fff" fill-rule="evenodd"/>
    <path id="Path_155" data-name="Path 155" d="M225.882,174.6q.358.5.679,1.035.594-.354,1.161-.759-.4-.539-.835-1.055-.49.412-1.006.778Z" transform="translate(-186.485 -146.405)" fill="#fff" fill-rule="evenodd"/>
    <path id="Path_156" data-name="Path 156" d="M205.023,169.694q-.468.25-.923.536-.3-.495-.568-1.013.516-.268,1.048-.5.2.5.441.973Z" transform="translate(-184.128 -145.867)" fill="#fff" fill-rule="evenodd"/>
    <path id="Path_157" data-name="Path 157" d="M201.738,168.653q-.665.336-1.3.729-.45-.69-.837-1.413.733-.363,1.5-.666.292.689.639,1.349Z" transform="translate(-183.713 -145.717)" fill="#fff" fill-rule="evenodd"/>
    <path id="Path_158" data-name="Path 158" d="M203.1,170.856q-.514.368-1.005.782-.437-.517-.836-1.058.567-.409,1.162-.763.321.531.679,1.038Z" transform="translate(-183.888 -145.983)" fill="#fff" fill-rule="evenodd"/>
    <path id="Path_159" data-name="Path 159" d="M204.566,172.829q-.376-.415-.725-.854-.433.408-.839.84.415.438.859.853.339-.431.7-.84Z" transform="translate(-184.072 -146.21)" fill="#fff" fill-rule="evenodd"/>
    <path id="Path_160" data-name="Path 160" d="M205.916,171.492q-.271-.416-.517-.855-.4.315-.783.648.3.439.631.857.325-.334.67-.65Z" transform="translate(-184.242 -146.069)" fill="#fff" fill-rule="evenodd"/>
    <path id="Path_161" data-name="Path 161" d="M204.161,167.662q-.583.2-1.152.449-.28-.633-.509-1.293.636-.208,1.29-.374.162.621.37,1.218Z" transform="translate(-184.019 -145.627)" fill="#fff" fill-rule="evenodd"/>
    <path id="Path_162" data-name="Path 162" d="M220.483,180.841q-.088.525-.214,1.048.564.129,1.139.218.089-.576.135-1.154-.535-.037-1.061-.112Z" transform="translate(-185.893 -147.146)" fill="#fff" fill-rule="evenodd"/>
    <path id="Path_163" data-name="Path 163" d="M222.22,176.564q.1.449.173.9.49-.141.972-.316-.118-.482-.261-.961-.438.2-.885.377Z" transform="translate(-186.099 -146.655)" fill="#fff" fill-rule="evenodd"/>
    <path id="Path_164" data-name="Path 164" d="M220.684,177.081q.03.4.037.807c.283-.051.565-.109.844-.176q-.043-.431-.112-.859-.382.127-.77.229Z" transform="translate(-185.937 -146.725)" fill="#fff" fill-rule="evenodd"/>
    <path id="Path_165" data-name="Path 165" d="M222.56,178.661q.06.557.084,1.118.591-.075,1.172-.183-.078-.6-.193-1.2c-.351.1-.705.185-1.063.262Z" transform="translate(-186.135 -146.888)" fill="#fff" fill-rule="evenodd"/>
    <path id="Path_166" data-name="Path 166" d="M220.7,178.978q-.024.5-.085,1,.509-.017,1.014-.061.016-.533-.006-1.065-.459.077-.923.129Z" transform="translate(-185.93 -146.935)" fill="#fff" fill-rule="evenodd"/>
    <path id="Path_167" data-name="Path 167" d="M222.436,183.576q-.107.738-.277,1.467.8.208,1.6.347c.073-.541.126-1.086.154-1.635q-.744-.059-1.479-.179Z" transform="translate(-186.093 -147.434)" fill="#fff" fill-rule="evenodd"/>
    <path id="Path_168" data-name="Path 168" d="M221.722,175.14q.163.368.305.748.374-.214.737-.449-.185-.392-.393-.772-.318.248-.649.476Z" transform="translate(-186.047 -146.494)" fill="#fff" fill-rule="evenodd"/>
    <path id="Path_169" data-name="Path 169" d="M219.948,183q-.185.605-.421,1.2.627.251,1.266.458.2-.667.353-1.346Q220.541,183.18,219.948,183Z" transform="translate(-185.815 -147.373)" fill="#fff" fill-rule="evenodd"/>
    <path id="Path_170" data-name="Path 170" d="M215.746,181.3q.4.231.8.438-.284.426-.595.833-.423-.259-.835-.539.327-.357.627-.731Z" transform="translate(-185.35 -147.194)" fill="#fff" fill-rule="evenodd"/>
    <path id="Path_171" data-name="Path 171" d="M216.706,179.987q.373.151.755.279-.2.383-.423.753-.4-.172-.784-.367.238-.326.451-.666Z" transform="translate(-185.47 -147.055)" fill="#fff" fill-rule="evenodd"/>
    <path id="Path_172" data-name="Path 172" d="M217.629,182.259q.512.226,1.038.418-.25.541-.529,1.064-.546-.256-1.08-.546Q217.359,182.736,217.629,182.259Z" transform="translate(-185.555 -147.295)" fill="#fff" fill-rule="evenodd"/>
    <path id="Path_173" data-name="Path 173" d="M218.5,180.58q.481.127.974.22-.17.481-.365.95-.511-.146-1.011-.328.212-.415.4-.843Z" transform="translate(-185.664 -147.118)" fill="#fff" fill-rule="evenodd"/>
    <path id="Path_174" data-name="Path 174" d="M214.55,180.4q.3.267.618.517-.317.293-.65.568-.317-.3-.616-.609c.222-.152.437-.311.648-.476Z" transform="translate(-185.222 -147.099)" fill="#fff" fill-rule="evenodd"/>
    <path id="Path_175" data-name="Path 175" d="M219.032,179.026q.4.018.805.013c-.042.285-.091.569-.15.851-.287-.02-.575-.049-.86-.086.077-.258.144-.517.2-.778Z" transform="translate(-185.741 -146.954)" fill="#fff" fill-rule="evenodd"/>
    <path id="Path_176" data-name="Path 176" d="M222.662,181q-.008.619-.059,1.237.687.065,1.384.073-.006-.67-.055-1.345-.639.043-1.27.034Z" transform="translate(-186.14 -147.159)" fill="#fff" fill-rule="evenodd"/>
    <path id="Path_177" data-name="Path 177" d="M208.7,164.694q-.525-.075-1.061-.112.048-.579.135-1.154.574.089,1.139.219-.126.523-.214,1.047Z" transform="translate(-184.561 -145.309)" fill="#fff" fill-rule="evenodd"/>
    <path id="Path_178" data-name="Path 178" d="M213.277,164.338q-.4-.23-.8-.438.283-.426.595-.833.424.259.836.539-.327.357-.627.731Z" transform="translate(-185.071 -145.271)" fill="#fff" fill-rule="evenodd"/>
    <path id="Path_179" data-name="Path 179" d="M212.343,165.683q-.374-.151-.756-.279.2-.383.423-.754.4.172.784.367-.238.326-.451.666Z" transform="translate(-184.977 -145.438)" fill="#fff" fill-rule="evenodd"/>
    <path id="Path_180" data-name="Path 180" d="M211.371,163.359q-.512-.226-1.038-.418.249-.541.529-1.064.547.256,1.08.546Q211.642,162.881,211.371,163.359Z" transform="translate(-184.845 -145.145)" fill="#fff" fill-rule="evenodd"/>
    <path id="Path_181" data-name="Path 181" d="M210.531,165.073q-.481-.127-.973-.22.17-.482.365-.95.512.146,1.011.328-.212.415-.4.843Z" transform="translate(-184.763 -145.359)" fill="#fff" fill-rule="evenodd"/>
    <path id="Path_182" data-name="Path 182" d="M206.647,161.929q-.734-.121-1.479-.179.042-.823.155-1.636.805.139,1.6.347-.17.729-.277,1.468Z" transform="translate(-184.3 -144.959)" fill="#fff" fill-rule="evenodd"/>
    <path id="Path_183" data-name="Path 183" d="M214.491,165.263q-.3-.267-.618-.517.317-.293.65-.568.317.3.616.609-.332.229-.648.476Z" transform="translate(-185.219 -145.388)" fill="#fff" fill-rule="evenodd"/>
    <path id="Path_184" data-name="Path 184" d="M206.465,164.524q-.632-.007-1.272.038-.049-.675-.053-1.348.7.006,1.387.068-.052.619-.062,1.24Z" transform="translate(-184.297 -145.286)" fill="#fff" fill-rule="evenodd"/>
    <path id="Path_185" data-name="Path 185" d="M206.836,169.077q-.1-.448-.173-.9-.491.142-.972.316.119.482.261.961.438-.2.885-.377Z" transform="translate(-184.355 -145.81)" fill="#fff" fill-rule="evenodd"/>
    <path id="Path_186" data-name="Path 186" d="M208.4,168.589q-.031-.4-.037-.806-.424.076-.844.177c.029.287.068.574.112.859.255-.085.512-.161.77-.229Z" transform="translate(-184.549 -145.768)" fill="#fff" fill-rule="evenodd"/>
    <path id="Path_187" data-name="Path 187" d="M206.483,166.971q-.061-.558-.084-1.119-.59.075-1.172.183.078.6.193,1.2c.351-.1.706-.185,1.063-.262Z" transform="translate(-184.306 -145.564)" fill="#fff" fill-rule="evenodd"/>
    <path id="Path_188" data-name="Path 188" d="M208.372,166.684q.024-.5.085-1-.509.017-1.014.061-.015.533.006,1.065Q207.908,166.736,208.372,166.684Z" transform="translate(-184.54 -145.547)" fill="#fff" fill-rule="evenodd"/>
    <path id="Path_189" data-name="Path 189" d="M207.346,170.508q-.162-.368-.305-.748-.374.215-.736.449.184.392.392.772.317-.248.649-.476Z" transform="translate(-184.42 -145.977)" fill="#fff" fill-rule="evenodd"/>
    <path id="Path_190" data-name="Path 190" d="M210.021,166.676q.1-.389.231-.773-.426-.07-.855-.114c-.068.28-.127.564-.178.847.268,0,.536.019.8.04Z" transform="translate(-184.728 -145.558)" fill="#fff" fill-rule="evenodd"/>
    <path id="Path_191" data-name="Path 191" d="M209.186,162.532q-.591-.18-1.195-.317.146-.677.349-1.345.637.207,1.262.459-.234.6-.417,1.2Z" transform="translate(-184.598 -145.039)" fill="#fff" fill-rule="evenodd"/>
    <path id="Path_192" data-name="Path 192" d="M182.308,202.595v-4.138h.547v2.051l2.05-2.051h.74l-1.731,1.676,1.808,2.461H185l-1.469-2.094-.676.66v1.434Zm74.545,0,1.586-4.138h.588l1.69,4.138h-.623l-.482-1.253h-1.726l-.452,1.253Zm1.191-1.7h1.4l-.431-1.146q-.2-.522-.292-.858a5.288,5.288,0,0,1-.223.791Zm-2.246,1.7v-4.138h.546v4.138Zm-3.963,0v-4.138h1.549a1.922,1.922,0,0,1,.758.125.974.974,0,0,1,.448.387,1.022,1.022,0,0,1,.163.546.934.934,0,0,1-.144.5,1.029,1.029,0,0,1-.433.379,1.074,1.074,0,0,1,.577.374,1.007,1.007,0,0,1,.2.627,1.214,1.214,0,0,1-.123.54,1.05,1.05,0,0,1-.3.385,1.261,1.261,0,0,1-.452.2,2.725,2.725,0,0,1-.666.068Zm.547-2.4h.893a2,2,0,0,0,.521-.048.577.577,0,0,0,.313-.206.6.6,0,0,0,.106-.361.67.67,0,0,0-.1-.362.5.5,0,0,0-.282-.215,2.358,2.358,0,0,0-.629-.058h-.824V200.2Zm0,1.911h1.027a2.4,2.4,0,0,0,.373-.019.9.9,0,0,0,.316-.114.6.6,0,0,0,.208-.229.727.727,0,0,0,.081-.349.693.693,0,0,0-.118-.4.625.625,0,0,0-.329-.24,2.064,2.064,0,0,0-.6-.068h-.954v1.422Zm-4.824.489,1.586-4.138h.588l1.69,4.138H250.8l-.481-1.253h-1.726l-.453,1.253Zm1.191-1.7h1.4l-.431-1.146q-.2-.522-.292-.858a5.28,5.28,0,0,1-.223.791Zm-4.893,1.7v-4.138h1.83a2.429,2.429,0,0,1,.839.112.922.922,0,0,1,.46.393,1.182,1.182,0,0,1,.17.624,1.038,1.038,0,0,1-.284.742,1.437,1.437,0,0,1-.878.384,1.38,1.38,0,0,1,.33.206,2.9,2.9,0,0,1,.453.55l.718,1.126h-.687l-.546-.861c-.16-.248-.291-.439-.4-.569a1.219,1.219,0,0,0-.277-.276.82.82,0,0,0-.249-.111,1.737,1.737,0,0,0-.305-.02H244.4v1.837Zm.546-2.311h1.175a1.741,1.741,0,0,0,.585-.078.621.621,0,0,0,.321-.248.674.674,0,0,0,.11-.371.615.615,0,0,0-.212-.482.989.989,0,0,0-.672-.189H244.4v1.369ZM239.55,202.6l1.586-4.138h.588l1.689,4.138h-.623l-.481-1.253h-1.726l-.453,1.253Zm1.191-1.7h1.4l-.431-1.146q-.2-.522-.292-.858a5.283,5.283,0,0,1-.223.791Zm-3.529,1.7v-4.138h.546V202.6Zm-4.257,0v-4.138h1.421a3.441,3.441,0,0,1,.735.06,1.4,1.4,0,0,1,.605.3,1.691,1.691,0,0,1,.488.707,2.775,2.775,0,0,1,.162.984,2.871,2.871,0,0,1-.11.835,2,2,0,0,1-.281.6,1.48,1.48,0,0,1-.376.374,1.509,1.509,0,0,1-.492.208,2.807,2.807,0,0,1-.663.07Zm.546-.489h.882a2.123,2.123,0,0,0,.641-.076.921.921,0,0,0,.37-.215,1.3,1.3,0,0,0,.3-.523,2.569,2.569,0,0,0,.109-.8,1.925,1.925,0,0,0-.213-1,1.067,1.067,0,0,0-.517-.467,2.112,2.112,0,0,0-.707-.085H233.5v3.161Zm-2-3.649h.547v2.391a2.827,2.827,0,0,1-.141.991,1.205,1.205,0,0,1-.509.6,1.787,1.787,0,0,1-.964.23,1.971,1.971,0,0,1-.95-.2,1.137,1.137,0,0,1-.527-.578,2.756,2.756,0,0,1-.158-1.037v-2.391h.546v2.388a2.327,2.327,0,0,0,.1.794.762.762,0,0,0,.343.394,1.188,1.188,0,0,0,.6.139,1.136,1.136,0,0,0,.859-.275,1.583,1.583,0,0,0,.256-1.052v-2.388Zm-7.008,4.138,1.586-4.138h.588l1.689,4.138h-.623l-.481-1.253h-1.726l-.453,1.253Zm1.191-1.7h1.4l-.431-1.146c-.131-.348-.229-.634-.292-.858a5.283,5.283,0,0,1-.223.791Zm-4.769.369.515-.045a1.137,1.137,0,0,0,.17.51.932.932,0,0,0,.415.322,1.575,1.575,0,0,0,.633.122,1.523,1.523,0,0,0,.552-.093.771.771,0,0,0,.356-.255.6.6,0,0,0,.117-.354.532.532,0,0,0-.113-.34.826.826,0,0,0-.371-.244,7.239,7.239,0,0,0-.735-.2,3.75,3.75,0,0,1-.8-.259,1.121,1.121,0,0,1-.441-.385.949.949,0,0,1-.144-.515,1.056,1.056,0,0,1,.177-.585,1.1,1.1,0,0,1,.518-.414,1.977,1.977,0,0,1,.757-.141,2.064,2.064,0,0,1,.81.148,1.164,1.164,0,0,1,.539.436,1.258,1.258,0,0,1,.2.652l-.523.039a.853.853,0,0,0-.286-.593,1.109,1.109,0,0,0-.719-.2,1.153,1.153,0,0,0-.723.182.547.547,0,0,0-.227.439.471.471,0,0,0,.161.367,2.156,2.156,0,0,0,.824.3,5.481,5.481,0,0,1,.914.264,1.261,1.261,0,0,1,.532.422,1.031,1.031,0,0,1,.17.589,1.127,1.127,0,0,1-.188.622,1.248,1.248,0,0,1-.543.455,1.885,1.885,0,0,1-.794.162,2.356,2.356,0,0,1-.939-.163,1.318,1.318,0,0,1-.595-.493,1.394,1.394,0,0,1-.226-.744ZM216,202.594v-4.138h2.785v.488h-2.24v1.282h1.937v.488h-1.937v1.88Zm-4.68-2.015a2.249,2.249,0,0,1,.551-1.613,1.878,1.878,0,0,1,1.425-.583,1.983,1.983,0,0,1,1.03.272,1.79,1.79,0,0,1,.7.764,2.479,2.479,0,0,1,.24,1.11,2.44,2.44,0,0,1-.252,1.127,1.733,1.733,0,0,1-.718.752,2.046,2.046,0,0,1-1,.255,1.943,1.943,0,0,1-1.042-.282,1.813,1.813,0,0,1-.7-.771,2.338,2.338,0,0,1-.238-1.033Zm.563.008a1.66,1.66,0,0,0,.4,1.178,1.4,1.4,0,0,0,1.98.038l.042-.042a1.764,1.764,0,0,0,.4-1.234,2.127,2.127,0,0,0-.17-.882,1.314,1.314,0,0,0-.5-.585,1.355,1.355,0,0,0-.736-.207,1.392,1.392,0,0,0-1,.4,1.786,1.786,0,0,0-.418,1.333Zm-6.821,2.007v-4.138h.823l.976,2.93c.09.272.157.476.2.612q.071-.226.22-.664l.988-2.878H209v4.138h-.527v-3.463l-1.2,3.463h-.493l-1.194-3.522v3.522Zm-4.634-2.015a2.252,2.252,0,0,1,.551-1.613,1.878,1.878,0,0,1,1.425-.583,1.983,1.983,0,0,1,1.03.272,1.8,1.8,0,0,1,.7.764,2.478,2.478,0,0,1,.24,1.11,2.439,2.439,0,0,1-.252,1.127,1.737,1.737,0,0,1-.718.752,2.051,2.051,0,0,1-1,.255,1.942,1.942,0,0,1-1.042-.282,1.813,1.813,0,0,1-.7-.771,2.338,2.338,0,0,1-.238-1.033Zm.563.008a1.658,1.658,0,0,0,.4,1.178,1.4,1.4,0,0,0,1.98.039l.042-.043a1.765,1.765,0,0,0,.4-1.234,2.132,2.132,0,0,0-.17-.882,1.315,1.315,0,0,0-.5-.585,1.354,1.354,0,0,0-.736-.207,1.393,1.393,0,0,0-1,.4,1.785,1.785,0,0,0-.418,1.333ZM196.43,202.6v-4.138h1.421a3.444,3.444,0,0,1,.735.06,1.4,1.4,0,0,1,.605.3,1.688,1.688,0,0,1,.488.707,2.776,2.776,0,0,1,.162.984,2.87,2.87,0,0,1-.111.835,2,2,0,0,1-.282.6,1.469,1.469,0,0,1-.376.374,1.509,1.509,0,0,1-.492.208,2.807,2.807,0,0,1-.663.07Zm.546-.489h.882a2.125,2.125,0,0,0,.641-.076.92.92,0,0,0,.37-.215,1.3,1.3,0,0,0,.3-.523,2.558,2.558,0,0,0,.109-.8,1.932,1.932,0,0,0-.212-1,1.068,1.068,0,0,0-.517-.467,2.112,2.112,0,0,0-.707-.085h-.868v3.161Zm-3.1-1.135v-.484l1.748,0v1.535a3.082,3.082,0,0,1-.83.484,2.469,2.469,0,0,1-.878.162,2.338,2.338,0,0,1-1.105-.261,1.727,1.727,0,0,1-.75-.754,2.38,2.38,0,0,1-.254-1.1,2.559,2.559,0,0,1,.253-1.127,1.672,1.672,0,0,1,.725-.778,2.273,2.273,0,0,1,1.09-.253,2.138,2.138,0,0,1,.809.146,1.329,1.329,0,0,1,.567.4,1.81,1.81,0,0,1,.314.677l-.493.136a1.562,1.562,0,0,0-.231-.5.951.951,0,0,0-.4-.289,1.44,1.44,0,0,0-.568-.109,1.671,1.671,0,0,0-.648.115,1.206,1.206,0,0,0-.441.3,1.44,1.44,0,0,0-.26.408,2.165,2.165,0,0,0-.158.832,2.014,2.014,0,0,0,.19.926,1.218,1.218,0,0,0,.554.553,1.7,1.7,0,0,0,.771.181,1.817,1.817,0,0,0,.693-.138,1.74,1.74,0,0,0,.512-.292v-.771Zm-6.1,1.623v-4.138h.56l2.168,3.249v-3.249h.524v4.138h-.56l-2.168-3.251v3.251Zm-1.5,0v-4.138h.546v4.138Z" transform="translate(-181.889 -148.996)" fill="#fff" fill-rule="evenodd"/>
    <path id="Path_193" data-name="Path 193" d="M213.926,166.558a1.8,1.8,0,0,1,.267.9s.558-.915,1.715-.153c0,0-.984-.132-1.218.376,0,0,1.512-.4,1.837,1.007,0,0-.7-.782-1.34-.641a1.643,1.643,0,0,1,1.045,2s-.122-1.343-1.1-1.505a2.233,2.233,0,0,1,.558,2.238,2.2,2.2,0,0,0-.69-1.638,2.366,2.366,0,0,1-.294,2.187s.4-1.333-.244-1.821c0,0-.264-.163-.254.326,0,0-.076,2.8.062,4.159,0,0,2.792-2.369,5.182-.794,0,0-2.366-1.157-5.091,1.392l1.818,1.6a.456.456,0,0,1,.843.242c0,.615-.862.571-1.177.2l-1.911-1.76-.014-.042-.014.042L212,176.642c-.315.369-1.177.413-1.177-.2a.456.456,0,0,1,.844-.242l1.818-1.6c-2.724-2.552-5.091-1.392-5.091-1.392,2.39-1.575,5.182.794,5.182.794.138-1.364.062-4.159.062-4.159.01-.488-.254-.326-.254-.326-.639.489-.244,1.821-.244,1.821a2.367,2.367,0,0,1-.294-2.187,2.2,2.2,0,0,0-.69,1.638,2.231,2.231,0,0,1,.558-2.238c-.974.163-1.1,1.505-1.1,1.505a1.641,1.641,0,0,1,1.045-2c-.639-.142-1.34.641-1.34.641.325-1.4,1.837-1.007,1.837-1.007-.233-.509-1.218-.376-1.218-.376,1.157-.763,1.715.153,1.715.153a1.8,1.8,0,0,1,.265-.9Z" transform="translate(-184.641 -145.639)" fill="#fff" fill-rule="evenodd"/>
    <path id="Path_194" data-name="Path 194" d="M186.021,195.884h.531v-.532h-.531Zm-1.245-5.776h-.531v.533h.531Zm2.138,5.776h.531v-.532h-.531Zm-3.034-5.776h-.531v.533h.531Zm6.8,1.584a1.3,1.3,0,0,0-.462-.336,1.379,1.379,0,0,0-.615-.112h-.391v.5h.462a.753.753,0,0,1,.35.084.866.866,0,0,1,.28.21.988.988,0,0,1,.154.295,1.6,1.6,0,0,1,.042.392v1.5h-2.419v.518h2.937v-2.032a1.908,1.908,0,0,0-.084-.575,1.173,1.173,0,0,0-.251-.449Zm19.97,3.056h.518v-4.64h-.518Zm-2.014-.519h-.853a1.711,1.711,0,0,1-.713-.127.994.994,0,0,1-.407-.393,1.694,1.694,0,0,0,.056-.49v-1.654H206.2V193.3a1.021,1.021,0,0,1-.238.714.928.928,0,0,1-.727.266,1.016,1.016,0,0,1-.419-.07,1.213,1.213,0,0,1-.322-.182,1.133,1.133,0,0,1-.21-.294.765.765,0,0,1-.084-.35v-1.822h-.518v1.78a1.108,1.108,0,0,1-.07.407.628.628,0,0,1-.2.266.672.672,0,0,1-.28.154.812.812,0,0,1-.322.056h-1.007v-2.664h-.517v2.664h-2.7l.895-2.159a5.364,5.364,0,0,0-.434-.35,4.035,4.035,0,0,0-.475-.266,2.5,2.5,0,0,0-.5-.2,1.791,1.791,0,0,0-.993,0,3.682,3.682,0,0,0-.5.182,3.283,3.283,0,0,0-.475.28,3.7,3.7,0,0,0-.433.35l.909,2.159h-1.79v-2.986h-.825a2.818,2.818,0,0,0-.867.126,2.214,2.214,0,0,0-.671.378,1.583,1.583,0,0,0-.447.561,1.651,1.651,0,0,0-.154.7,1.516,1.516,0,0,0,.182.786,1.419,1.419,0,0,0,.462.532,2.07,2.07,0,0,0,.686.323,3.807,3.807,0,0,0,.811.1h.307v.141a.7.7,0,0,1-.224.589,1.115,1.115,0,0,1-.657.168,2.06,2.06,0,0,1-.433-.042,2.717,2.717,0,0,1-.434-.154l-.154.491a3.631,3.631,0,0,0,.518.168,1.728,1.728,0,0,0,.462.056,1.5,1.5,0,0,0,1.1-.365,1.344,1.344,0,0,0,.336-.953v-.1h8.027a1.325,1.325,0,0,0,.671-.168,1.421,1.421,0,0,0,.475-.435,1.215,1.215,0,0,0,.5.491,1.644,1.644,0,0,0,.77.168,1.859,1.859,0,0,0,.783-.154,1.1,1.1,0,0,0,.5-.5.85.85,0,0,0,.168.224.818.818,0,0,0,.238.183,1.154,1.154,0,0,0,.35.14,1.571,1.571,0,0,0,.378.042v.014h1.5v-4.64h-.517v4.122Zm12.481,1.667h.531v-.533h-.531Zm5.049-1.654-.8-1.99a1.822,1.822,0,0,1,.6-.365,1.754,1.754,0,0,1,.657-.112,1.66,1.66,0,0,1,.685.14,1.7,1.7,0,0,1,.587.337l-.811,1.99Zm3.665,0h-2.2l.909-2.173c-.14-.113-.294-.224-.447-.336a5.244,5.244,0,0,0-.475-.281,3.422,3.422,0,0,0-.489-.182,1.841,1.841,0,0,0-1.007,0,3.639,3.639,0,0,0-.5.182,3.218,3.218,0,0,0-.475.281c-.154.112-.294.224-.434.336l.923,2.172H223.7v-3h-.517v3.616a1.507,1.507,0,0,1-.028.379.535.535,0,0,1-.07.238.3.3,0,0,1-.154.141.561.561,0,0,1-.238.042.392.392,0,0,1-.126-.014.85.85,0,0,1-.14-.028l-.14.5a2.493,2.493,0,0,0,.42.056.957.957,0,0,0,.475-.1.767.767,0,0,0,.308-.252,1.47,1.47,0,0,0,.168-.42,3.107,3.107,0,0,0,.042-.547v-.112h6.643v-4.627h-.517v4.123Zm-10.6,1.654h.531v-.533h-.531Zm-3.132-1.654h-.518a1.852,1.852,0,0,1-.545-.084,1.221,1.221,0,0,1-.434-.252,1.022,1.022,0,0,1-.307-.379,1.276,1.276,0,0,1-.112-.518,1.055,1.055,0,0,1,.126-.519,1.674,1.674,0,0,1,.307-.393,2.411,2.411,0,0,1,.462-.252,1.567,1.567,0,0,1,.5-.084h.518v2.481Zm5.552-3h-.518v3h-1.944v-3h-.518v3h-2.056v-3H215.8a2.9,2.9,0,0,0-.883.14,1.932,1.932,0,0,0-.671.364,1.69,1.69,0,0,0-.433.561,1.666,1.666,0,0,0-.154.7,1.758,1.758,0,0,0,.182.785,1.73,1.73,0,0,0,.462.547,2.064,2.064,0,0,0,.685.309,3.007,3.007,0,0,0,.811.1h5.846v-3.5Zm-3.314,4.654h.531v-.533h-.531Zm-1.72-5.776h-.531v.533h.531Zm-.909,0h-.531v.533h.531Zm16.138,4.627h.517v-4.627h-.517v4.627Zm23.086-.451a1.327,1.327,0,0,1-.294.434,1.476,1.476,0,0,1-.419.281,1.4,1.4,0,0,1-.545.1,1.131,1.131,0,0,1-.531-.112,1.679,1.679,0,0,1-.419-.281,1.255,1.255,0,0,1-.265-.434,1.325,1.325,0,0,1-.112-.519,1.4,1.4,0,0,1,.112-.533,1.262,1.262,0,0,1,.265-.434,1.6,1.6,0,0,1,.419-.294,1.288,1.288,0,0,1,.531-.1,1.4,1.4,0,0,1,.545.1,1.558,1.558,0,0,1,.434.281,1.106,1.106,0,0,1,.28.434,1.409,1.409,0,0,1,.112.547,1.339,1.339,0,0,1-.112.533Zm-5.006,0a1.319,1.319,0,0,1-.294.434,1.374,1.374,0,0,1-.433.281,1.282,1.282,0,0,1-.531.1,1.131,1.131,0,0,1-.531-.112,1.68,1.68,0,0,1-.419-.281,1.547,1.547,0,0,1-.28-.434,1.62,1.62,0,0,1-.1-.519,1.709,1.709,0,0,1,.1-.533,1.558,1.558,0,0,1,.28-.434,1.6,1.6,0,0,1,.419-.294,1.293,1.293,0,0,1,.531-.1,1.4,1.4,0,0,1,.545.1,1.555,1.555,0,0,1,.433.281,1.289,1.289,0,0,1,.28.434,1.41,1.41,0,0,1,.112.547,1.341,1.341,0,0,1-.112.533Zm-12.557.238h-.5a1.706,1.706,0,0,1-.545-.084,1.28,1.28,0,0,1-.447-.252.99.99,0,0,1-.294-.378,1.085,1.085,0,0,1-.112-.519,1.225,1.225,0,0,1,.112-.518,1.409,1.409,0,0,1,.322-.392,1.956,1.956,0,0,1,.447-.253,1.62,1.62,0,0,1,.517-.084h.5Zm19.8,0h-1.776a1.776,1.776,0,0,0,.168-.771,1.91,1.91,0,0,0-.154-.743,1.948,1.948,0,0,0-.391-.6,1.794,1.794,0,0,0-.6-.393,1.846,1.846,0,0,0-.742-.14,1.822,1.822,0,0,0-.727.14,1.708,1.708,0,0,0-.574.409,1.6,1.6,0,0,0-.391.6,1.826,1.826,0,0,0-.154.729,1.735,1.735,0,0,0,.168.771h-1.608a1.781,1.781,0,0,0,.168-.771,1.906,1.906,0,0,0-.154-.743,1.945,1.945,0,0,0-.392-.6,1.784,1.784,0,0,0-.6-.393,1.834,1.834,0,0,0-.741-.14,1.768,1.768,0,0,0-.727.14,1.918,1.918,0,0,0-.587.408,2.036,2.036,0,0,0-.391.6,2.111,2.111,0,0,0-.14.729,1.93,1.93,0,0,0,.042.407,3.609,3.609,0,0,0,.112.365h-1.636v-4.127h-.518v4.122h-1.636v-.8a1.87,1.87,0,0,0-.084-.561,1.213,1.213,0,0,0-.238-.463,1.768,1.768,0,0,0-.462-.336,1.639,1.639,0,0,0-.629-.1h-2.293l.979-1.864H239.9l-.993,1.85a1.54,1.54,0,0,0,.07.294,1.3,1.3,0,0,0,.154.225h2.643a1.027,1.027,0,0,1,.419.084.674.674,0,0,1,.28.2.6.6,0,0,1,.154.294,1.563,1.563,0,0,1,.042.379v.8h-4.783v-3h-.811a2.892,2.892,0,0,0-.883.14,2.076,2.076,0,0,0-.671.364,1.649,1.649,0,0,0-.419.56,1.478,1.478,0,0,0-.154.7,1.757,1.757,0,0,0,.168.785,2.186,2.186,0,0,0,.462.547,2.037,2.037,0,0,0,.685.308,3.049,3.049,0,0,0,.811.1h10.237a1.838,1.838,0,0,0,.6.434,1.728,1.728,0,0,0,.755.154,1.749,1.749,0,0,0,.769-.154,1.592,1.592,0,0,0,.615-.434h2.279a1.787,1.787,0,0,0,.587.434,1.729,1.729,0,0,0,.755.154,1.752,1.752,0,0,0,.769-.154,1.6,1.6,0,0,0,.615-.434h2.629v-4.627h-.518v4.124Zm2.028.5h.517v-4.627h-.517Zm-22.222-4.627h-.531v.533h.531Zm.909,0h-.531v.533h.531Zm-50.53.832h-.518v2.986h-2.056v-2.986h-.811a2.917,2.917,0,0,0-.883.126,2.218,2.218,0,0,0-.671.365A1.674,1.674,0,0,0,181.84,193a1.716,1.716,0,0,0,.168.785,1.644,1.644,0,0,0,.475.547,1.978,1.978,0,0,0,.672.308,3.17,3.17,0,0,0,.811.112h3.384v-3.5Zm-3.091,2.986h-.5a1.717,1.717,0,0,1-.545-.084,1.529,1.529,0,0,1-.448-.238,1.169,1.169,0,0,1-.294-.393,1.054,1.054,0,0,1-.112-.518,1.216,1.216,0,0,1,.112-.5,1.388,1.388,0,0,1,.769-.646,1.6,1.6,0,0,1,.518-.1h.5v2.483Zm10.012,0h-.517a1.718,1.718,0,0,1-.545-.084,1.259,1.259,0,0,1-.448-.238,1.028,1.028,0,0,1-.308-.379,1.231,1.231,0,0,1-.112-.518,1.043,1.043,0,0,1,.126-.5,1.242,1.242,0,0,1,.308-.393,1.8,1.8,0,0,1,.448-.266,1.731,1.731,0,0,1,.531-.084h.517v2.467Zm2.853,0-.811-1.991a2.151,2.151,0,0,1,.615-.364,2.021,2.021,0,0,1,.657-.112,1.713,1.713,0,0,1,.685.14,2.067,2.067,0,0,1,.574.336l-.8,1.991Z" transform="translate(-181.839 -148.123)" fill="#fff" fill-rule="evenodd"/>
    <path id="Path_195" data-name="Path 195" d="M250.727,155.248h.893v.9h-.893Zm1.787,0h.894v.9h-.894Zm-17.627-10.187h-.894v-.9h.894Zm21.387,6.232a3.759,3.759,0,0,0,1.173.541,5.775,5.775,0,0,0,1.414.168h.223l.316-.635v.877a1.19,1.19,0,0,1-.409,1.008,1.773,1.773,0,0,1-1.117.3,3.046,3.046,0,0,1-.745-.074,4.629,4.629,0,0,1-.763-.261l-.279.858a6.779,6.779,0,0,0,.912.28,3.885,3.885,0,0,0,.8.093,2.526,2.526,0,0,0,1.9-.616,2.313,2.313,0,0,0,.577-1.661v-6.214h-1.415a4.752,4.752,0,0,0-1.508.224,3.628,3.628,0,0,0-1.154.634,2.977,2.977,0,0,0-.727,3.546,2.588,2.588,0,0,0,.8.933Zm0-3.153a1.966,1.966,0,0,1,.54-.69,2.559,2.559,0,0,1,1.656-.6H259.9l-.5.261v3.993h-.912a2.956,2.956,0,0,1-.931-.131,2.6,2.6,0,0,1-.78-.411,2.182,2.182,0,0,1-.521-.653,1.98,1.98,0,0,1-.186-.9,1.742,1.742,0,0,1,.2-.877Zm-19.619-3.079h-.875v-.9h.875Zm25.892,9.385a3.242,3.242,0,0,1-.726-.093l.223-.858a1.6,1.6,0,0,1,.242.056h.223a.893.893,0,0,0,.41-.074.443.443,0,0,0,.261-.224,1.171,1.171,0,0,0,.13-.429,3.23,3.23,0,0,0,.037-.634v-6.232h.893v6.234a4.719,4.719,0,0,1-.074.933,1.82,1.82,0,0,1-.3.728,1.36,1.36,0,0,1-.521.448,2.04,2.04,0,0,1-.8.149Zm-28.312-.112h1.843v-.672a.418.418,0,0,1,.056.093,1.42,1.42,0,0,0,.54.448,1.978,1.978,0,0,0,.8.149h16.25v-8.4h-.893v7.5H237.511a1.391,1.391,0,0,1-.428-.056.6.6,0,0,1-.242-.242,1.151,1.151,0,0,1-.149-.429,5.5,5.5,0,0,1-.037-.634v-6.139h-2.4A4.088,4.088,0,0,0,230.121,150c0,.046,0,.09,0,.136v.019a4.062,4.062,0,0,0,3.942,4.178c.057,0,.114,0,.172,0Zm-3.164-4.219a3.167,3.167,0,0,1,3.164-3.321h2.085l-.54.261v5.038a4.622,4.622,0,0,0,.074.933,2.545,2.545,0,0,0,.13.448h-1.731a3.209,3.209,0,0,1-3.183-3.34v-.019Zm28.211-6.944h.729v.657h-.668a.263.263,0,0,0-.262.262v.262h1.144v.71h-1.886v-.945a.947.947,0,0,1,.943-.945Z" transform="translate(-186.932 -143.172)" fill="#fff" fill-rule="evenodd"/>
    <path id="Path_196" data-name="Path 196" d="M220.4,146.2h.911v8.35h-.744l-5.931-7.511.521,1.212v6.3h-.911V146.2h.874l5.652,7.194-.374-1.025V146.2Zm-34.712,8.424L182.1,146.2h1.041l.521,1.249,2.454,5.946.241.578-.092-.913,2.845-6.859h1l-3.588,8.424Zm15.916-8.424h.948v8.35h-.951V146.2Zm10.114,4.193a3.282,3.282,0,0,1-3.273,3.429,3.325,3.325,0,0,1-3.292-3.448v-.019a3.286,3.286,0,1,1,6.565.019Zm-3.273-4.343a4.237,4.237,0,0,0-4.258,4.217c0,.036,0,.071,0,.107v.019a4.185,4.185,0,0,0,4.062,4.3c.059,0,.118,0,.177,0a4.231,4.231,0,0,0,4.277-4.185c0-.047,0-.093,0-.14v-.019a4.2,4.2,0,0,0-4.094-4.3c-.055,0-.109,0-.164,0Zm-8.385,6.244v.019c0,1.435-1.209,2.367-2.863,2.367a4.88,4.88,0,0,1-3.4-1.342l.577-.689a4,4,0,0,0,2.863,1.174c1.134,0,1.859-.6,1.859-1.416v-.019c0-.782-.409-1.23-2.175-1.584-1.915-.429-2.789-1.043-2.789-2.423v-.019a2.462,2.462,0,0,1,2.733-2.292,4.291,4.291,0,0,1,2.938,1.043l-.539.727a3.7,3.7,0,0,0-2.417-.913c-1.079,0-1.785.6-1.785,1.341v.037c0,.782.428,1.231,2.268,1.622,1.859.41,2.733,1.082,2.733,2.367Zm-7.716,2.255H191.4V146.2h.948Z" transform="translate(-181.867 -143.475)" fill="#fff" fill-rule="evenodd"/>
  </g>
</svg>
