<svg width="458" height="324" viewBox="0 0 458 324" fill="none" xmlns="http://www.w3.org/2000/svg">
<path d="M120.4 233V206.2H59V180.6L113.4 93.4H149V183H166.6V206.2H149V233H120.4ZM83 183H120.4V124.4H118.4L83 183ZM228.922 235.4C210.655 235.4 197.122 229.067 188.322 216.4C179.522 203.733 175.122 186 175.122 163.2C175.122 140.4 179.522 122.667 188.322 110C197.122 97.3333 210.655 91 228.922 91C247.189 91 260.722 97.3333 269.522 110C278.322 122.667 282.722 140.4 282.722 163.2C282.722 186 278.322 203.733 269.522 216.4C260.722 229.067 247.189 235.4 228.922 235.4ZM228.922 210C236.922 210 242.455 207.067 245.522 201.2C248.589 195.333 250.122 187.067 250.122 176.4V150C250.122 139.333 248.589 131.067 245.522 125.2C242.455 119.333 236.922 116.4 228.922 116.4C220.922 116.4 215.389 119.333 212.322 125.2C209.255 131.067 207.722 139.333 207.722 150V176.4C207.722 187.067 209.255 195.333 212.322 201.2C215.389 207.067 220.922 210 228.922 210ZM352.244 233V206.2H290.844V180.6L345.244 93.4H380.844V183H398.444V206.2H380.844V233H352.244ZM314.844 183H352.244V124.4H350.244L314.844 183Z" fill="#384250"/>
<path d="M441.328 39.6665C441.328 39.2983 441.626 38.9998 441.994 38.9998H442C442.369 38.9998 442.667 39.2983 442.667 39.6665C442.667 40.0347 442.369 40.3332 442 40.3332H441.994C441.626 40.3332 441.328 40.0347 441.328 39.6665Z" fill="#D2D6DB"/>
<path d="M441.5 37.6665C441.5 37.9426 441.724 38.1665 442 38.1665C442.276 38.1665 442.5 37.9426 442.5 37.6665V34.9998C442.5 34.7237 442.276 34.4998 442 34.4998C441.724 34.4998 441.5 34.7237 441.5 34.9998V37.6665Z" fill="#D2D6DB"/>
<path fill-rule="evenodd" clip-rule="evenodd" d="M440.908 30.3432C441.617 30.1076 442.382 30.1076 443.092 30.3432C443.798 30.5778 444.353 31.1341 444.911 31.9158C445.466 32.6949 446.08 33.7812 446.872 35.1815L446.903 35.2365C447.694 36.637 448.308 37.7232 448.691 38.6042C449.075 39.4894 449.266 40.2537 449.114 40.9879C448.96 41.7272 448.581 42.3995 448.028 42.9076C447.477 43.4145 446.727 43.6283 445.782 43.7311C444.843 43.8332 443.614 43.8332 442.032 43.8332H441.967C440.386 43.8332 439.157 43.8332 438.217 43.7311C437.273 43.6283 436.522 43.4145 435.971 42.9076C435.419 42.3995 435.039 41.7272 434.886 40.9879C434.733 40.2537 434.924 39.4894 435.309 38.6042C435.691 37.7232 436.305 36.637 437.097 35.2365L437.128 35.1815C437.919 33.7812 438.533 32.6949 439.089 31.9158C439.646 31.1341 440.201 30.5778 440.908 30.3432ZM442.777 31.2923C442.272 31.1246 441.728 31.1246 441.223 31.2923C440.825 31.4241 440.426 31.7628 439.903 32.4964C439.382 33.2275 438.793 34.2675 437.983 35.7011C437.173 37.1347 436.585 38.1755 436.226 39.0025C435.866 39.8309 435.776 40.3585 435.865 40.7842C435.976 41.3213 436.251 41.8067 436.648 42.1716C436.96 42.4583 437.445 42.6412 438.325 42.7369C439.204 42.8325 440.379 42.8332 442 42.8332C443.621 42.8332 444.795 42.8325 445.674 42.7369C446.554 42.6412 447.04 42.4583 447.351 42.1716C447.748 41.8067 448.023 41.3213 448.135 40.7842C448.223 40.3585 448.133 39.8309 447.773 39.0025C447.414 38.1755 446.827 37.1347 446.017 35.7011C445.206 34.2675 444.618 33.2275 444.097 32.4964C443.573 31.7628 443.174 31.4241 442.777 31.2923Z" fill="#D2D6DB"/>
<path d="M323.328 275.667C323.328 275.298 323.626 275 323.994 275H324C324.369 275 324.667 275.298 324.667 275.667C324.667 276.035 324.369 276.333 324 276.333H323.994C323.626 276.333 323.328 276.035 323.328 275.667Z" fill="#D2D6DB"/>
<path d="M323.5 273.667C323.5 273.943 323.724 274.167 324 274.167C324.276 274.167 324.5 273.943 324.5 273.667V271C324.5 270.724 324.276 270.5 324 270.5C323.724 270.5 323.5 270.724 323.5 271V273.667Z" fill="#D2D6DB"/>
<path fill-rule="evenodd" clip-rule="evenodd" d="M322.908 266.343C323.617 266.108 324.382 266.108 325.092 266.343C325.798 266.578 326.353 267.134 326.911 267.916C327.466 268.695 328.08 269.781 328.872 271.182L328.903 271.236C329.694 272.637 330.308 273.723 330.691 274.604C331.075 275.489 331.266 276.254 331.114 276.988C330.96 277.727 330.581 278.399 330.028 278.908C329.477 279.415 328.727 279.628 327.782 279.731C326.843 279.833 325.614 279.833 324.032 279.833H323.967C322.386 279.833 321.157 279.833 320.217 279.731C319.273 279.628 318.522 279.415 317.971 278.908C317.419 278.399 317.039 277.727 316.886 276.988C316.733 276.254 316.924 275.489 317.309 274.604C317.691 273.723 318.305 272.637 319.097 271.236L319.128 271.182C319.919 269.781 320.533 268.695 321.089 267.916C321.646 267.134 322.201 266.578 322.908 266.343ZM324.777 267.292C324.272 267.125 323.728 267.125 323.223 267.292C322.825 267.424 322.426 267.763 321.903 268.496C321.382 269.227 320.793 270.267 319.983 271.701C319.173 273.135 318.585 274.175 318.226 275.003C317.866 275.831 317.776 276.358 317.865 276.784C317.976 277.321 318.251 277.807 318.648 278.172C318.96 278.458 319.445 278.641 320.325 278.737C321.204 278.832 322.379 278.833 324 278.833C325.621 278.833 326.795 278.832 327.674 278.737C328.554 278.641 329.04 278.458 329.351 278.172C329.748 277.807 330.023 277.321 330.135 276.784C330.223 276.358 330.133 275.831 329.773 275.003C329.414 274.175 328.827 273.135 328.017 271.701C327.206 270.267 326.618 269.227 326.097 268.496C325.573 267.763 325.174 267.424 324.777 267.292Z" fill="#D2D6DB"/>
<path fill-rule="evenodd" clip-rule="evenodd" d="M85.4697 282.47C85.7626 282.177 86.2374 282.177 86.5303 282.47L93 288.939L99.4697 282.47C99.7626 282.177 100.237 282.177 100.53 282.47C100.823 282.763 100.823 283.237 100.53 283.53L94.0607 290L100.53 296.47C100.823 296.763 100.823 297.237 100.53 297.53C100.237 297.823 99.7626 297.823 99.4697 297.53L93 291.061L86.5303 297.53C86.2374 297.823 85.7626 297.823 85.4697 297.53C85.1768 297.237 85.1768 296.763 85.4697 296.47L91.9393 290L85.4697 283.53C85.1768 283.237 85.1768 282.763 85.4697 282.47Z" fill="#9DA4AE"/>
<path fill-rule="evenodd" clip-rule="evenodd" d="M18.9795 133.98C19.1747 133.785 19.4913 133.785 19.6866 133.98L23.9997 138.293L28.3128 133.98C28.508 133.785 28.8246 133.785 29.0199 133.98C29.2152 134.175 29.2152 134.492 29.0199 134.687L24.7068 139L29.0199 143.313C29.2152 143.509 29.2152 143.825 29.0199 144.02C28.8246 144.216 28.508 144.216 28.3128 144.02L23.9997 139.707L19.6866 144.02C19.4913 144.216 19.1747 144.216 18.9795 144.02C18.7842 143.825 18.7842 143.509 18.9795 143.313L23.2926 139L18.9795 134.687C18.7842 134.492 18.7842 134.175 18.9795 133.98Z" fill="#D2D6DB"/>
<path d="M214.53 37.4697C214.237 37.1768 213.763 37.1768 213.47 37.4696C213.177 37.7625 213.177 38.2374 213.47 38.5303L215.939 41.0003L213.47 43.4697C213.177 43.7626 213.177 44.2375 213.47 44.5304C213.763 44.8232 214.238 44.8232 214.531 44.5303L217 42.061L219.469 44.5303C219.762 44.8232 220.237 44.8232 220.53 44.5304C220.823 44.2375 220.823 43.7626 220.53 43.4697L218.061 41.0003L220.53 38.5303C220.823 38.2374 220.823 37.7625 220.53 37.4696C220.237 37.1768 219.763 37.1768 219.47 37.4697L217 39.9396L214.53 37.4697Z" fill="#9DA4AE"/>
<path fill-rule="evenodd" clip-rule="evenodd" d="M217 51.75C211.063 51.75 206.25 46.9371 206.25 41C206.25 35.0629 211.063 30.25 217 30.25C222.937 30.25 227.75 35.0629 227.75 41C227.75 46.9371 222.937 51.75 217 51.75ZM207.75 41C207.75 46.1086 211.891 50.25 217 50.25C222.109 50.25 226.25 46.1086 226.25 41C226.25 35.8914 222.109 31.75 217 31.75C211.891 31.75 207.75 35.8914 207.75 41Z" fill="#9DA4AE"/>
<path d="M151.353 313.647C151.158 313.451 150.841 313.451 150.646 313.647C150.451 313.842 150.451 314.158 150.646 314.354L152.293 316L150.647 317.647C150.451 317.842 150.451 318.158 150.647 318.354C150.842 318.549 151.158 318.549 151.354 318.354L153 316.708L154.646 318.354C154.841 318.549 155.158 318.549 155.353 318.354C155.548 318.158 155.548 317.842 155.353 317.647L153.707 316L155.353 314.354C155.548 314.158 155.548 313.842 155.353 313.647C155.158 313.451 154.841 313.451 154.646 313.647L153 315.293L151.353 313.647Z" fill="#D2D6DB"/>
<path fill-rule="evenodd" clip-rule="evenodd" d="M153 323.167C149.042 323.167 145.833 319.958 145.833 316C145.833 312.042 149.042 308.833 153 308.833C156.958 308.833 160.166 312.042 160.166 316C160.166 319.958 156.958 323.167 153 323.167ZM146.833 316C146.833 319.406 149.594 322.167 153 322.167C156.405 322.167 159.166 319.406 159.166 316C159.166 312.594 156.405 309.833 153 309.833C149.594 309.833 146.833 312.594 146.833 316Z" fill="#D2D6DB"/>
<path d="M449.53 126.53C449.823 126.237 449.823 125.763 449.53 125.47C449.237 125.177 448.763 125.177 448.47 125.47L446 127.939L443.53 125.47C443.237 125.177 442.763 125.177 442.47 125.47C442.177 125.763 442.177 126.238 442.47 126.531L444.939 129L442.47 131.469C442.177 131.762 442.177 132.237 442.47 132.53C442.763 132.823 443.237 132.823 443.53 132.53L446 130.061L448.47 132.53C448.763 132.823 449.237 132.823 449.53 132.53C449.823 132.237 449.823 131.763 449.53 131.47L447.06 129L449.53 126.53Z" fill="#9DA4AE"/>
<path fill-rule="evenodd" clip-rule="evenodd" d="M446.057 118.75H445.943C443.752 118.75 442.031 118.75 440.688 118.931C439.311 119.116 438.219 119.503 437.361 120.361C436.503 121.219 436.116 122.311 435.931 123.688C435.75 125.031 435.75 126.752 435.75 128.943V129.057C435.75 131.248 435.75 132.969 435.931 134.312C436.116 135.689 436.503 136.781 437.361 137.639C438.219 138.497 439.311 138.884 440.688 139.069C442.031 139.25 443.752 139.25 445.943 139.25H446.057C448.248 139.25 449.969 139.25 451.312 139.069C452.689 138.884 453.781 138.497 454.639 137.639C455.497 136.781 455.884 135.689 456.069 134.312C456.25 132.969 456.25 131.248 456.25 129.057V128.943C456.25 126.752 456.25 125.031 456.069 123.688C455.884 122.311 455.497 121.219 454.639 120.361C453.781 119.503 452.689 119.116 451.312 118.931C449.969 118.75 448.248 118.75 446.057 118.75ZM438.422 121.422C438.955 120.889 439.678 120.58 440.888 120.417C442.12 120.252 443.74 120.25 446 120.25C448.26 120.25 449.88 120.252 451.112 120.417C452.322 120.58 453.045 120.889 453.578 121.422C454.111 121.955 454.42 122.678 454.583 123.888C454.748 125.12 454.75 126.74 454.75 129C454.75 131.26 454.748 132.88 454.583 134.112C454.42 135.322 454.111 136.045 453.578 136.578C453.045 137.111 452.322 137.42 451.112 137.583C449.88 137.748 448.26 137.75 446 137.75C443.74 137.75 442.12 137.748 440.888 137.583C439.678 137.42 438.955 137.111 438.422 136.578C437.889 136.045 437.58 135.322 437.417 134.112C437.252 132.88 437.25 131.26 437.25 129C437.25 126.74 437.252 125.12 437.417 123.888C437.58 122.678 437.889 121.955 438.422 121.422Z" fill="#9DA4AE"/>
<path d="M410.03 278.53C410.323 278.237 410.323 277.763 410.03 277.47C409.737 277.177 409.263 277.177 408.97 277.47L406.5 279.939L404.03 277.47C403.737 277.177 403.263 277.177 402.97 277.47C402.677 277.763 402.677 278.238 402.97 278.531L405.439 281L402.97 283.469C402.677 283.762 402.677 284.237 402.97 284.53C403.263 284.823 403.737 284.823 404.03 284.53L406.5 282.061L408.97 284.53C409.263 284.823 409.737 284.823 410.03 284.53C410.323 284.237 410.323 283.763 410.03 283.47L407.56 281L410.03 278.53Z" fill="#9DA4AE"/>
<path fill-rule="evenodd" clip-rule="evenodd" d="M406.557 270.75H406.443C404.252 270.75 402.531 270.75 401.188 270.931C399.811 271.116 398.719 271.503 397.861 272.361C397.003 273.219 396.616 274.311 396.431 275.688C396.25 277.031 396.25 278.752 396.25 280.943V281.057C396.25 283.248 396.25 284.969 396.431 286.312C396.616 287.689 397.003 288.781 397.861 289.639C398.719 290.497 399.811 290.884 401.188 291.069C402.531 291.25 404.252 291.25 406.443 291.25H406.557C408.748 291.25 410.469 291.25 411.812 291.069C413.189 290.884 414.281 290.497 415.139 289.639C415.997 288.781 416.384 287.689 416.569 286.312C416.75 284.969 416.75 283.248 416.75 281.057V280.943C416.75 278.752 416.75 277.031 416.569 275.688C416.384 274.311 415.997 273.219 415.139 272.361C414.281 271.503 413.189 271.116 411.812 270.931C410.469 270.75 408.748 270.75 406.557 270.75ZM398.922 273.422C399.455 272.889 400.178 272.58 401.388 272.417C402.62 272.252 404.24 272.25 406.5 272.25C408.76 272.25 410.38 272.252 411.612 272.417C412.822 272.58 413.545 272.889 414.078 273.422C414.611 273.955 414.92 274.678 415.083 275.888C415.248 277.12 415.25 278.74 415.25 281C415.25 283.26 415.248 284.88 415.083 286.112C414.92 287.322 414.611 288.045 414.078 288.578C413.545 289.111 412.822 289.42 411.612 289.583C410.38 289.748 408.76 289.75 406.5 289.75C404.24 289.75 402.62 289.748 401.388 289.583C400.178 289.42 399.455 289.111 398.922 288.578C398.389 288.045 398.08 287.322 397.917 286.112C397.752 284.88 397.75 283.26 397.75 281C397.75 278.74 397.752 277.12 397.917 275.888C398.08 274.678 398.389 273.955 398.922 273.422Z" fill="#9DA4AE"/>
<path d="M285.533 13.8337C284.773 13.8337 284.2 13.2537 283.973 13.027C283.667 12.7203 282.733 11.7937 283.407 10.6337C283.52 10.4337 283.68 10.2737 283.973 9.98033L285.14 8.81366C285.52 8.43366 285.82 8.13368 285.82 8.00034C285.82 7.86701 285.52 7.56703 285.14 7.18703L283.967 6.01369C283.673 5.72036 283.513 5.56033 283.4 5.36033C282.733 4.20033 283.66 3.27369 283.967 2.96702C284.273 2.66035 285.2 1.727 286.36 2.40033C286.56 2.51366 286.72 2.67369 287.013 2.96702L288.18 4.13369C288.56 4.51369 288.86 4.81366 288.993 4.81366C289.127 4.81366 289.427 4.51369 289.807 4.13369L290.973 2.96702C291.267 2.67369 291.427 2.51366 291.627 2.40033C292.78 1.73366 293.713 2.66035 294.02 2.96702C294.327 3.27369 295.26 4.20033 294.587 5.36033C294.473 5.56033 294.313 5.72036 294.02 6.01369L292.853 7.18036C292.473 7.56036 292.173 7.86034 292.173 7.99367C292.173 8.12701 292.473 8.42703 292.853 8.80703L294.02 9.97369C294.313 10.267 294.473 10.427 294.587 10.627C295.253 11.787 294.327 12.7137 294.02 13.0204C293.713 13.327 292.787 14.2603 291.627 13.587C291.427 13.4737 291.267 13.3137 290.973 13.0204L289.807 11.8537C289.427 11.4737 289.127 11.1737 288.993 11.1737C288.86 11.1737 288.56 11.4737 288.18 11.8537L287.013 13.0204C286.72 13.3137 286.56 13.4737 286.36 13.587C286.067 13.7537 285.787 13.8203 285.533 13.8203V13.8337ZM285.533 3.16701C285.313 3.16701 285.053 3.30035 284.68 3.67368C284.1 4.25368 284.093 4.55366 284.267 4.86033C284.313 4.947 284.453 5.08036 284.673 5.30703L285.84 6.47369C286.447 7.08036 286.813 7.44701 286.813 7.99367C286.813 8.54034 286.447 8.90702 285.84 9.51369L284.673 10.6804C284.447 10.907 284.313 11.0403 284.26 11.127C284.087 11.4337 284.093 11.7337 284.667 12.3137C285.247 12.8937 285.547 12.9004 285.853 12.727C285.94 12.6804 286.073 12.5403 286.3 12.3203L287.467 11.1537C288.073 10.547 288.44 10.1804 288.987 10.1804C289.533 10.1804 289.9 10.547 290.507 11.1537L291.673 12.3203C291.9 12.547 292.033 12.6803 292.12 12.7337C292.427 12.907 292.727 12.9003 293.307 12.327C293.887 11.747 293.893 11.447 293.72 11.1404C293.673 11.0537 293.533 10.9203 293.313 10.6937L292.147 9.527C291.54 8.92033 291.173 8.55368 291.173 8.00702C291.173 7.46035 291.54 7.09367 292.147 6.487L293.32 5.31366C293.547 5.08699 293.68 4.95367 293.733 4.867C293.907 4.56034 293.9 4.26036 293.327 3.68036C292.747 3.10036 292.447 3.09369 292.14 3.26703C292.053 3.31369 291.92 3.45369 291.693 3.67368L290.527 4.84035C289.92 5.44702 289.553 5.81366 289.007 5.81366C288.46 5.81366 288.093 5.44702 287.487 4.84035L286.32 3.67368C286.093 3.44702 285.96 3.31369 285.873 3.26035C285.767 3.20035 285.66 3.16034 285.54 3.16034L285.533 3.16701Z" fill="#D2D6DB"/>
<path d="M63.7999 87.7503C62.6599 87.7503 61.8 86.8803 61.46 86.5403C61 86.0803 59.5999 84.6903 60.6099 82.9503C60.7799 82.6503 61.02 82.4102 61.46 81.9702L63.21 80.2202C63.78 79.6502 64.2299 79.2003 64.2299 79.0003C64.2299 78.8003 63.78 78.3503 63.21 77.7803L61.4499 76.0203C61.0099 75.5803 60.7699 75.3403 60.5999 75.0403C59.5999 73.3003 60.9899 71.9103 61.4499 71.4503C61.9099 70.9903 63.2999 69.5902 65.0399 70.6002C65.3399 70.7702 65.58 71.0103 66.02 71.4503L67.77 73.2003C68.34 73.7703 68.7899 74.2202 68.9899 74.2202C69.1899 74.2202 69.64 73.7703 70.21 73.2003L71.96 71.4503C72.4 71.0103 72.6399 70.7702 72.9399 70.6002C74.6699 69.6002 76.07 70.9903 76.53 71.4503C76.99 71.9103 78.3899 73.3003 77.3799 75.0403C77.2099 75.3403 76.97 75.5803 76.53 76.0203L74.78 77.7703C74.21 78.3403 73.7599 78.7903 73.7599 78.9903C73.7599 79.1903 74.21 79.6403 74.78 80.2103L76.53 81.9603C76.97 82.4003 77.2099 82.6403 77.3799 82.9403C78.3799 84.6803 76.99 86.0703 76.53 86.5303C76.07 86.9903 74.6799 88.3903 72.9399 87.3803C72.6399 87.2103 72.4 86.9703 71.96 86.5303L70.21 84.7803C69.64 84.2103 69.1899 83.7603 68.9899 83.7603C68.7899 83.7603 68.34 84.2103 67.77 84.7803L66.02 86.5303C65.58 86.9703 65.3399 87.2103 65.0399 87.3803C64.5999 87.6303 64.1799 87.7303 63.7999 87.7303V87.7503ZM63.7999 71.7503C63.4699 71.7503 63.08 71.9503 62.52 72.5103C61.65 73.3803 61.64 73.8303 61.9 74.2903C61.97 74.4203 62.1799 74.6203 62.5099 74.9603L64.2599 76.7103C65.1699 77.6203 65.7199 78.1703 65.7199 78.9903C65.7199 79.8103 65.1699 80.3603 64.2599 81.2703L62.5099 83.0203C62.1699 83.3603 61.97 83.5603 61.89 83.6903C61.63 84.1503 61.6399 84.6002 62.4999 85.4702C63.3699 86.3402 63.82 86.3503 64.28 86.0903C64.41 86.0203 64.6099 85.8103 64.9499 85.4803L66.6999 83.7303C67.6099 82.8203 68.1599 82.2703 68.9799 82.2703C69.7999 82.2703 70.3499 82.8203 71.2599 83.7303L73.0099 85.4803C73.3499 85.8203 73.5499 86.0202 73.6799 86.1002C74.1399 86.3602 74.59 86.3503 75.46 85.4903C76.33 84.6203 76.34 84.1703 76.08 83.7103C76.01 83.5803 75.7999 83.3803 75.4699 83.0403L73.7199 81.2903C72.8099 80.3803 72.2599 79.8303 72.2599 79.0103C72.2599 78.1903 72.8099 77.6403 73.7199 76.7303L75.4799 74.9702C75.8199 74.6302 76.0199 74.4303 76.0999 74.3003C76.3599 73.8403 76.3499 73.3903 75.4899 72.5203C74.6199 71.6503 74.17 71.6403 73.71 71.9003C73.58 71.9703 73.3799 72.1803 73.0399 72.5103L71.2899 74.2603C70.3799 75.1703 69.8299 75.7202 69.0099 75.7202C68.1899 75.7202 67.6399 75.1703 66.7299 74.2603L64.9799 72.5103C64.6399 72.1703 64.4399 71.9703 64.3099 71.8903C64.1499 71.8003 63.9899 71.7403 63.8099 71.7403L63.7999 71.7503Z" fill="#9DA4AE"/>
<path fill-rule="evenodd" clip-rule="evenodd" d="M269 319.75C263.063 319.75 258.25 314.937 258.25 309C258.25 303.063 263.063 298.25 269 298.25C274.937 298.25 279.75 303.063 279.75 309C279.75 314.937 274.937 319.75 269 319.75ZM259.75 309C259.75 314.109 263.891 318.25 269 318.25C271.284 318.25 273.375 317.422 274.989 316.05L261.95 303.011C260.578 304.625 259.75 306.716 259.75 309ZM276.05 314.989C277.422 313.375 278.25 311.284 278.25 309C278.25 303.891 274.109 299.75 269 299.75C266.716 299.75 264.625 300.578 263.011 301.95L276.05 314.989Z" fill="#9DA4AE"/>
<path fill-rule="evenodd" clip-rule="evenodd" d="M363 47.75C357.063 47.75 352.25 42.9371 352.25 37C352.25 31.0629 357.063 26.25 363 26.25C368.937 26.25 373.75 31.0629 373.75 37C373.75 42.9371 368.937 47.75 363 47.75ZM353.75 37C353.75 42.1086 357.891 46.25 363 46.25C365.284 46.25 367.375 45.422 368.989 44.0497L355.95 31.011C354.578 32.6247 353.75 34.7157 353.75 37ZM370.05 42.989C371.422 41.3753 372.25 39.2843 372.25 37C372.25 31.8914 368.109 27.75 363 27.75C360.716 27.75 358.625 28.578 357.011 29.9503L370.05 42.989Z" fill="#9DA4AE"/>
<path fill-rule="evenodd" clip-rule="evenodd" d="M450 213.167C446.042 213.167 442.833 209.958 442.833 206C442.833 202.042 446.042 198.833 450 198.833C453.958 198.833 457.166 202.042 457.166 206C457.166 209.958 453.958 213.167 450 213.167ZM443.833 206C443.833 209.406 446.594 212.167 450 212.167C451.523 212.167 452.917 211.615 453.992 210.7L445.3 202.007C444.385 203.083 443.833 204.477 443.833 206ZM454.699 209.993C455.614 208.917 456.166 207.523 456.166 206C456.166 202.594 453.405 199.833 450 199.833C448.477 199.833 447.083 200.386 446.007 201.3L454.699 209.993Z" fill="#D2D6DB"/>
<path d="M9.03033 221.47C8.73744 221.177 8.26256 221.177 7.96967 221.47C7.67678 221.763 7.67678 222.237 7.96967 222.53L10.4393 225L7.96967 227.47C7.67678 227.763 7.67678 228.237 7.96967 228.53C8.26256 228.823 8.73744 228.823 9.03033 228.53L11.5 226.061L13.9697 228.53C14.2626 228.823 14.7374 228.823 15.0303 228.53C15.3232 228.237 15.3232 227.763 15.0303 227.47L12.5607 225L15.0303 222.53C15.3232 222.237 15.3232 221.763 15.0303 221.47C14.7374 221.177 14.2626 221.177 13.9697 221.47L11.5 223.939L9.03033 221.47Z" fill="#9DA4AE"/>
<path fill-rule="evenodd" clip-rule="evenodd" d="M1.75 225C1.75 219.615 6.11522 215.25 11.5 215.25C16.8848 215.25 21.25 219.615 21.25 225C21.25 227.422 20.3666 229.639 18.9043 231.344L23.0303 235.47C23.3232 235.763 23.3232 236.237 23.0303 236.53C22.7374 236.823 22.2626 236.823 21.9697 236.53L17.8437 232.404C16.1385 233.867 13.9224 234.75 11.5 234.75C6.11522 234.75 1.75 230.385 1.75 225ZM11.5 216.75C6.94365 216.75 3.25 220.444 3.25 225C3.25 229.556 6.94365 233.25 11.5 233.25C16.0563 233.25 19.75 229.556 19.75 225C19.75 220.444 16.0563 216.75 11.5 216.75Z" fill="#9DA4AE"/>
<path d="M110.687 25.9799C110.491 25.7847 110.175 25.7847 109.979 25.9799C109.784 26.1752 109.784 26.4918 109.979 26.687L111.626 28.3335L109.979 29.9799C109.784 30.1752 109.784 30.4918 109.979 30.687C110.175 30.8823 110.491 30.8823 110.687 30.687L112.333 29.0406L113.979 30.687C114.175 30.8823 114.491 30.8823 114.687 30.687C114.882 30.4918 114.882 30.1752 114.687 29.9799L113.04 28.3335L114.687 26.687C114.882 26.4918 114.882 26.1752 114.687 25.9799C114.491 25.7847 114.175 25.7847 113.979 25.9799L112.333 27.6264L110.687 25.9799Z" fill="#D2D6DB"/>
<path fill-rule="evenodd" clip-rule="evenodd" d="M105.833 28.3335C105.833 24.7436 108.743 21.8335 112.333 21.8335C115.923 21.8335 118.833 24.7436 118.833 28.3335C118.833 29.9484 118.244 31.4258 117.269 32.5626L120.02 35.3133C120.215 35.5085 120.215 35.8251 120.02 36.0204C119.825 36.2156 119.508 36.2156 119.313 36.0204L116.562 33.2697C115.425 34.2445 113.948 34.8335 112.333 34.8335C108.743 34.8335 105.833 31.9233 105.833 28.3335ZM112.333 22.8335C109.295 22.8335 106.833 25.2959 106.833 28.3335C106.833 31.3711 109.295 33.8335 112.333 33.8335C115.371 33.8335 117.833 31.3711 117.833 28.3335C117.833 25.2959 115.371 22.8335 112.333 22.8335Z" fill="#D2D6DB"/>
</svg>
