<svg width="20" height="20" viewBox="0 0 20 20" fill="none" xmlns="http://www.w3.org/2000/svg">
<path d="M9.93929 18.1254C9.89012 18.1254 9.84093 18.1196 9.79093 18.1079C9.45593 18.0262 9.25012 17.6879 9.33179 17.3529C9.41595 17.0071 9.81841 15.8221 11.4551 15.1112C11.4742 15.1029 11.4942 15.0953 11.5142 15.0887C11.5384 15.0778 11.5667 15.0654 11.6009 15.0537C12.2976 14.797 13.1601 14.3604 13.4876 14.0971C13.5035 14.0846 13.5201 14.0721 13.5376 14.0613L15.8668 12.5412C15.9076 12.5037 15.9068 12.4854 15.9059 12.4787C15.9026 12.4187 15.8351 12.2929 15.6926 12.2004C14.6468 11.5046 13.6801 11.9087 12.2118 12.657C12.1109 12.7087 12.0101 12.7604 11.9093 12.8104C11.1151 13.2037 10.1368 13.1454 9.35262 12.6587C8.60845 12.1971 8.16431 11.4279 8.16431 10.602C8.16431 9.77619 8.60847 9.00123 9.41431 8.45456C10.5443 7.68873 12.2418 7.44624 13.3809 7.88458L15.1826 8.41037C15.3509 8.46037 15.5251 8.44124 15.6742 8.35707C15.8192 8.2754 15.9218 8.14374 15.9635 7.98541C16.0418 7.69291 15.8784 7.39037 15.5842 7.2787L13.6201 6.5462C13.6201 6.5462 13.6168 6.54451 13.6143 6.54368L12.8726 6.31622C12.2626 6.13372 11.8218 6.06618 11.4926 6.10618C10.9368 6.17534 9.45014 6.83205 8.64347 7.22955C8.33431 7.38205 7.9593 7.25537 7.8068 6.94537C7.6543 6.6362 7.7809 6.2612 8.0909 6.1087C8.3234 5.9937 10.3926 4.9837 11.3409 4.86537C11.8492 4.8037 12.4509 4.88542 13.2359 5.12042L13.9943 5.35292C14.0026 5.35542 14.011 5.35789 14.0193 5.36122C14.026 5.36372 14.0335 5.36621 14.0401 5.36871L14.0518 5.37286C14.2043 5.42786 14.3676 5.42036 14.5126 5.35202C14.6643 5.28119 14.7776 5.15291 14.8326 4.99208C14.9401 4.68291 14.7876 4.34623 14.4851 4.22206L12.9026 3.56785L12.7676 3.51788C12.3201 3.35288 12.0734 3.26284 11.8509 3.21034C11.5742 3.14701 11.2676 3.11786 10.9426 3.12619L10.9193 3.1279C10.8376 3.1329 10.7918 3.13624 10.6126 3.17291C10.606 3.17457 10.5993 3.17541 10.5926 3.17624C10.4151 3.20624 10.3159 3.23953 10.0976 3.31369L9.66927 3.45953C8.24344 3.94453 7.65264 4.14537 7.03931 4.5912C5.41347 5.77703 4.42759 7.12701 4.17342 7.93951C3.90259 8.80618 3.90259 9.87119 3.90259 11.9945L3.90259 17.5029C3.90259 17.8479 3.62259 18.1279 3.27759 18.1279C2.93259 18.1279 2.65259 17.8479 2.65259 17.5029L2.65259 11.9945C2.65259 9.74535 2.65256 8.6162 2.98006 7.56703C3.4484 6.0737 5.00347 4.52952 6.30347 3.58119C7.0718 3.02369 7.8051 2.77374 9.26676 2.27707L9.69759 2.13035C9.93342 2.05035 10.1051 1.99285 10.3735 1.94618C10.611 1.89868 10.7076 1.88957 10.8368 1.88124L10.8701 1.87872C10.8793 1.87872 10.8876 1.87784 10.8967 1.87701C11.3326 1.86534 11.7485 1.90456 12.1335 1.99289C12.4326 2.06289 12.7051 2.16287 13.1993 2.34454L13.3459 2.39874C13.3534 2.40207 13.3618 2.40452 13.3693 2.40785L14.9618 3.06622C15.8768 3.44205 16.3401 4.46705 16.0151 5.39955C15.9418 5.61538 15.8309 5.81205 15.6909 5.98288L16.026 6.10788C16.926 6.44872 17.4184 7.39289 17.1734 8.30539C17.0459 8.79123 16.7318 9.19702 16.2893 9.44618C15.8426 9.69785 15.3251 9.75618 14.8318 9.60951L13.0059 9.07704C12.9868 9.07121 12.9676 9.06458 12.9493 9.05792C12.1876 8.75375 10.9176 8.94789 10.1176 9.48956C9.65259 9.80456 9.41675 10.1795 9.41675 10.602C9.41675 10.9987 9.63424 11.3612 10.0142 11.5971C10.4334 11.8571 10.9467 11.8937 11.3542 11.692C11.4501 11.6437 11.5485 11.5937 11.6476 11.5437C12.9893 10.8603 14.6593 10.0095 16.3843 11.157C16.8418 11.4554 17.1326 11.9271 17.1576 12.4154C17.1801 12.8446 16.9951 13.2403 16.6384 13.5295C16.6218 13.5428 16.6043 13.5554 16.5868 13.567L14.2493 15.0929C13.7468 15.4854 12.7509 15.9646 12.0459 16.2246L12.0343 16.2312C11.9959 16.2512 11.956 16.267 11.9151 16.2787C11.6768 16.3887 10.7426 16.867 10.5518 17.6504C10.4826 17.9362 10.2267 18.1279 9.94507 18.1279L9.93929 18.1254ZM12.0068 16.2354C12.0068 16.2354 12.0068 16.2354 12.0059 16.2354C12.0059 16.2354 12.0059 16.2354 12.0068 16.2354Z" fill="white"/>
</svg>
