<svg width="18" height="18" viewBox="0 0 18 18" fill="none" xmlns="http://www.w3.org/2000/svg">
<path fill-rule="evenodd" clip-rule="evenodd" d="M9 2.4375C9.31066 2.4375 9.5625 2.68934 9.5625 3L9.5625 8.4375L15 8.4375C15.3107 8.4375 15.5625 8.68934 15.5625 9C15.5625 9.31066 15.3107 9.5625 15 9.5625L9.5625 9.5625L9.5625 15C9.5625 15.3107 9.31066 15.5625 9 15.5625C8.68934 15.5625 8.4375 15.3107 8.4375 15L8.4375 9.5625L3 9.5625C2.68934 9.5625 2.4375 9.31066 2.4375 9C2.4375 8.68934 2.68934 8.4375 3 8.4375L8.4375 8.4375L8.4375 3C8.4375 2.68934 8.68934 2.4375 9 2.4375Z" fill="#161616"/>
</svg>
