<svg width="32" height="32" viewBox="0 0 32 32" fill="none" xmlns="http://www.w3.org/2000/svg">
<path fill-rule="evenodd" clip-rule="evenodd" d="M10.5581 10.5581C10.8021 10.314 11.1979 10.314 11.4419 10.5581L16 15.1161L20.5581 10.5581C20.8021 10.314 21.1979 10.314 21.4419 10.5581C21.686 10.8021 21.686 11.1979 21.4419 11.4419L16.8839 16L21.4419 20.5581C21.686 20.8021 21.686 21.1979 21.4419 21.4419C21.1979 21.686 20.8021 21.686 20.5581 21.4419L16 16.8839L11.4419 21.4419C11.1979 21.686 10.8021 21.686 10.5581 21.4419C10.314 21.1979 10.314 20.8021 10.5581 20.5581L15.1161 16L10.5581 11.4419C10.314 11.1979 10.314 10.8021 10.5581 10.5581Z" fill="#161616"/>
</svg>
