<svg width="20" height="20" viewBox="0 0 20 20" fill="none" xmlns="http://www.w3.org/2000/svg">
<path fill-rule="evenodd" clip-rule="evenodd" d="M10 13.1243C8.27413 13.1243 6.87502 11.7252 6.87502 9.99935C6.87502 8.27346 8.27413 6.87435 10 6.87435C11.7259 6.87435 13.125 8.27346 13.125 9.99935C13.125 11.7252 11.7259 13.1243 10 13.1243ZM8.12502 9.99935C8.12502 11.0349 8.96449 11.8743 10 11.8743C11.0356 11.8743 11.875 11.0349 11.875 9.99935C11.875 8.96382 11.0356 8.12435 10 8.12435C8.96449 8.12435 8.12502 8.96382 8.12502 9.99935Z" fill="white"/>
<path fill-rule="evenodd" clip-rule="evenodd" d="M10 3.54102C7.85789 3.54102 6.02165 4.48386 4.60028 5.5935C3.17763 6.70415 2.12607 8.0158 1.53786 8.84062L1.49351 8.90246C1.28255 9.19586 1.04169 9.53084 1.04169 9.99935C1.04169 10.4679 1.28255 10.8028 1.49351 11.0962L1.53786 11.1581C2.12607 11.9829 3.17763 13.2946 4.60028 14.4052C6.02165 15.5148 7.85789 16.4577 10 16.4577C12.1422 16.4577 13.9784 15.5148 15.3998 14.4052C16.8224 13.2946 17.874 11.9829 18.4622 11.1581L18.5065 11.0962C18.7175 10.8028 18.9584 10.4679 18.9584 9.99935C18.9584 9.53084 18.7175 9.19586 18.5065 8.90246L18.4622 8.84061C17.874 8.0158 16.8224 6.70415 15.3998 5.5935C13.9784 4.48385 12.1422 3.54102 10 3.54102ZM2.55558 9.56639C3.10575 8.79492 4.077 7.58783 5.36949 6.5788C6.66325 5.56878 8.23447 4.79102 10 4.79102C11.7656 4.79102 13.3368 5.56878 14.6306 6.5788C15.923 7.58783 16.8943 8.79492 17.4445 9.56639C17.5806 9.75724 17.6453 9.85043 17.684 9.92462C17.7085 9.97178 17.7084 9.9847 17.7084 9.99736L17.7084 9.99935L17.7084 10.0013C17.7084 10.014 17.7085 10.0269 17.684 10.0741C17.6453 10.1483 17.5806 10.2415 17.4445 10.4323C16.8943 11.2038 15.923 12.4109 14.6306 13.4199C13.3368 14.4299 11.7656 15.2077 10 15.2077C8.23447 15.2077 6.66325 14.4299 5.36949 13.4199C4.077 12.4109 3.10575 11.2038 2.55558 10.4323C2.41948 10.2415 2.3547 10.1483 2.31609 10.0741C2.29154 10.0269 2.29161 10.014 2.29168 10.0013L2.29169 9.99935L2.29168 9.99736C2.29161 9.9847 2.29154 9.97177 2.31609 9.92462C2.3547 9.85043 2.41948 9.75724 2.55558 9.56639Z" fill="white"/>
</svg>
