<svg width="32" height="32" viewBox="0 0 32 32" fill="none" xmlns="http://www.w3.org/2000/svg">
<path fill-rule="evenodd" clip-rule="evenodd" d="M16.0003 19.1248C14.2744 19.1248 12.8753 17.7257 12.8753 15.9998C12.8753 14.2739 14.2744 12.8748 16.0003 12.8748C17.7262 12.8748 19.1253 14.2739 19.1253 15.9998C19.1253 17.7257 17.7262 19.1248 16.0003 19.1248ZM14.1253 15.9998C14.1253 17.0354 14.9648 17.8748 16.0003 17.8748C17.0359 17.8748 17.8753 17.0354 17.8753 15.9998C17.8753 14.9643 17.0359 14.1248 16.0003 14.1248C14.9648 14.1248 14.1253 14.9643 14.1253 15.9998Z" fill="#161616"/>
<path fill-rule="evenodd" clip-rule="evenodd" d="M16.0003 9.5415C13.8582 9.5415 12.022 10.4843 10.6006 11.594C9.17793 12.7046 8.12638 14.0163 7.53817 14.8411L7.49382 14.9029C7.28286 15.1963 7.04199 15.5313 7.04199 15.9998C7.04199 16.4683 7.28286 16.8033 7.49382 17.0967L7.53817 17.1586C8.12638 17.9834 9.17793 19.295 10.6006 20.4057C12.022 21.5153 13.8582 22.4582 16.0003 22.4582C18.1425 22.4582 19.9787 21.5153 21.4001 20.4057C22.8227 19.295 23.8743 17.9834 24.4625 17.1586L24.5068 17.0967C24.7178 16.8033 24.9587 16.4683 24.9587 15.9998C24.9587 15.5313 24.7178 15.1963 24.5068 14.9029L24.4625 14.8411C23.8743 14.0163 22.8227 12.7046 21.4001 11.594C19.9787 10.4843 18.1425 9.5415 16.0003 9.5415ZM8.55588 15.5669C9.10605 14.7954 10.0773 13.5883 11.3698 12.5793C12.6636 11.5693 14.2348 10.7915 16.0003 10.7915C17.7659 10.7915 19.3371 11.5693 20.6309 12.5793C21.9233 13.5883 22.8946 14.7954 23.4448 15.5669C23.5809 15.7577 23.6456 15.8509 23.6843 15.9251C23.7088 15.9723 23.7087 15.9852 23.7087 15.9978L23.7087 15.9998L23.7087 16.0018C23.7087 16.0145 23.7088 16.0274 23.6843 16.0746C23.6456 16.1488 23.5809 16.2419 23.4448 16.4328C22.8946 17.2043 21.9233 18.4114 20.6309 19.4204C19.3371 20.4304 17.7659 21.2082 16.0003 21.2082C14.2348 21.2082 12.6636 20.4304 11.3698 19.4204C10.0773 18.4114 9.10605 17.2043 8.55588 16.4328C8.41978 16.2419 8.35501 16.1488 8.31639 16.0746C8.29185 16.0274 8.29192 16.0145 8.29199 16.0018L8.29199 15.9998L8.29199 15.9978C8.29192 15.9852 8.29185 15.9723 8.31639 15.9251C8.35501 15.8509 8.41978 15.7577 8.55588 15.5669Z" fill="#161616"/>
</svg>
