<svg width="28" height="28" viewBox="0 0 28 28" fill="none" xmlns="http://www.w3.org/2000/svg">
<path fill-rule="evenodd" clip-rule="evenodd" d="M13.9998 3.79199C11.2614 3.79199 9.0415 6.01191 9.0415 8.75033C9.0415 11.4887 11.2614 13.7087 13.9998 13.7087C16.7382 13.7087 18.9582 11.4887 18.9582 8.75033C18.9582 6.01191 16.7382 3.79199 13.9998 3.79199ZM10.7915 8.75033C10.7915 6.97841 12.2279 5.54199 13.9998 5.54199C15.7718 5.54199 17.2082 6.97841 17.2082 8.75033C17.2082 10.5222 15.7718 11.9587 13.9998 11.9587C12.2279 11.9587 10.7915 10.5222 10.7915 8.75033Z" fill="#067647"/>
<path d="M6.41655 6.12533C4.32247 6.12533 2.62489 7.82291 2.62489 9.91699C2.62489 12.0111 4.32247 13.7087 6.41655 13.7087C6.8998 13.7087 7.29155 13.3169 7.29155 12.8337C7.29155 12.3504 6.8998 11.9587 6.41655 11.9587C5.28897 11.9587 4.37489 11.0446 4.37489 9.91699C4.37489 8.78941 5.28897 7.87533 6.41655 7.87533C6.8998 7.87533 7.29155 7.48358 7.29155 7.00033C7.29155 6.51708 6.8998 6.12533 6.41655 6.12533Z" fill="#067647"/>
<path d="M6.70466 15.0882C6.66112 14.6069 6.23567 14.252 5.75438 14.2956C4.65943 14.3946 3.59479 14.8158 2.65645 15.5384C2.60239 15.5801 2.53117 15.6319 2.44748 15.6928C2.05001 15.9819 1.37137 16.4756 0.914019 17.0546C0.621789 17.4245 0.34851 17.9086 0.299308 18.4907C0.24778 19.1004 0.452152 19.6926 0.890302 20.2324C1.56096 21.0587 2.48123 21.8753 3.76351 21.8753C4.24675 21.8753 4.63851 21.4836 4.63851 21.0003C4.63851 20.5171 4.24675 20.1253 3.76351 20.1253C3.29741 20.1253 2.82704 19.8417 2.24908 19.1296C2.04821 18.8821 2.03562 18.7265 2.04309 18.6381C2.05289 18.5221 2.11459 18.3579 2.28723 18.1394C2.57801 17.7713 2.98563 17.4717 3.38183 17.1805C3.498 17.0951 3.61319 17.0104 3.72416 16.925C4.41292 16.3946 5.16503 16.106 5.91206 16.0384C6.39334 15.9949 6.7482 15.5694 6.70466 15.0882Z" fill="#067647"/>
<path d="M20.9998 6.12533C20.5166 6.12533 20.1248 6.51708 20.1248 7.00033C20.1248 7.48358 20.5166 7.87533 20.9998 7.87533C22.1274 7.87533 23.0415 8.78941 23.0415 9.91699C23.0415 11.0446 22.1274 11.9587 20.9998 11.9587C20.5166 11.9587 20.1248 12.3504 20.1248 12.8337C20.1248 13.3169 20.5166 13.7087 20.9998 13.7087C23.0939 13.7087 24.7915 12.0111 24.7915 9.91699C24.7915 7.82291 23.0939 6.12533 20.9998 6.12533Z" fill="#067647"/>
<path d="M22.2453 14.2956C21.7641 14.252 21.3386 14.6069 21.2951 15.0882C21.2515 15.5694 21.6064 15.9949 22.0877 16.0384C22.8347 16.106 23.5868 16.3946 24.2756 16.925C24.3865 17.0104 24.5017 17.095 24.6178 17.1804C25.014 17.4716 25.4217 17.7713 25.7125 18.1394C25.8851 18.3579 25.9468 18.5221 25.9566 18.6381C25.9641 18.7265 25.9515 18.8821 25.7506 19.1296C25.1727 19.8417 24.7023 20.1253 24.2362 20.1253C23.753 20.1253 23.3612 20.5171 23.3612 21.0003C23.3612 21.4836 23.753 21.8753 24.2362 21.8753C25.5185 21.8753 26.4388 21.0587 27.1094 20.2324C27.5476 19.6926 27.7519 19.1004 27.7004 18.4907C27.6512 17.9086 27.3779 17.4245 27.0857 17.0546C26.6284 16.4756 25.9498 15.982 25.5524 15.6928C25.4687 15.632 25.3973 15.5801 25.3433 15.5384C24.4049 14.8158 23.3403 14.3946 22.2453 14.2956Z" fill="#067647"/>
<path fill-rule="evenodd" clip-rule="evenodd" d="M8.97093 16.8858C12.0483 14.9829 15.9517 14.9829 19.0291 16.8858C19.1198 16.9419 19.2347 17.0091 19.3666 17.0864C19.9643 17.4361 20.9131 17.9913 21.5605 18.6493C21.9671 19.0627 22.3727 19.6261 22.4466 20.3285C22.5257 21.08 22.2067 21.7757 21.5983 22.3777C20.593 23.3722 19.3478 24.2087 17.7151 24.2087H10.2849C8.65221 24.2087 7.40699 23.3722 6.40176 22.3777C5.79327 21.7757 5.4743 21.08 5.5534 20.3285C5.62734 19.6261 6.03287 19.0627 6.43948 18.6493C7.08687 17.9913 8.03559 17.4362 8.63324 17.0864C8.76529 17.0092 8.8802 16.9419 8.97093 16.8858ZM18.1087 18.3743C15.5953 16.8201 12.4047 16.8201 9.89129 18.3743C9.74042 18.4676 9.57865 18.5629 9.41173 18.6614C8.81455 19.0135 8.15157 19.4044 7.68698 19.8766C7.40116 20.1672 7.30773 20.3792 7.29379 20.5117C7.285 20.5952 7.28922 20.794 7.63256 21.1336C8.48718 21.9792 9.31336 22.4587 10.2849 22.4587H17.7151C18.6867 22.4587 19.5128 21.9792 20.3675 21.1336C20.7108 20.7939 20.715 20.5952 20.7062 20.5117C20.6923 20.3792 20.5989 20.1672 20.313 19.8766C19.8484 19.4044 19.1855 19.0135 18.5883 18.6614C18.4214 18.563 18.2596 18.4676 18.1087 18.3743Z" fill="#067647"/>
</svg>
