<svg width="12" height="14" viewBox="0 0 12 14" fill="none" xmlns="http://www.w3.org/2000/svg">
<g id="elements">
<g id="Icon">
<path d="M8.33342 8.02073C8.57504 8.02073 8.77092 7.82486 8.77092 7.58323C8.77092 7.34161 8.57504 7.14573 8.33342 7.14573H6.58342C6.34179 7.14573 6.14592 7.34161 6.14592 7.58323C6.14592 7.82486 6.34179 8.02073 6.58342 8.02073H8.33342Z" fill="#161616"/>
<path d="M8.33342 10.3541C8.57504 10.3541 8.77092 10.1582 8.77092 9.91656C8.77092 9.67494 8.57504 9.47906 8.33342 9.47906L4.25008 9.47906C4.00846 9.47906 3.81258 9.67494 3.81258 9.91656C3.81258 10.1582 4.00846 10.3541 4.25008 10.3541H8.33342Z" fill="#161616"/>
<path fill-rule="evenodd" clip-rule="evenodd" d="M6.03142 13.2708H5.52403C4.59428 13.2708 3.8621 13.2708 3.28123 13.2102C2.68814 13.1484 2.20043 13.0194 1.78322 12.7255C1.56051 12.5686 1.36189 12.3819 1.19384 12.1706C0.875989 11.771 0.735784 11.301 0.669058 10.7339C0.604235 10.183 0.604241 9.49033 0.604248 8.61889V7.09006C0.604248 6.23934 0.604248 5.57912 0.639391 5.04633C0.675011 4.50627 0.748066 4.06677 0.908568 3.66176C1.39747 2.42808 2.42695 1.46488 3.71921 1.01124C4.52356 0.728887 5.51052 0.728959 7.24031 0.729087L7.4519 0.729078C8.40573 0.72888 9.00015 0.728757 9.49054 0.900904C10.2775 1.17716 10.9084 1.76522 11.2088 2.52333C11.3107 2.78042 11.3545 3.05337 11.3754 3.37124C11.3959 3.68191 11.3959 4.0643 11.3959 4.54516V8.2013C11.3959 9.27178 11.3959 10.1224 11.3008 10.7888C11.2023 11.4777 10.9946 12.0332 10.5321 12.4684C10.0734 12.9001 9.49431 13.0909 8.77532 13.1819C8.07275 13.2708 7.17354 13.2708 6.03142 13.2708ZM8.66548 12.3138C9.29672 12.2339 9.665 12.083 9.93244 11.8313C10.1961 11.5831 10.3514 11.2469 10.4345 10.665C10.5199 10.0677 10.5209 9.27965 10.5209 8.16659V4.56053C10.5209 4.0609 10.5207 3.70733 10.5023 3.42883C10.4842 3.15424 10.4498 2.98303 10.3954 2.84569C10.1932 2.33557 9.76125 1.92328 9.20072 1.72651C8.86977 1.61034 8.43883 1.60409 7.35235 1.60409C7.16538 1.60409 6.98885 1.60415 6.82191 1.60449C6.01448 1.63273 5.36859 2.29619 5.36859 3.1105C5.36859 3.19632 5.37237 3.2886 5.37717 3.39219L5.37897 3.43059C5.38321 3.52095 5.38784 3.61931 5.38987 3.71738C5.39448 3.9391 5.38748 4.19783 5.32055 4.44758C5.1902 4.93407 4.81021 5.31405 4.32373 5.44441C4.07398 5.51133 3.81525 5.51833 3.59353 5.51373C3.49546 5.51169 3.39713 5.50707 3.30678 5.50282L3.26834 5.50102C3.16474 5.49622 3.07247 5.49244 2.98665 5.49244C2.15438 5.49244 1.4797 6.16712 1.4797 6.99939C1.4797 7.0061 1.47955 7.01278 1.47925 7.01943C1.47925 7.04801 1.47925 7.07687 1.47925 7.10599V8.59083C1.47925 9.49666 1.47996 10.1379 1.53806 10.6317C1.59496 11.1153 1.702 11.4038 1.87864 11.6259C1.99395 11.7709 2.13138 11.9004 2.28719 12.0102C2.53054 12.1817 2.84871 12.2854 3.37194 12.3399C3.90215 12.3952 4.58874 12.3958 5.54932 12.3958H6.00008C7.18043 12.3958 8.02424 12.3949 8.66548 12.3138ZM1.51084 5.1296C1.91661 4.80888 2.42927 4.61744 2.98665 4.61744C3.09501 4.61744 3.20561 4.62217 3.30889 4.62697L3.34848 4.62882C3.43988 4.6331 3.52591 4.63713 3.61169 4.63892C3.8104 4.64304 3.96941 4.63348 4.09727 4.59922C4.28179 4.54978 4.42593 4.40565 4.47537 4.22112C4.50963 4.09326 4.51919 3.93425 4.51506 3.73555C4.51328 3.64978 4.50925 3.56376 4.50496 3.47237L4.50311 3.43275C4.49832 3.32946 4.49359 3.21886 4.49359 3.1105C4.49359 2.56066 4.67989 2.05434 4.99281 1.65121C4.58846 1.68436 4.28264 1.74081 4.00904 1.83685C2.9432 2.211 2.11265 2.99843 1.72202 3.98413C1.60898 4.26938 1.54526 4.60714 1.51249 5.10391C1.51193 5.11244 1.51138 5.121 1.51084 5.1296Z" fill="#161616"/>
</g>
</g>
</svg>
