<svg width="20" height="20" viewBox="0 0 20 20" fill="none" xmlns="http://www.w3.org/2000/svg">
<g id="Leading Icon">
<path id="icon" d="M9.58333 18.3337C8.30556 18.3337 7.22222 17.8892 6.33333 17.0003C5.44444 16.1114 5 15.0281 5 13.7503V5.00033C5 4.08366 5.32639 3.29894 5.97917 2.64616C6.63194 1.99338 7.41667 1.66699 8.33333 1.66699C9.25 1.66699 10.0347 1.99338 10.6875 2.64616C11.3403 3.29894 11.6667 4.08366 11.6667 5.00033V12.917C11.6667 13.5003 11.4653 13.9934 11.0625 14.3962C10.6597 14.7989 10.1667 15.0003 9.58333 15.0003C9 15.0003 8.50694 14.7989 8.10417 14.3962C7.70139 13.9934 7.5 13.5003 7.5 12.917V5.00033H8.75V12.917C8.75 13.1531 8.82986 13.351 8.98958 13.5107C9.14931 13.6705 9.34722 13.7503 9.58333 13.7503C9.81944 13.7503 10.0174 13.6705 10.1771 13.5107C10.3368 13.351 10.4167 13.1531 10.4167 12.917V5.00033C10.4167 4.41699 10.2153 3.92394 9.8125 3.52116C9.40972 3.11838 8.91667 2.91699 8.33333 2.91699C7.75 2.91699 7.25694 3.11838 6.85417 3.52116C6.45139 3.92394 6.25 4.41699 6.25 5.00033V13.7503C6.25 14.667 6.57639 15.4517 7.22917 16.1045C7.88194 16.7573 8.66667 17.0837 9.58333 17.0837C10.5 17.0837 11.2847 16.7573 11.9375 16.1045C12.5903 15.4517 12.9167 14.667 12.9167 13.7503V5.00033H14.1667V13.7503C14.1667 15.0281 13.7222 16.1114 12.8333 17.0003C11.9444 17.8892 10.8611 18.3337 9.58333 18.3337Z" fill="#1D1B20"/>
</g>
</svg>
