<svg width="52" height="53" viewBox="0 0 52 53" fill="none" xmlns="http://www.w3.org/2000/svg">
<g clip-path="url(#clip0_652_56952)">
<path d="M26.2031 41.6258C26.2034 38.8406 27.0155 36.1158 28.5401 33.7849C30.0646 31.454 32.2355 29.618 34.7872 28.5015C37.3388 27.3851 40.1605 27.0365 42.9071 27.4985C45.6537 27.9605 48.2061 29.213 50.2521 31.1029C50.3198 26.2069 50.2792 21.3109 50.1302 16.4149C50.049 13.0512 48.1497 9.6742 44.9678 8.00553C43.3326 7.14123 41.6386 6.30943 39.9252 5.52131C33.1551 7.71099 25.2261 10.5994 17.229 14.1754C16.4602 14.5153 15.8015 15.0631 15.3272 15.7572C14.8529 16.4513 14.5819 17.2641 14.5447 18.1039C14.4198 21.9633 14.3812 25.9465 14.432 29.8851C14.4361 30.0006 14.403 30.1144 14.3377 30.2098C14.2723 30.3051 14.1781 30.377 14.0689 30.4148C13.9597 30.4526 13.8413 30.4545 13.7309 30.42C13.6206 30.3855 13.5242 30.3166 13.456 30.2233C12.6096 29.14 11.7829 28.0689 10.9758 27.0099C10.9163 26.9271 10.8277 26.8698 10.7278 26.8493C10.6279 26.8288 10.5239 26.8466 10.4365 26.8992C9.80888 27.2729 9.1924 27.6416 8.58709 28.0052C8.24787 28.2083 7.83044 27.9372 7.82841 27.5197C7.8081 23.5964 7.9056 19.6629 8.11584 15.8502C8.2042 14.2425 9.21271 12.7282 10.7047 11.9908C18.3747 8.20256 26.5576 5.10795 33.54 2.81771C31.915 2.18193 30.2991 1.59896 28.7218 1.04646C26.5951 0.316218 24.2856 0.316218 22.1589 1.04646C16.8959 2.8624 11.1485 5.23287 5.91193 8.00553C2.73099 9.6742 0.833804 13.0512 0.749507 16.4149C0.542319 23.1383 0.542319 29.8618 0.749507 36.5852C0.830757 39.949 2.73099 43.3259 5.91193 44.9946C11.1485 47.7672 16.8959 50.1377 22.1619 51.9526C24.2886 52.6829 26.5982 52.6829 28.7249 51.9526C29.1846 51.7942 29.6488 51.6307 30.1173 51.4621C27.5957 48.809 26.1938 45.286 26.2031 41.6258Z" fill="#067647"/>
<path d="M40.5306 30.7524C38.3798 30.7526 36.2775 31.3906 34.4893 32.5857C32.7012 33.7807 31.3075 35.4792 30.4847 37.4663C29.6618 39.4534 29.4467 41.6398 29.8664 43.7492C30.2862 45.8586 31.3221 47.7961 32.843 49.3167C34.364 50.8374 36.3017 51.8729 38.4111 52.2923C40.5206 52.7117 42.707 52.4961 44.6939 51.6729C46.6809 50.8497 48.3791 49.4557 49.5738 47.6673C50.7685 45.879 51.4061 43.7765 51.4059 41.6257C51.4058 40.1977 51.1243 38.7837 50.5777 37.4644C50.0311 36.1451 49.23 34.9464 48.2202 33.9367C47.2103 32.9271 46.0114 32.1262 44.6921 31.5798C43.3727 31.0334 41.9586 30.7523 40.5306 30.7524ZM46.733 39.826L40.1964 46.6896C40.0186 46.8767 39.8047 47.0259 39.5677 47.1282C39.3306 47.2305 39.0754 47.2838 38.8172 47.2848H38.8081C38.5514 47.2846 38.2974 47.2331 38.0611 47.1331C37.8247 47.0332 37.6108 46.8869 37.4319 46.7028L33.9635 43.1299C33.6093 42.7649 33.4146 42.2741 33.4222 41.7656C33.4299 41.257 33.6392 40.7724 34.0042 40.4181C34.3692 40.0639 34.8599 39.8692 35.3684 39.8768C35.877 39.8845 36.3617 40.0938 36.7159 40.4588L38.7969 42.6007L43.9573 37.1813C44.3121 36.8337 44.788 36.6373 45.2848 36.6335C45.7816 36.6298 46.2604 36.819 46.6204 37.1612C46.9805 37.5035 47.1936 37.9721 47.215 38.4685C47.2364 38.9648 47.0643 39.45 46.735 39.822L46.733 39.826Z" fill="#067647"/>
</g>
<defs>
<clipPath id="clip0_652_56952">
<rect width="52" height="52" fill="white" transform="translate(0 0.5)"/>
</clipPath>
</defs>
</svg>
