<svg width="22" height="23" viewBox="0 0 22 23" fill="none" xmlns="http://www.w3.org/2000/svg">
<g id="Group">
<path id="Vector" d="M6 8.5L11 9.5M11 9.5L16 8.5M11 9.5V12.5M11 12.5L9 17.5M11 12.5L13 17.5M11 21.5C16.523 21.5 21 17.023 21 11.5C21 5.977 16.523 1.5 11 1.5C5.477 1.5 1 5.977 1 11.5C1 17.023 5.477 21.5 11 21.5Z" stroke="#1F2A37" stroke-width="1.5" stroke-linecap="round" stroke-linejoin="round"/>
<path id="Vector_2" d="M11 6.5C10.8674 6.5 10.7402 6.44732 10.6464 6.35355C10.5527 6.25979 10.5 6.13261 10.5 6C10.5 5.86739 10.5527 5.74021 10.6464 5.64645C10.7402 5.55268 10.8674 5.5 11 5.5C11.1326 5.5 11.2598 5.55268 11.3536 5.64645C11.4473 5.74021 11.5 5.86739 11.5 6C11.5 6.13261 11.4473 6.25979 11.3536 6.35355C11.2598 6.44732 11.1326 6.5 11 6.5Z" fill="#1F2A37" stroke="#1F2A37" stroke-width="1.5" stroke-linecap="round" stroke-linejoin="round"/>
</g>
</svg>
