<svg width="20" height="20" viewBox="0 0 20 20" fill="none" xmlns="http://www.w3.org/2000/svg">
<path fill-rule="evenodd" clip-rule="evenodd" d="M1.04163 3.54102C1.04163 2.1603 2.16091 1.04102 3.54163 1.04102C4.92234 1.04102 6.04163 2.1603 6.04163 3.54102C6.04163 4.92173 4.92234 6.04102 3.54163 6.04102C2.16091 6.04102 1.04163 4.92173 1.04163 3.54102ZM3.54163 2.29102C2.85127 2.29102 2.29163 2.85066 2.29163 3.54102C2.29163 4.23137 2.85127 4.79102 3.54163 4.79102C4.23198 4.79102 4.79163 4.23137 4.79163 3.54102C4.79163 2.85066 4.23198 2.29102 3.54163 2.29102Z" fill="white"/>
<path fill-rule="evenodd" clip-rule="evenodd" d="M3.29601 7.29102H3.78726C4.14794 7.29098 4.47863 7.29094 4.74764 7.3271C5.04387 7.36693 5.35698 7.46064 5.6145 7.71816C5.87202 7.97568 5.96572 8.28878 6.00555 8.58501C6.04172 8.85402 6.04168 9.18471 6.04164 9.54539L6.04164 16.7033C6.04168 17.064 6.04172 17.3947 6.00555 17.6637C5.96572 17.9599 5.87202 18.273 5.6145 18.5306C5.35698 18.7881 5.04387 18.8818 4.74764 18.9216C4.47863 18.9578 4.14793 18.9577 3.78725 18.9577H3.29601C2.93533 18.9577 2.60464 18.9578 2.33563 18.9216C2.03939 18.8818 1.72629 18.7881 1.46877 18.5306C1.21125 18.273 1.11754 17.9599 1.07771 17.6637C1.04155 17.3947 1.04159 17.064 1.04163 16.7033L1.04163 9.5454C1.04159 9.18472 1.04155 8.85402 1.07771 8.58501C1.11754 8.28878 1.21125 7.97568 1.46877 7.71816C1.72629 7.46064 2.03939 7.36693 2.33563 7.3271C2.60464 7.29094 2.93533 7.29098 3.29601 7.29102ZM2.35266 8.60205L2.35469 8.60091C2.3563 8.60006 2.35906 8.59872 2.36327 8.59699C2.38142 8.58952 2.42172 8.57678 2.50219 8.56596C2.67779 8.54235 2.92279 8.54102 3.3333 8.54102H3.74997C4.16047 8.54102 4.40548 8.54235 4.58108 8.56596C4.66154 8.57678 4.70184 8.58952 4.71999 8.59699C4.7242 8.59872 4.72696 8.60006 4.72857 8.60091L4.7306 8.60205L4.73175 8.60408C4.73259 8.60569 4.73394 8.60845 4.73567 8.61266C4.74313 8.63081 4.75588 8.67111 4.7667 8.75157C4.7903 8.92718 4.79163 9.17218 4.79163 9.58269L4.79163 16.666C4.79163 17.0765 4.7903 17.3215 4.7667 17.4971C4.75588 17.5776 4.74313 17.6179 4.73567 17.636C4.73394 17.6403 4.73259 17.643 4.73175 17.6446L4.7306 17.6467L4.72857 17.6478C4.72696 17.6486 4.7242 17.65 4.71999 17.6517C4.70184 17.6592 4.66154 17.6719 4.58108 17.6828C4.40548 17.7064 4.16047 17.7077 3.74997 17.7077H3.3333C2.92279 17.7077 2.67779 17.7064 2.50219 17.6828C2.42172 17.6719 2.38142 17.6592 2.36327 17.6517C2.35906 17.65 2.3563 17.6486 2.35469 17.6478L2.35266 17.6467L2.35152 17.6446C2.35067 17.643 2.34933 17.6403 2.3476 17.636C2.34013 17.6179 2.32739 17.5776 2.31657 17.4971C2.29296 17.3215 2.29163 17.0765 2.29163 16.666L2.29163 9.58269C2.29163 9.17218 2.29296 8.92718 2.31657 8.75157C2.32739 8.67111 2.34013 8.63081 2.3476 8.61266C2.34933 8.60845 2.35067 8.60569 2.35152 8.60408L2.35266 8.60205Z" fill="white"/>
<path fill-rule="evenodd" clip-rule="evenodd" d="M9.54601 7.29102C9.78733 7.291 10.7592 7.29098 10.9437 7.30788C11.1432 7.32616 11.3605 7.36817 11.5697 7.49062C11.7858 7.61701 11.9656 7.79686 12.092 8.01289L12.102 8.0303C12.7601 7.5656 13.5545 7.29122 14.4139 7.29122C16.6599 7.29122 18.9583 9.20307 18.9583 11.6662L18.9572 16.2873C18.9572 16.6479 18.9571 16.9785 18.9209 17.2475C18.881 17.5436 18.7873 17.8567 18.5298 18.1141C18.2723 18.3716 17.9592 18.4652 17.663 18.505C17.3941 18.5412 17.0635 18.5412 16.7029 18.5411H16.2126C15.852 18.5412 15.5213 18.5412 15.2523 18.505C14.956 18.4652 14.6429 18.3715 14.3854 18.114C14.1279 17.8565 14.0342 17.5434 13.9944 17.2471C13.9582 16.9781 13.9582 16.6474 13.9583 16.2867L13.9583 12.4995C13.9583 12.1182 13.6762 11.8745 13.4065 11.8745C12.9755 11.8745 12.7438 12.0397 12.5846 12.3042C12.3973 12.615 12.2917 13.1067 12.2917 13.7495L12.2917 16.7033C12.2917 17.064 12.2917 17.3947 12.2556 17.6637C12.2157 17.9599 12.122 18.273 11.8645 18.5306C11.607 18.7881 11.2939 18.8818 10.9976 18.9216C10.7286 18.9578 10.3979 18.9577 10.0373 18.9577H9.54599C9.18532 18.9577 8.85463 18.9578 8.58563 18.9216C8.28939 18.8818 7.97629 18.7881 7.71877 18.5306C7.46125 18.273 7.36754 17.9599 7.32771 17.6637C7.29155 17.3947 7.29159 17.064 7.29163 16.7033L7.29163 9.5454C7.29159 9.18472 7.29155 8.85402 7.32771 8.58501C7.36754 8.28878 7.46125 7.97568 7.71877 7.71816C7.97629 7.46064 8.28939 7.36693 8.58563 7.3271C8.85463 7.29094 9.18533 7.29098 9.54601 7.29102ZM9.58329 8.54102C9.17279 8.54102 8.92778 8.54234 8.75218 8.56595C8.69579 8.56376 8.57973 8.59781 8.56656 8.75157C8.54295 8.92717 8.54163 9.17218 8.54163 9.58268L8.54163 16.666C8.54163 17.0765 8.54295 17.3215 8.56656 17.4971C8.57662 17.5988 8.6945 17.6632 8.75218 17.6827C8.92778 17.7064 9.17279 17.7077 9.58329 17.7077H9.99998C10.4105 17.7077 10.6555 17.7064 10.8311 17.6827C10.8884 17.6683 11.0058 17.6109 11.0167 17.4971C11.0403 17.3215 11.0416 17.0765 11.0416 16.666L11.0417 13.7494C11.0417 13.0115 11.156 12.2532 11.5138 11.6592C11.8995 11.0188 12.5378 10.6244 13.4065 10.6244C14.4366 10.6244 15.2083 11.5 15.2083 12.4994V16.2494C15.2083 16.66 15.2096 16.905 15.2332 17.0806C15.2332 17.2123 15.3128 17.2343 15.375 17.2516C15.3914 17.2561 15.4066 17.2604 15.4188 17.2662C15.5944 17.2898 15.8394 17.2911 16.2499 17.2911L16.6656 17.2911C17.076 17.2911 17.3209 17.2898 17.4965 17.2662C17.5543 17.2447 17.6724 17.1776 17.6821 17.0806C17.7057 16.9051 17.7071 16.6601 17.7072 16.2497L17.7083 11.6661C17.7082 9.98715 16.0672 8.54121 14.4139 8.54121C13.516 8.54121 12.7036 8.98024 12.1641 9.68938C12.0017 9.90286 11.7212 9.98891 11.467 9.90323C11.2128 9.81754 11.0417 9.57923 11.0417 9.311C11.0417 9.03686 11.041 8.8735 11.03 8.75301C11.0232 8.62697 10.8936 8.56693 10.8297 8.55267C10.7092 8.54163 10.5458 8.54102 10.2717 8.54102L9.58329 8.54102Z" fill="white"/>
</svg>
