<svg width="20" height="20" viewBox="0 0 20 20" fill="none" xmlns="http://www.w3.org/2000/svg">
<path fill-rule="evenodd" clip-rule="evenodd" d="M5.62498 9.9987C5.62498 7.58245 7.58373 5.6237 9.99998 5.6237C12.4162 5.6237 14.375 7.58245 14.375 9.9987C14.375 12.4149 12.4162 14.3737 9.99998 14.3737C7.58373 14.3737 5.62498 12.4149 5.62498 9.9987ZM9.99998 6.8737C8.27409 6.8737 6.87498 8.27281 6.87498 9.9987C6.87498 11.7246 8.27409 13.1237 9.99998 13.1237C11.7259 13.1237 13.125 11.7246 13.125 9.9987C13.125 8.27281 11.7259 6.8737 9.99998 6.8737Z" fill="white"/>
<path d="M14.5898 6.2487C15.0501 6.2487 15.4232 5.8756 15.4232 5.41536C15.4232 4.95513 15.0501 4.58203 14.5898 4.58203H14.5823C14.1221 4.58203 13.749 4.95513 13.749 5.41536C13.749 5.8756 14.1221 6.2487 14.5823 6.2487H14.5898Z" fill="white"/>
<path fill-rule="evenodd" clip-rule="evenodd" d="M10.0476 1.45703C11.8732 1.45702 13.3071 1.45701 14.4266 1.60753C15.5738 1.76177 16.4841 2.08429 17.1992 2.79946C17.9144 3.51462 18.2369 4.42484 18.3912 5.57205C18.5417 6.69156 18.5417 8.12545 18.5416 9.95103V10.0463C18.5417 11.8719 18.5417 13.3058 18.3912 14.4253C18.2369 15.5726 17.9144 16.4828 17.1992 17.1979C16.4841 17.9131 15.5738 18.2356 14.4266 18.3899C13.3071 18.5404 11.8732 18.5404 10.0476 18.5404H9.95234C8.12676 18.5404 6.69284 18.5404 5.57333 18.3899C4.42612 18.2356 3.51591 17.9131 2.80074 17.1979C2.08558 16.4828 1.76305 15.5726 1.60881 14.4253C1.45829 13.3058 1.4583 11.8719 1.45831 10.0463V9.95105C1.4583 8.12546 1.45829 6.69156 1.60881 5.57205C1.76305 4.42484 2.08558 3.51462 2.80074 2.79946C3.51591 2.08429 4.42612 1.76177 5.57333 1.60753C6.69284 1.45701 8.12673 1.45702 9.95231 1.45703H10.0476ZM5.73989 2.84638C4.73129 2.98198 4.12883 3.23914 3.68462 3.68334C3.24042 4.12755 2.98326 4.73001 2.84766 5.73861C2.70964 6.76519 2.70831 8.11505 2.70831 9.9987C2.70831 11.8823 2.70964 13.2322 2.84766 14.2588C2.98326 15.2674 3.24042 15.8698 3.68462 16.3141C4.12883 16.7583 4.73129 17.0154 5.73989 17.151C6.76648 17.289 8.11633 17.2904 9.99998 17.2904C11.8836 17.2904 13.2335 17.289 14.2601 17.151C15.2687 17.0154 15.8711 16.7583 16.3153 16.3141C16.7595 15.8698 17.0167 15.2674 17.1523 14.2588C17.2903 13.2322 17.2916 11.8823 17.2916 9.9987C17.2916 8.11505 17.2903 6.76519 17.1523 5.73861C17.0167 4.73001 16.7595 4.12755 16.3153 3.68334C15.8711 3.23914 15.2687 2.98198 14.2601 2.84638C13.2335 2.70836 11.8836 2.70703 9.99998 2.70703C8.11633 2.70703 6.76648 2.70836 5.73989 2.84638Z" fill="white"/>
</svg>
