<svg width="24" height="24" viewBox="0 0 24 24" fill="none" xmlns="http://www.w3.org/2000/svg">
<path fill-rule="evenodd" clip-rule="evenodd" d="M12.0005 6.75C9.65328 6.75 7.75049 8.65279 7.75049 11C7.75049 13.3472 9.65328 15.25 12.0005 15.25C14.3477 15.25 16.2505 13.3472 16.2505 11C16.2505 8.65279 14.3477 6.75 12.0005 6.75ZM9.25049 11C9.25049 9.48122 10.4817 8.25 12.0005 8.25C13.5193 8.25 14.7505 9.48122 14.7505 11C14.7505 12.5188 13.5193 13.75 12.0005 13.75C10.4817 13.75 9.25049 12.5188 9.25049 11Z" fill="#384250"/>
<path fill-rule="evenodd" clip-rule="evenodd" d="M12.0015 1.25C8.17538 1.25 4.52505 3.51303 2.99714 7.08468C1.57518 10.4086 2.34496 13.2373 3.94771 15.6595C5.26177 17.6454 7.17835 19.4178 8.90742 21.0168C9.23709 21.3217 9.5601 21.6204 9.87066 21.9129L9.87231 21.9145C10.4473 22.4528 11.2112 22.75 12.0015 22.75C12.7919 22.75 13.5557 22.4528 14.1308 21.9145C14.4243 21.6396 14.7286 21.3592 15.039 21.0732C16.7869 19.4628 18.7304 17.672 20.0582 15.6609C21.6591 13.2362 22.4261 10.4045 21.0059 7.08468C19.478 3.51303 15.8277 1.25 12.0015 1.25ZM4.37624 7.67465C5.65506 4.68528 8.74215 2.75 12.0015 2.75C15.2609 2.75 18.348 4.68528 19.6268 7.67465C20.7989 10.4144 20.2075 12.7124 18.8064 14.8344C17.5889 16.6786 15.8053 18.3242 14.0521 19.9418C13.7344 20.235 13.4177 20.5272 13.1056 20.8195C12.8132 21.0932 12.4177 21.25 12.0015 21.25C11.5857 21.25 11.1905 21.0934 10.8982 20.8201C10.5657 20.5069 10.228 20.1942 9.88939 19.8806C8.15852 18.2778 6.40324 16.6523 5.19866 14.8318C3.79629 12.7124 3.20269 10.4179 4.37624 7.67465Z" fill="#384250"/>
</svg>
