<svg width="28" height="28" viewBox="0 0 28 28" fill="none" xmlns="http://www.w3.org/2000/svg">
<path fill-rule="evenodd" clip-rule="evenodd" d="M13.9997 17.9582C16.646 17.9582 18.7913 15.8129 18.7913 13.1665V9.83317C18.7913 7.18681 16.646 5.0415 13.9997 5.0415C11.3533 5.0415 9.20801 7.18681 9.20801 9.83317V13.1665C9.20801 15.8129 11.3533 17.9582 13.9997 17.9582ZM13.9997 6.2915C12.0437 6.2915 10.458 7.87716 10.458 9.83317V13.1665C10.458 15.1225 12.0437 16.7082 13.9997 16.7082C15.7424 16.7082 17.1912 15.4494 17.4864 13.7915H15.6663C15.3212 13.7915 15.0413 13.5117 15.0413 13.1665C15.0413 12.8213 15.3212 12.5415 15.6663 12.5415H17.5413V10.4582H15.6663C15.3212 10.4582 15.0413 10.1783 15.0413 9.83317C15.0413 9.48799 15.3212 9.20817 15.6663 9.20817H17.4864C17.1912 7.55025 15.7424 6.2915 13.9997 6.2915Z" fill="#161616"/>
<path d="M7.95801 13.1665C7.95801 12.8213 7.67819 12.5415 7.33301 12.5415C6.98783 12.5415 6.70801 12.8213 6.70801 13.1665C6.70801 16.983 9.64017 20.1147 13.3747 20.4318V21.7082H11.4997C11.1545 21.7082 10.8747 21.988 10.8747 22.3332C10.8747 22.6783 11.1545 22.9582 11.4997 22.9582H16.4997C16.8449 22.9582 17.1247 22.6783 17.1247 22.3332C17.1247 21.988 16.8449 21.7082 16.4997 21.7082H14.6247V20.4318C18.3592 20.1147 21.2913 16.983 21.2913 13.1665C21.2913 12.8213 21.0115 12.5415 20.6663 12.5415C20.3212 12.5415 20.0413 12.8213 20.0413 13.1665C20.0413 16.5032 17.3364 19.2082 13.9997 19.2082C10.663 19.2082 7.95801 16.5032 7.95801 13.1665Z" fill="#161616"/>
</svg>
