<svg width="24" height="24" viewBox="0 0 24 24" fill="none" xmlns="http://www.w3.org/2000/svg">
<path d="M9.70498 15.5974C9.81257 15.5162 10.1337 15.2736 10.3189 15.1291C10.6897 14.8397 11.1824 14.4443 11.6737 14.0178C12.1674 13.5891 12.6483 13.1387 13.0018 12.7387C13.179 12.538 13.3137 12.3618 13.4014 12.2164C13.4838 12.0796 13.501 11.9988 13.501 11.9988C13.501 11.9988 13.4838 11.9204 13.4014 11.7837C13.3137 11.6382 13.179 11.462 13.0018 11.2614C12.6483 10.8613 12.1674 10.411 11.6737 9.9823C11.1824 9.55577 10.6897 9.16036 10.3188 8.87098C10.1337 8.72649 9.81299 8.48423 9.70541 8.40297C9.48306 8.23921 9.4351 7.92588 9.59886 7.70353C9.76262 7.48118 10.0756 7.43368 10.298 7.59744L10.2997 7.59871C10.4125 7.68394 10.7452 7.93521 10.9341 8.08263C11.3133 8.37855 11.8205 8.7855 12.3293 9.2272C12.8355 9.66675 13.3547 10.1505 13.7512 10.5993C13.9489 10.8231 14.1267 11.0499 14.2578 11.2674C14.3806 11.4711 14.5015 11.729 14.5015 12C14.5015 12.271 14.3806 12.529 14.2578 12.7327C14.1267 12.9501 13.9489 13.177 13.7512 13.4008C13.3547 13.8495 12.8355 14.3333 12.3293 14.7729C11.8205 15.2146 11.3133 15.6215 10.9341 15.9174C10.7451 16.065 10.4124 16.3162 10.2998 16.4013L10.2983 16.4024C10.076 16.5661 9.76265 16.5189 9.59889 16.2965C9.43514 16.0742 9.48265 15.7612 9.70498 15.5974Z" fill="#161616"/>
</svg>
