<svg width="24" height="24" viewBox="0 0 24 24" fill="none" xmlns="http://www.w3.org/2000/svg">
<path d="M8.55735 17.3962C8.71873 17.2743 9.20047 16.9104 9.47818 16.6936C10.0344 16.2596 10.7735 15.6664 11.5104 15.0266C12.251 14.3836 12.9723 13.7081 13.5025 13.108C13.7684 12.8071 13.9704 12.5427 14.1019 12.3246C14.2256 12.1194 14.2513 11.9983 14.2513 11.9983C14.2513 11.9983 14.2256 11.8806 14.1019 11.6755C13.9704 11.4574 13.7684 11.193 13.5025 10.8921C12.9723 10.292 12.251 9.6165 11.5104 8.97346C10.7735 8.33365 10.0344 7.74054 9.47815 7.30647C9.20043 7.08974 8.71937 6.72634 8.55799 6.60445C8.22447 6.35882 8.15254 5.88881 8.39817 5.55529C8.6438 5.22177 9.1133 5.15052 9.44682 5.39615L9.44936 5.39807C9.61862 5.52591 10.1176 5.90281 10.401 6.12394C10.9698 6.56782 11.7307 7.17825 12.4938 7.84081C13.2532 8.50013 14.0319 9.22579 14.6266 9.89891C14.9232 10.2346 15.1899 10.5749 15.3866 10.9011C15.5708 11.2066 15.7521 11.5935 15.7521 12.0001C15.7521 12.4066 15.5708 12.7935 15.3866 13.099C15.1899 13.4252 14.9232 13.7655 14.6266 14.1012C14.0319 14.7743 13.2532 15.5 12.4938 16.1593C11.7307 16.8218 10.9698 17.4323 10.401 17.8762C10.1175 18.0974 9.61844 18.4744 9.44953 18.6019L9.44735 18.6036C9.11383 18.8492 8.64385 18.7783 8.39822 18.4448C8.15259 18.1113 8.22386 17.6418 8.55735 17.3962Z" fill="#161616"/>
</svg>
