<svg width="24" height="24" viewBox="0 0 24 24" fill="none" xmlns="http://www.w3.org/2000/svg">
<path d="M15.4447 6.60372C15.2833 6.7256 14.8016 7.08951 14.5239 7.30624C13.9677 7.74031 13.2286 8.33342 12.4917 8.97323C11.7511 9.61627 11.0298 10.2918 10.4995 10.8919C10.2337 11.1928 10.0316 11.4571 9.90013 11.6753C9.77645 11.8804 9.75073 12.0016 9.75073 12.0016C9.75073 12.0016 9.77645 12.1192 9.90012 12.3244C10.0316 12.5425 10.2337 12.8068 10.4995 13.1078C11.0298 13.7079 11.7511 14.3834 12.4917 15.0264C13.2286 15.6662 13.9677 16.2593 14.5239 16.6934C14.8016 16.9101 15.2827 17.2735 15.4441 17.3954C15.7776 17.6411 15.8495 18.1111 15.6039 18.4446C15.3583 18.7781 14.8888 18.8494 14.5552 18.6037L14.5527 18.6018C14.3834 18.474 13.8844 18.0971 13.6011 17.8759C13.0323 17.4321 12.2714 16.8216 11.5083 16.1591C10.7489 15.4997 9.97021 14.7741 9.37546 14.101C9.07884 13.7653 8.81212 13.425 8.6155 13.0988C8.43128 12.7932 8.25 12.4063 8.25 11.9998C8.25 11.5933 8.43129 11.2064 8.6155 10.9008C8.81213 10.5747 9.07884 10.2344 9.37546 9.89869C9.97021 9.22557 10.7489 8.4999 11.5083 7.84058C12.2714 7.17803 13.0323 6.5676 13.601 6.12372C13.8846 5.90243 14.3836 5.52551 14.5525 5.39793L14.5547 5.39628C14.8882 5.15065 15.3582 5.22154 15.6038 5.55506C15.8495 5.88857 15.7782 6.35808 15.4447 6.60372Z" fill="#161616"/>
</svg>
