<svg xmlns="http://www.w3.org/2000/svg" width="7.5" height="13.5" viewBox="0 0 7.5 13.5">
  <path id="partner-slider-right" d="M8.557,17.4c.161-.122.643-.486.921-.7.556-.434,1.3-1.027,2.032-1.667A22.13,22.13,0,0,0,13.5,13.108a5.687,5.687,0,0,0,.6-.783A1.2,1.2,0,0,0,14.251,12a1.216,1.216,0,0,0-.149-.323,5.687,5.687,0,0,0-.6-.783A22.136,22.136,0,0,0,11.51,8.973c-.737-.64-1.476-1.233-2.032-1.667-.278-.217-.759-.58-.92-.7A.75.75,0,1,1,9.447,5.4l0,0c.169.128.668.5.952.726.569.444,1.33,1.054,2.093,1.717A23.564,23.564,0,0,1,14.627,9.9a7.141,7.141,0,0,1,.76,1,2.2,2.2,0,0,1,.366,1.1,2.2,2.2,0,0,1-.366,1.1,7.142,7.142,0,0,1-.76,1,23.564,23.564,0,0,1-2.133,2.058c-.763.663-1.524,1.273-2.093,1.717-.283.221-.783.6-.951.726l0,0a.75.75,0,1,1-.89-1.207Z" transform="translate(-8.252 -5.25)" fill="#fff"/>
</svg>
