<svg xmlns="http://www.w3.org/2000/svg" width="7.5" height="13.5" viewBox="0 0 7.5 13.5">
  <path id="partner-slider-left" d="M15.445,6.6c-.161.122-.643.486-.921.7-.556.434-1.3,1.027-2.032,1.667A22.151,22.151,0,0,0,10.5,10.892a5.686,5.686,0,0,0-.6.783A1.2,1.2,0,0,0,9.751,12a1.219,1.219,0,0,0,.149.323,5.7,5.7,0,0,0,.6.783,22.145,22.145,0,0,0,1.992,1.919c.737.64,1.476,1.233,2.032,1.667.278.217.759.58.92.7a.75.75,0,1,1-.889,1.208l0,0c-.169-.128-.668-.5-.952-.726-.569-.444-1.33-1.054-2.093-1.717A23.584,23.584,0,0,1,9.375,14.1a7.134,7.134,0,0,1-.76-1A2.2,2.2,0,0,1,8.25,12a2.2,2.2,0,0,1,.366-1.1,7.14,7.14,0,0,1,.76-1,23.571,23.571,0,0,1,2.133-2.058c.763-.663,1.524-1.273,2.093-1.717.284-.221.783-.6.951-.726l0,0a.75.75,0,1,1,.89,1.207Z" transform="translate(-8.25 -5.25)" fill="#fff"/>
</svg>
