<svg width="207" height="57" viewBox="0 0 207 57" fill="none" xmlns="http://www.w3.org/2000/svg">
<g clip-path="url(#clip0_5_3053)">
<path d="M0 50.3423L0.309509 48.4898C1.37462 49.0047 2.5432 49.2755 3.7285 49.2821C4.38881 49.3097 5.04518 49.1686 5.63449 48.8725C5.85774 48.7527 6.04791 48.5806 6.18833 48.3712C6.32876 48.1618 6.41515 47.9215 6.43995 47.6713C6.46474 47.4212 6.42718 47.1688 6.33055 46.9364C6.23392 46.7039 6.08118 46.4985 5.8857 46.3381C5.21979 45.8348 4.49471 45.4133 3.72634 45.0827C2.80369 44.6832 1.93571 44.1699 1.14302 43.5551C0.829898 43.2994 0.577342 42.9787 0.403212 42.6158C0.229082 42.2528 0.137629 41.8564 0.13532 41.4546C0.0967422 40.9158 0.20041 40.3763 0.436141 39.8891C0.671873 39.402 1.03156 38.9838 1.47988 38.6759C2.42955 38.0991 3.53458 37.8234 4.64695 37.8857C5.76005 37.8814 6.86014 38.1226 7.86727 38.5918L7.55777 40.3624C6.63259 39.9059 5.62128 39.6457 4.58864 39.5986C2.96384 39.5986 2.15144 40.1346 2.15144 41.2067C2.15504 41.3972 2.20397 41.5841 2.29427 41.7524C2.38456 41.9206 2.51368 42.0654 2.67113 42.175C3.29747 42.6207 3.97052 42.9984 4.67862 43.3014C5.62982 43.7009 6.52399 44.2221 7.33823 44.8518C7.67633 45.1205 7.94984 45.4602 8.13894 45.8464C8.32804 46.2326 8.428 46.6556 8.43159 47.0848C8.46194 47.6857 8.33598 48.2842 8.06578 48.8232C7.79558 49.3621 7.39018 49.8233 6.88836 50.1628C5.94606 50.7596 4.84121 51.0554 3.72346 51.01C2.4487 51.0489 1.17997 50.8214 0 50.3423Z" fill="#58595B"/>
<path d="M18.4524 49.6313L18.6748 50.6673C18.2088 50.8762 17.7014 50.9789 17.1899 50.9679C16.7845 50.9883 16.3856 50.8617 16.0678 50.6117C15.9291 50.4945 15.8192 50.3477 15.7462 50.1823C15.6733 50.0169 15.6392 49.8373 15.6467 49.6569C15.3641 50.0992 14.9634 50.4554 14.4889 50.6862C14.0144 50.9169 13.4846 51.0132 12.9583 50.9644C10.977 50.9644 9.98725 50.083 9.98917 48.3203C9.95676 47.8071 10.0739 47.2954 10.3267 46.8461C10.5794 46.3969 10.9572 46.0289 11.4151 45.7859C12.2576 45.3709 13.1928 45.1747 14.133 45.2159C14.6386 45.2218 15.1434 45.2585 15.6445 45.3257V44.4821C15.6661 44.2774 15.632 44.0708 15.5457 43.8836C15.4594 43.6964 15.324 43.5355 15.1536 43.4176C14.6062 43.1726 14.0049 43.0692 13.406 43.1169C12.4679 43.1167 11.5373 43.2832 10.6586 43.6085L10.9681 42.1123C11.9192 41.7705 12.9255 41.6039 13.9372 41.6207C15.264 41.6207 16.1875 41.885 16.7077 42.4137C17.3013 43.1324 17.5829 44.0548 17.4908 44.9787V49.2024C17.4908 49.5266 17.6484 49.694 17.9644 49.694C18.1295 49.7003 18.2945 49.6792 18.4524 49.6313ZM15.6525 47.508V46.611C15.0385 46.559 14.5886 46.5298 14.3079 46.5298C13.685 46.4828 13.0618 46.6154 12.5135 46.9117C12.3221 47.052 12.1701 47.2383 12.0718 47.453C11.9736 47.6677 11.9324 47.9037 11.952 48.1386C11.952 49.0299 12.5012 49.4753 13.6075 49.4753C13.8757 49.4828 14.1427 49.437 14.3927 49.3405C14.6427 49.2441 14.8706 49.099 15.063 48.9138C15.2556 48.7342 15.4078 48.5163 15.5095 48.2744C15.6112 48.0325 15.6602 47.7721 15.6532 47.5102L15.6525 47.508Z" fill="#58595B"/>
<path d="M28.9857 49.6306L29.1844 50.6666C28.7224 50.8875 28.212 50.9909 27.6995 50.9673C27.2916 50.9885 26.8907 50.8561 26.5773 50.5968C26.4389 50.4769 26.3293 50.3279 26.2565 50.1608C26.1836 49.9936 26.1494 49.8125 26.1562 49.6306C25.7003 50.0347 25.1798 50.3612 24.6159 50.5968C24.1143 50.8244 23.5717 50.9504 23.0201 50.9673C22.2491 51.0465 21.4766 50.8312 20.8608 50.3652C20.3633 49.6886 20.1346 48.8545 20.218 48.0218V41.7853H22.0966V47.8316C22.0562 48.2379 22.1397 48.6469 22.3363 49.0058C22.4598 49.1218 22.6079 49.209 22.7698 49.261C22.9317 49.313 23.1033 49.3285 23.2721 49.3064C23.831 49.2841 24.3796 49.1503 24.8851 48.9131C25.3789 48.7302 25.8174 48.4256 26.1591 48.0282V41.7853H28.0061V49.1953C28.0061 49.5195 28.1637 49.6869 28.4797 49.6869C28.6502 49.6925 28.8207 49.6735 28.9857 49.6306Z" fill="#58595B"/>
<path d="M40.1553 49.6306L40.4065 50.6666C39.9294 50.87 39.4145 50.9724 38.895 50.9672C38.4855 50.9922 38.0813 50.8652 37.7613 50.611C37.625 50.4867 37.5182 50.334 37.4485 50.164C37.3789 49.994 37.348 49.8109 37.3582 49.6277C36.9489 50.5188 35.9222 50.9644 34.2782 50.9644C33.7833 50.9858 33.2898 50.8966 32.8345 50.7033C32.3791 50.51 31.9736 50.2176 31.6481 49.8479C30.8846 48.8379 30.5171 47.5881 30.6138 46.3303C30.5343 45.0606 30.9342 43.8069 31.736 42.8127C32.115 42.4057 32.5806 42.0871 33.0992 41.88C33.6178 41.6729 34.1764 41.5824 34.7346 41.615C35.6248 41.5957 36.5125 41.7159 37.3647 41.9712V38.0995H39.2117V49.191C39.2117 49.5152 39.3693 49.6826 39.6853 49.6826C39.8438 49.6912 40.0026 49.6736 40.1553 49.6306ZM37.3553 47.0442V43.4746C36.6471 43.255 35.9113 43.1351 35.1693 43.1183C34.8059 43.0817 34.4387 43.1261 34.0948 43.2483C33.7509 43.3705 33.439 43.5673 33.182 43.8244C32.7235 44.5365 32.516 45.3788 32.5918 46.2199C32.5139 47.0814 32.6992 47.9462 33.1237 48.7022C33.3309 48.9536 33.5982 49.1499 33.9013 49.2732C34.2045 49.3964 34.534 49.4429 34.8598 49.4083C35.2221 49.4313 35.5848 49.3719 35.9202 49.2345C36.2556 49.0972 36.5547 48.8856 36.7946 48.616C37.172 48.1779 37.3718 47.6168 37.3553 47.0414V47.0442Z" fill="#58595B"/>
<path d="M44.2467 38.8405C44.2499 38.9943 44.222 39.1472 44.1648 39.2902C44.1076 39.4332 44.0221 39.5635 43.9134 39.6734C43.8048 39.785 43.6739 39.873 43.529 39.9317C43.3841 39.9905 43.2285 40.0187 43.072 40.0147C42.7573 40.0141 42.4552 39.8916 42.2306 39.6734C42.1181 39.5772 42.0277 39.4582 41.9656 39.3245C41.9035 39.1908 41.8712 39.0454 41.8707 38.8982C41.8689 38.7405 41.9 38.584 41.9619 38.4387C42.0238 38.2933 42.1153 38.1621 42.2306 38.0532C42.3388 37.94 42.4693 37.8501 42.614 37.7888C42.7587 37.7275 42.9146 37.6962 43.072 37.6969C43.2284 37.6935 43.3839 37.722 43.5287 37.7807C43.6735 37.8394 43.8044 37.9271 43.9134 38.0382C44.0207 38.1428 44.1055 38.2678 44.1628 38.4057C44.2201 38.5436 44.2486 38.6915 44.2467 38.8405ZM44.919 49.6278L45.1702 50.6637C44.6885 50.8879 44.1585 50.9912 43.627 50.9644C43.224 50.9878 42.8277 50.8549 42.5221 50.5939C42.3883 50.4713 42.283 50.3214 42.2135 50.1546C42.1439 49.9878 42.1116 49.8081 42.119 49.6278V41.7853H43.9955V49.2003C43.9955 49.5244 44.1474 49.6919 44.4454 49.6919C44.6055 49.6935 44.7651 49.6719 44.919 49.6278Z" fill="#58595B"/>
<path d="M53.7388 50.3424L54.0483 48.4899C55.1134 49.0047 56.282 49.2755 57.4673 49.2822C58.1275 49.3091 58.7836 49.1676 59.3725 48.871C59.5958 48.7513 59.786 48.5792 59.9264 48.3698C60.0668 48.1603 60.1532 47.92 60.178 47.6699C60.2028 47.4197 60.1652 47.1674 60.0686 46.935C59.972 46.7025 59.8192 46.4971 59.6237 46.3367C58.9578 45.8334 58.2328 45.4119 57.4644 45.0813C56.5429 44.6829 55.6767 44.1695 54.8868 43.5537C54.5737 43.298 54.3211 42.9773 54.147 42.6143C53.9729 42.2514 53.8814 41.855 53.8791 41.4532C53.8406 40.9144 53.9442 40.3749 54.1799 39.8877C54.4157 39.4005 54.7754 38.9824 55.2237 38.6745C56.1729 38.0986 57.2771 37.8235 58.3886 37.8857C59.5017 37.8814 60.6018 38.1226 61.6089 38.5918L61.2994 40.3624C60.3742 39.9059 59.3629 39.6457 58.3303 39.5986C56.7055 39.5986 55.8931 40.1346 55.8931 41.2067C55.8971 41.3969 55.9463 41.5834 56.0367 41.7513C56.1271 41.9191 56.2562 42.0636 56.4135 42.1728C57.0389 42.6189 57.7109 42.9971 58.4181 43.3007C59.3693 43.7002 60.2635 44.2214 61.0777 44.8511C61.4158 45.1198 61.6893 45.4595 61.8784 45.8457C62.0675 46.2319 62.1675 46.6549 62.1711 47.0841C62.2014 47.685 62.0755 48.2835 61.8053 48.8225C61.5351 49.3614 61.1297 49.8226 60.6279 50.1621C59.6871 50.7582 58.5841 51.0542 57.468 51.01C56.1913 51.0494 54.9206 50.8219 53.7388 50.3424Z" fill="#58595B"/>
<path d="M68.5259 49.2487L68.8066 50.6082C68.1401 50.8418 67.4385 50.9623 66.7315 50.9644C66.4596 50.9904 66.1852 50.9562 65.9284 50.8641C65.6715 50.772 65.4386 50.6245 65.2466 50.4322C64.8986 49.9054 64.7401 49.2778 64.7967 48.6509V43.2259H63.3125L63.622 41.7796H64.7967V39.3571L66.6437 38.755V41.781H68.5785V43.2274H66.6437V48.4286C66.6109 48.7184 66.6746 49.0108 66.8251 49.2615C66.9337 49.3442 67.0579 49.4046 67.1904 49.4394C67.3228 49.4741 67.4609 49.4824 67.5967 49.4639C67.9196 49.4693 68.2389 49.3954 68.5259 49.2487Z" fill="#58595B"/>
<path d="M78.6326 49.6313L78.855 50.6673C78.389 50.8762 77.8816 50.9789 77.3701 50.9679C76.9647 50.9883 76.5657 50.8617 76.2479 50.6117C76.1093 50.4945 75.9993 50.3477 75.9264 50.1823C75.8535 50.0169 75.8194 49.8373 75.8269 49.6569C75.5443 50.0992 75.1435 50.4554 74.669 50.6862C74.1946 50.9169 73.6648 51.0132 73.1385 50.9644C71.1571 50.9644 70.1674 50.083 70.1693 48.3203C70.1369 47.8071 70.2541 47.2954 70.5068 46.8461C70.7596 46.3969 71.1374 46.0289 71.5952 45.7859C72.4377 45.3709 73.373 45.1747 74.3132 45.2159C74.8188 45.2218 75.3236 45.2585 75.8247 45.3257V44.4821C75.8463 44.2774 75.8122 44.0708 75.7258 43.8836C75.6395 43.6964 75.5042 43.5355 75.3338 43.4176C74.7864 43.1726 74.185 43.0692 73.5862 43.1169C72.648 43.1167 71.7175 43.2832 70.8388 43.6085L71.1483 42.1123C72.0994 41.7705 73.1057 41.6039 74.1174 41.6207C75.4442 41.6207 76.3677 41.885 76.8878 42.4137C77.4814 43.1324 77.7631 44.0548 77.671 44.9787V49.2024C77.671 49.5266 77.8286 49.694 78.1446 49.694C78.3097 49.7003 78.4746 49.6792 78.6326 49.6313ZM75.8326 47.508V46.611C75.2187 46.559 74.7688 46.5298 74.4881 46.5298C73.8652 46.4828 73.2419 46.6154 72.6936 46.9117C72.5023 47.052 72.3503 47.2383 72.252 47.453C72.1538 47.6677 72.1125 47.9037 72.1322 48.1386C72.1322 49.0299 72.6814 49.4753 73.7877 49.4753C74.0559 49.4828 74.3229 49.437 74.5729 49.3405C74.8229 49.2441 75.0508 49.099 75.2431 48.9138C75.4347 48.7334 75.5862 48.5153 75.6878 48.2736C75.7895 48.0319 75.839 47.7719 75.8334 47.5102L75.8326 47.508Z" fill="#58595B"/>
<path d="M89.2996 49.6314L89.522 50.6673C89.0509 50.8895 88.5316 50.9928 88.0104 50.968C87.6051 50.9884 87.2061 50.8617 86.8883 50.6118C86.7473 50.4903 86.6362 50.3386 86.5632 50.1682C86.4903 49.9979 86.4574 49.8133 86.4672 49.6285V44.7251C86.509 44.3264 86.421 43.925 86.216 43.5794C86.0938 43.4653 85.9477 43.3792 85.7881 43.3272C85.6285 43.2753 85.4593 43.2587 85.2925 43.2787C84.7576 43.3035 84.2331 43.4333 83.7493 43.6606C83.2038 43.8818 82.7013 44.1952 82.2644 44.5869V50.8241H80.3857V41.7853H82.2622V42.983C82.7341 42.5726 83.2739 42.2458 83.858 42.0169C84.3948 41.7748 84.975 41.6411 85.5646 41.6236C86.3261 41.541 87.09 41.7571 87.6923 42.2256C88.1889 42.9027 88.4176 43.7364 88.3351 44.5691V49.2003C88.3351 49.5245 88.487 49.6919 88.7849 49.6919C88.9585 49.6946 89.1315 49.6742 89.2996 49.6314Z" fill="#58595B"/>
<path d="M100.504 49.6306L100.756 50.6666C100.278 50.87 99.7636 50.9724 99.2441 50.9672C98.8346 50.9922 98.4304 50.8652 98.1104 50.611C97.9741 50.4867 97.8673 50.334 97.7977 50.164C97.728 49.994 97.6971 49.8109 97.7073 49.6277C97.298 50.5188 96.2714 50.9644 94.6274 50.9644C94.1323 50.9864 93.6387 50.8974 93.1832 50.7041C92.7278 50.5108 92.3224 50.2181 91.9973 49.8479C91.2338 48.8379 90.8663 47.5881 90.9629 46.3303C90.8834 45.0606 91.2834 43.8069 92.0851 42.8127C92.4641 42.4057 92.9298 42.0871 93.4483 41.88C93.9669 41.6729 94.5255 41.5824 95.0837 41.615C95.9739 41.5957 96.8616 41.7159 97.7138 41.9712V38.0995H99.5608V49.191C99.5608 49.5152 99.7184 49.6826 100.034 49.6826C100.193 49.6909 100.352 49.6733 100.504 49.6306ZM97.7045 47.0442V43.4746C96.9963 43.255 96.2604 43.1351 95.5185 43.1183C95.155 43.0817 94.7878 43.1261 94.4439 43.2483C94.1 43.3705 93.7881 43.5673 93.5311 43.8244C93.0726 44.5365 92.8651 45.3788 92.9409 46.2199C92.863 47.0814 93.0483 47.9462 93.4728 48.7022C93.68 48.9536 93.9473 49.1499 94.2504 49.2732C94.5536 49.3964 94.8831 49.4429 95.209 49.4083C95.5712 49.4313 95.9339 49.3719 96.2693 49.2345C96.6047 49.0972 96.9038 48.8856 97.1438 48.616C97.5211 48.1779 97.7209 47.6168 97.7045 47.0414V47.0442Z" fill="#58595B"/>
<path d="M110.417 49.6313L110.639 50.6673C110.173 50.8761 109.666 50.9789 109.154 50.9679C108.749 50.9883 108.35 50.8617 108.032 50.6117C107.893 50.4945 107.784 50.3477 107.711 50.1823C107.638 50.0169 107.604 49.8373 107.611 49.6569C107.328 50.0992 106.928 50.4554 106.453 50.6862C105.979 50.9169 105.449 51.0132 104.923 50.9644C102.941 50.9644 101.952 50.083 101.954 48.3203C101.921 47.807 102.038 47.2954 102.291 46.8461C102.544 46.3969 102.922 46.0289 103.379 45.7859C104.222 45.3709 105.157 45.1747 106.097 45.2159C106.603 45.2218 107.108 45.2585 107.609 45.3257V44.482C107.63 44.2774 107.596 44.0708 107.51 43.8836C107.424 43.6964 107.288 43.5355 107.118 43.4176C106.571 43.1726 105.969 43.0692 105.37 43.1169C104.432 43.1167 103.502 43.2832 102.623 43.6085L102.932 42.1123C103.884 41.7706 104.89 41.6039 105.902 41.6207C107.228 41.6207 108.152 41.885 108.672 42.4137C109.266 43.1324 109.547 44.0548 109.455 44.9787V49.2024C109.455 49.5265 109.613 49.694 109.929 49.694C110.094 49.7003 110.259 49.6792 110.417 49.6313ZM107.618 47.5102V46.611C107.004 46.559 106.554 46.5298 106.274 46.5298C105.651 46.4828 105.028 46.6154 104.479 46.9117C104.288 47.052 104.136 47.2383 104.038 47.453C103.939 47.6677 103.898 47.9037 103.918 48.1386C103.918 49.0299 104.467 49.4753 105.573 49.4753C105.842 49.4828 106.109 49.4369 106.359 49.3405C106.609 49.2441 106.836 49.099 107.029 48.9138C107.22 48.7333 107.372 48.5152 107.473 48.2735C107.575 48.0318 107.624 47.7719 107.618 47.5102Z" fill="#58595B"/>
<path d="M114.059 50.8347H112.183V41.786H114.059V42.9602C114.214 42.5778 114.47 42.2439 114.801 41.994C115.082 41.7662 115.431 41.6361 115.795 41.6235C116.406 41.6364 117.004 41.8058 117.531 42.1152L117.192 43.6114C116.695 43.442 116.174 43.3502 115.648 43.3392C115.035 43.3392 114.503 43.7385 114.053 44.5369V50.8319L114.059 50.8347Z" fill="#58595B"/>
<path d="M128.169 49.6306L128.42 50.6666C127.943 50.87 127.428 50.9724 126.909 50.9672C126.499 50.9922 126.095 50.8652 125.775 50.611C125.639 50.4867 125.532 50.334 125.462 50.164C125.393 49.994 125.362 49.8109 125.372 49.6277C124.963 50.5188 123.936 50.9644 122.292 50.9644C121.797 50.9864 121.303 50.8974 120.848 50.7041C120.392 50.5108 119.987 50.2181 119.662 49.8479C118.898 48.8379 118.531 47.5881 118.627 46.3303C118.548 45.0606 118.948 43.8069 119.75 42.8127C120.129 42.4057 120.594 42.0871 121.113 41.88C121.631 41.6729 122.19 41.5824 122.748 41.615C123.638 41.5957 124.526 41.7159 125.378 41.9712V38.0995H127.225V49.191C127.225 49.5152 127.383 49.6826 127.699 49.6826C127.857 49.6912 128.016 49.6736 128.169 49.6306ZM125.369 47.0442V43.4746C124.661 43.255 123.925 43.1351 123.183 43.1183C122.82 43.0817 122.452 43.1261 122.108 43.2483C121.765 43.3705 121.453 43.5673 121.196 43.8244C120.737 44.5365 120.53 45.3788 120.605 46.2199C120.528 47.0814 120.713 47.9462 121.137 48.7022C121.345 48.9536 121.612 49.1499 121.915 49.2732C122.218 49.3964 122.548 49.4429 122.874 49.4083C123.236 49.4313 123.598 49.3719 123.934 49.2345C124.269 49.0972 124.568 48.8856 124.808 48.616C125.186 48.1779 125.385 47.6168 125.369 47.0414V47.0442Z" fill="#58595B"/>
<path d="M129.741 50.5568L130.162 48.9772C130.553 49.1453 130.96 49.2733 131.378 49.3591C131.776 49.4556 132.183 49.5098 132.593 49.5209C134.084 49.5209 134.83 49.085 134.832 48.2134C134.832 48.0702 134.797 47.9291 134.728 47.8029C134.66 47.6767 134.561 47.5692 134.44 47.4902C133.957 47.1967 133.438 46.9636 132.897 46.7963C132.168 46.5641 131.478 46.2247 130.851 45.7895C130.587 45.5994 130.373 45.3494 130.226 45.0604C130.08 44.7715 130.006 44.4519 130.01 44.1287C129.994 43.7648 130.074 43.403 130.241 43.0785C130.408 42.7539 130.656 42.4776 130.963 42.2762C131.782 41.7931 132.729 41.5652 133.681 41.6221C134.58 41.5995 135.475 41.757 136.311 42.0852L136.001 43.5551C135.289 43.233 134.516 43.0654 133.733 43.0635C132.482 43.0635 131.857 43.3817 131.857 44.0182C131.86 44.1396 131.893 44.2583 131.955 44.3635C132.016 44.4686 132.103 44.5569 132.207 44.6203C132.645 44.8773 133.11 45.0868 133.593 45.2451C134.371 45.4918 135.107 45.8504 135.779 46.3096C136.086 46.5621 136.326 46.8841 136.481 47.2483C136.635 47.6125 136.698 48.0081 136.665 48.4017C136.631 48.7952 136.503 49.1749 136.289 49.5087C136.076 49.8424 135.785 50.1204 135.44 50.3189C134.681 50.7722 133.807 50.9993 132.921 50.9729C131.846 50.9929 130.774 50.8526 129.741 50.5568Z" fill="#58595B"/>
<path d="M165.021 10.1483C162.612 12.8621 160.417 15.7558 158.457 18.8037C157.791 19.8276 157.165 20.87 156.564 21.9167C155.95 22.9526 155.348 24.0114 154.781 25.0873C153.094 28.2961 151.658 31.628 150.485 35.0537C148.869 39.7584 147.736 44.6122 147.102 49.5417L166.455 38.5022C167.548 35.5223 168.882 32.6343 170.443 29.866H170.455V29.8525C172.094 27.1369 173.951 24.5558 176.007 22.134V0.00585938C172.01 3.0133 168.329 6.41123 165.019 10.1483" fill="#529C44"/>
<path d="M178.079 22.1424C180.141 24.5617 182.002 27.1428 183.643 29.8602L183.648 29.8716H183.654C185.214 32.6397 186.549 35.5264 187.646 38.5042L207 49.5437C206.369 44.6137 205.235 39.7597 203.617 35.0557C202.448 31.6293 201.012 28.2982 199.32 25.0928C198.747 24.0108 198.153 22.9539 197.537 21.9222C196.936 20.8748 196.31 19.8339 195.644 18.8093C193.682 15.7627 191.488 12.8691 189.08 10.1538C185.769 6.40997 182.083 3.00797 178.079 0V22.1424Z" fill="#0096B6"/>
<path d="M167.547 40.2227C170.7 40.7701 173.892 41.0681 177.092 41.1141H177.109C180.309 41.0654 183.499 40.7597 186.649 40.2L206.011 51.2337C201.382 53.1656 196.569 54.6329 191.644 55.6135C188.065 56.3277 184.437 56.7686 180.79 56.9323C179.562 56.99 178.342 57.0078 177.119 56.9957C175.909 57.0071 174.676 56.9957 173.448 56.9437C169.803 56.7921 166.174 56.3686 162.593 55.6769C157.661 54.7124 152.838 53.2607 148.198 51.3435L167.547 40.2227Z" fill="#8D5316"/>
<path d="M164.764 52.5811C163.794 52.4648 162.903 51.9918 162.269 51.2559L163.186 50.2584C163.654 50.7257 164.249 51.0491 164.899 51.1896C165.665 51.3114 166.219 51.0222 166.313 50.455C166.349 50.2511 166.303 50.0414 166.184 49.8708C165.781 49.3008 164.407 48.8875 163.723 47.9385C163.556 47.7164 163.436 47.4627 163.372 47.1931C163.308 46.9235 163.3 46.6437 163.349 46.371C163.583 44.9766 164.874 44.2534 166.453 44.5185C167.36 44.6327 168.191 45.0809 168.779 45.7739L167.843 46.7051C167.433 46.2824 166.908 45.9868 166.332 45.8544C165.642 45.739 165.092 45.9876 165.011 46.4793C164.991 46.5662 164.992 46.6564 165.014 46.7428C165.035 46.8293 165.076 46.9098 165.134 46.978C165.444 47.4055 166.998 48.0254 167.676 48.9623C167.849 49.1924 167.97 49.4568 168.031 49.7374C168.091 50.018 168.09 50.3082 168.027 50.5882C167.781 52.0432 166.483 52.8647 164.764 52.5811Z" fill="white"/>
<path d="M174.648 53.4026L174.163 51.7304L171.311 51.5508L170.627 53.1475L168.932 53.0513L172.292 45.3792L173.976 45.4832L176.378 53.5081L174.648 53.4026ZM173.02 47.2089L171.816 50.2983L173.815 50.4201L173.02 47.2089Z" fill="white"/>
<path d="M180.136 53.5415C179.162 53.6177 178.194 53.3285 177.424 52.7314L178.12 51.5743C178.677 51.9385 179.328 52.1364 179.996 52.1443C180.768 52.1151 181.253 51.7104 181.229 51.1376C181.219 50.9324 181.131 50.7386 180.984 50.5939C180.469 50.1194 179.04 49.9805 178.177 49.1939C177.968 49.0092 177.799 48.784 177.681 48.5323C177.564 48.2806 177.5 48.0076 177.493 47.7304C177.434 46.3246 178.557 45.3585 180.152 45.3C181.062 45.2331 181.964 45.5034 182.683 46.0582L181.963 47.1632C181.473 46.8323 180.897 46.6475 180.303 46.631C179.602 46.6538 179.111 47.0072 179.14 47.4988C179.137 47.5876 179.155 47.6759 179.191 47.757C179.228 47.8382 179.282 47.9102 179.35 47.9677C179.748 48.3239 181.39 48.6217 182.238 49.4026C182.458 49.5915 182.632 49.8256 182.751 50.0886C182.869 50.3515 182.927 50.6368 182.922 50.9245C182.983 52.408 181.884 53.4724 180.136 53.5415Z" fill="white"/>
<path d="M188.577 52.807C186.297 53.1483 184.474 51.7019 184.106 49.2445C183.746 46.849 185.052 45.0037 187.326 44.6624C189.652 44.3154 191.411 45.7675 191.762 48.0995C192.142 50.6139 190.81 52.4714 188.577 52.807ZM187.466 46.0147C186.21 46.2056 185.561 47.4782 185.806 49.0927C186.052 50.7243 187.151 51.6092 188.39 51.4183C190.014 51.1753 190.266 49.5843 190.079 48.3346C189.845 46.8013 188.787 45.8237 187.466 46.0147Z" fill="white"/>
<path d="M4.96232 18.5143C5.10797 18.5161 5.25239 18.4876 5.38627 18.4308C5.52016 18.374 5.64054 18.2901 5.73969 18.1844C5.84376 18.0834 5.92635 17.9627 5.9826 17.8296C6.03884 17.6965 6.0676 17.5535 6.06719 17.4092C6.06867 17.2673 6.04032 17.1266 5.98394 16.9961C5.92756 16.8656 5.84438 16.7481 5.73969 16.6511C5.53336 16.4473 5.25379 16.3329 4.96232 16.3329C4.67084 16.3329 4.39127 16.4473 4.18495 16.6511C4.0807 16.7485 3.99783 16.866 3.94148 16.9964C3.88514 17.1269 3.85653 17.2674 3.85744 17.4092C3.85755 17.5535 3.88655 17.6962 3.94277 17.8293C3.99898 17.9624 4.0813 18.0831 4.18495 18.1844C4.28409 18.2901 4.40448 18.374 4.53836 18.4308C4.67224 18.4876 4.81666 18.5161 4.96232 18.5143Z" fill="#58595B"/>
<path d="M2.18642 18.5143C2.33208 18.5161 2.4765 18.4876 2.61038 18.4308C2.74426 18.374 2.86465 18.2901 2.96379 18.1844C3.06787 18.0834 3.15046 17.9627 3.2067 17.8296C3.26295 17.6964 3.29171 17.5535 3.2913 17.4092C3.29278 17.2673 3.26443 17.1266 3.20805 16.9961C3.15167 16.8656 3.06849 16.7481 2.96379 16.6511C2.8629 16.5485 2.74193 16.4673 2.60827 16.4126C2.47461 16.3578 2.33107 16.3306 2.18642 16.3326C2.03976 16.3315 1.89432 16.359 1.75844 16.4137C1.62257 16.4683 1.49894 16.549 1.39466 16.6511C1.28627 16.746 1.19968 16.8627 1.1407 16.9935C1.08173 17.1242 1.05174 17.266 1.05276 17.4092C1.05241 17.5546 1.08234 17.6984 1.14067 17.8318C1.199 17.9652 1.28448 18.0852 1.39178 18.1844C1.49503 18.2895 1.61862 18.3728 1.75515 18.4295C1.89169 18.4862 2.03837 18.515 2.18642 18.5143Z" fill="#58595B"/>
<path d="M10.9827 29.2474C11.357 28.9605 11.6538 28.5863 11.8465 28.1583C12.0393 27.7303 12.1221 27.2617 12.0876 26.7943V20.696H10.2759V26.8755C10.2759 27.6854 9.83178 28.0903 8.94356 28.0903H6.94399V20.696H3.34505C2.57117 20.6655 1.81025 20.8995 1.19001 21.3586C0.837028 21.6598 0.559159 22.0377 0.37811 22.4627C0.19706 22.8878 0.117731 23.3485 0.146319 23.8089V26.7302C0.10186 27.5235 0.365265 28.3037 0.882662 28.9111C1.23497 29.2441 1.65428 29.4997 2.1132 29.6612C2.57211 29.8228 3.0603 29.8867 3.54587 29.8488H4.22391L5.10061 28.6917V29.8488H8.80032C9.57429 29.8868 10.3399 29.6758 10.9827 29.2474ZM5.10277 28.0903H3.40192C3.01245 28.1272 2.62297 28.0201 2.30856 27.7897C2.18773 27.6508 2.09649 27.4893 2.04034 27.3147C1.98418 27.1401 1.96426 26.956 1.98178 26.7736V23.7626C1.95537 23.5869 1.97083 23.4075 2.0269 23.2387C2.08298 23.0699 2.17813 22.9165 2.30477 22.7906C2.4314 22.6647 2.586 22.5698 2.75625 22.5135C2.9265 22.4573 3.10767 22.4412 3.28531 22.4666H5.09702V28.0903H5.10277Z" fill="#58595B"/>
<path d="M7.77369 32.5278C7.62897 32.5252 7.48527 32.5521 7.35153 32.6069C7.21779 32.6617 7.09688 32.7432 6.99632 32.8462C6.89208 32.9436 6.8092 33.0611 6.75286 33.1915C6.69651 33.322 6.66791 33.4625 6.66882 33.6043C6.66507 33.7475 6.69055 33.89 6.74373 34.0232C6.79691 34.1564 6.8767 34.2776 6.97833 34.3795C7.08328 34.4795 7.20743 34.5577 7.34343 34.6093C7.47943 34.6609 7.62451 34.6851 7.77009 34.6802C7.91481 34.6828 8.05852 34.6558 8.19226 34.601C8.326 34.5462 8.44691 34.4648 8.54746 34.3617C8.65094 34.2638 8.73329 34.1462 8.78955 34.0159C8.84582 33.8856 8.87483 33.7453 8.87483 33.6036C8.87483 33.4619 8.84582 33.3217 8.78955 33.1914C8.73329 33.0611 8.65094 32.9434 8.54746 32.8455C8.44678 32.7437 8.32633 32.663 8.19336 32.6084C8.06039 32.5538 7.91764 32.5264 7.77369 32.5278Z" fill="#58595B"/>
<path d="M10.6084 32.5278C10.4591 32.5235 10.3104 32.5495 10.1716 32.6043C10.0329 32.659 9.90691 32.7414 9.80156 32.8463C9.69795 32.9459 9.61559 33.0651 9.55934 33.1968C9.5031 33.3285 9.47412 33.47 9.47412 33.6129C9.47412 33.7559 9.5031 33.8974 9.55934 34.0291C9.61559 34.1608 9.69795 34.28 9.80156 34.3796C9.90949 34.4797 10.0363 34.5578 10.1748 34.6094C10.3132 34.661 10.4606 34.6851 10.6084 34.6803C10.7515 34.6833 10.8937 34.6566 11.0256 34.6017C11.1576 34.5468 11.2764 34.4651 11.3743 34.3618C11.475 34.2627 11.5544 34.1445 11.6076 34.0141C11.6608 33.8838 11.6867 33.7442 11.6838 33.6037C11.6784 33.322 11.5637 33.0531 11.3635 32.8528C11.1633 32.6526 10.8929 32.5362 10.6084 32.5278Z" fill="#58595B"/>
<path d="M16.3833 20.6959H15.0509V22.4608H16.2667C18.0421 22.4608 18.9299 23.344 18.9299 25.1106V26.8448C18.9299 27.672 18.4858 28.0888 17.5976 28.0888H13.4609V29.8537H17.4529C17.9073 29.8862 18.3635 29.8242 18.7923 29.6718C19.221 29.5194 19.6129 29.2799 19.9426 28.9688C20.4603 28.4151 20.7359 27.6814 20.7092 26.9274V24.9139C20.7306 24.3581 20.6357 23.8039 20.4305 23.2861C20.2252 22.7683 19.9141 22.2981 19.5165 21.905C19.1045 21.5036 18.6142 21.1894 18.0755 20.9815C17.5368 20.7736 16.9611 20.6765 16.3833 20.6959Z" fill="#58595B"/>
<path d="M58.4031 26.7358C58.4225 26.9233 58.4035 27.1126 58.3473 27.2926C58.291 27.4726 58.1986 27.6395 58.0756 27.7832C57.7537 28.0165 57.3561 28.1236 56.9592 28.0839H55.6031V20.696H53.7914V28.0896H50.6466V20.696H48.8349V28.0896H45.6614V20.696H43.8785V28.0896H38.1677C39.0924 27.0911 40.0972 26.1683 41.1721 25.3301V25.1099C41.1988 24.5248 41.1071 23.9403 40.9022 23.3908C40.6974 22.8412 40.3837 22.3378 39.9794 21.9101C39.5412 21.4694 39.015 21.1239 38.4344 20.8957C37.8538 20.6675 37.2315 20.5616 36.6072 20.5848C35.5092 20.5546 34.4354 20.9077 33.574 21.5823C33.0687 22.0071 32.6699 22.5423 32.4093 23.1457C32.1486 23.7491 32.0331 24.4042 32.0718 25.0593V25.3372C33.1367 26.1767 34.132 27.0992 35.0481 28.096H29.5231V20.696H25.9284C25.1046 20.6546 24.2951 20.9211 23.6604 21.4427C23.3386 21.7462 23.088 22.1159 22.9263 22.5257C22.7647 22.9356 22.6958 23.3755 22.7247 23.8146V26.7358C22.6981 27.1487 22.7576 27.5625 22.8994 27.9517C23.0411 28.3408 23.2622 28.697 23.5488 28.998C23.8996 29.3028 24.3082 29.5354 24.7507 29.6822C25.1933 29.829 25.6609 29.8871 26.1264 29.853H27.6869V30.4024C27.6869 32.1836 26.4244 33.0814 23.8936 33.0814H23.6057L24.8272 34.6859C26.0715 34.688 27.2832 34.2924 28.2821 33.558C29.1121 32.8234 29.5274 31.6606 29.5274 30.081V29.8552H35.0481C35.6177 29.8428 36.17 29.6591 36.6317 29.3286C37.09 29.6488 37.6317 29.8316 38.1922 29.8552H57.0117C57.8532 29.9089 58.6836 29.6417 59.3323 29.1085C59.6342 28.8221 59.8691 28.4739 60.0206 28.0881C60.172 27.7024 60.2364 27.2885 60.209 26.8755V16.9696H58.3973V26.7358H58.4031ZM27.6761 28.0896H26.2617C25.7897 28.1384 25.3139 28.0414 24.8999 27.8117C24.7686 27.667 24.6704 27.496 24.6119 27.3104C24.5534 27.1247 24.536 26.9288 24.5608 26.7358V23.8146C24.5268 23.4446 24.633 23.0753 24.8588 22.7786C24.9953 22.6593 25.1554 22.5694 25.3289 22.5145C25.5023 22.4597 25.6854 22.4412 25.8665 22.4601H27.6782L27.6761 28.0896ZM36.6245 27.147C35.7892 26.1695 34.8699 25.2656 33.877 24.4452C33.9119 24.1575 34.0049 23.8796 34.1504 23.6282C34.296 23.3768 34.4911 23.1569 34.7242 22.9817C35.2653 22.5609 35.9357 22.3363 36.6238 22.3454C37.1962 22.342 37.7571 22.505 38.2368 22.8142C38.5276 22.9882 38.7753 23.2246 38.9614 23.5061C39.1475 23.7875 39.2674 24.1067 39.3122 24.4402C38.3318 25.2563 37.4319 26.1626 36.6245 27.147Z" fill="#58595B"/>
<path d="M62.2202 30.842L64.0614 29.8523V16.9696H62.2202V30.842Z" fill="#58595B"/>
<path d="M74.6167 18.5143C74.7643 18.5146 74.9104 18.4856 75.0464 18.4289C75.1825 18.3723 75.3056 18.2891 75.4085 18.1844C75.5143 18.0901 75.5991 17.975 75.6575 17.8464C75.7158 17.7178 75.7465 17.5787 75.7475 17.4377C75.7492 17.2947 75.7198 17.1529 75.6613 17.0221C75.6028 16.8913 75.5166 16.7745 75.4085 16.6796C75.3042 16.5775 75.1806 16.4968 75.0447 16.4422C74.9088 16.3875 74.7634 16.36 74.6167 16.3611C74.4767 16.361 74.3382 16.3892 74.2096 16.4439C74.081 16.4987 73.965 16.5789 73.8689 16.6796C73.7654 16.7775 73.683 16.8952 73.6268 17.0255C73.5705 17.1558 73.5415 17.296 73.5415 17.4377C73.5415 17.5794 73.5705 17.7196 73.6268 17.8499C73.683 17.9802 73.7654 18.0979 73.8689 18.1958C73.9647 18.2969 74.0806 18.3774 74.2092 18.4322C74.3379 18.487 74.4766 18.515 74.6167 18.5143Z" fill="#58595B"/>
<path d="M78.2057 26.8754C78.2057 27.6855 77.7739 28.0902 76.9022 28.0902H70.093C69.9143 28.1063 69.7342 28.0864 69.5634 28.0317C69.3927 27.9769 69.235 27.8885 69.0997 27.7718C68.8646 27.4793 68.7537 27.1078 68.7902 26.7358V22.817L66.949 23.9741V26.6531C66.8999 27.4857 67.1724 28.3056 67.7113 28.9467C68.0423 29.266 68.438 29.5121 68.8723 29.6687C69.3066 29.8254 69.7696 29.8889 70.2305 29.8551H76.7597C77.624 29.9102 78.4764 29.6325 79.1386 29.0799C79.4416 28.7822 79.6767 28.4236 79.8279 28.0283C79.9792 27.633 80.0431 27.2103 80.0153 26.7885V20.6959H78.2057V26.8754Z" fill="#58595B"/>
<path d="M71.8408 18.5143C71.9864 18.5161 72.1309 18.4876 72.2648 18.4308C72.3986 18.374 72.519 18.2901 72.6182 18.1844C72.7222 18.0834 72.8048 17.9627 72.8611 17.8296C72.9173 17.6964 72.9461 17.5535 72.9457 17.4092C72.9471 17.2673 72.9188 17.1266 72.8624 16.9961C72.806 16.8656 72.7229 16.7481 72.6182 16.6511C72.5173 16.5485 72.3963 16.4673 72.2626 16.4126C72.129 16.3578 71.9854 16.3306 71.8408 16.3326C71.6941 16.3315 71.5487 16.359 71.4128 16.4137C71.2769 16.4683 71.1533 16.549 71.049 16.6511C70.9412 16.7462 70.8551 16.8631 70.7966 16.9938C70.7382 17.1246 70.7086 17.2662 70.71 17.4092C70.7097 17.5546 70.7396 17.6984 70.7979 17.8318C70.8562 17.9652 70.9417 18.0852 71.049 18.1844C71.1519 18.2891 71.2751 18.3723 71.4111 18.4289C71.5471 18.4856 71.6932 18.5146 71.8408 18.5143Z" fill="#58595B"/>
<path d="M89.7842 18.5143C89.9298 18.5161 90.0742 18.4876 90.2081 18.4308C90.342 18.374 90.4624 18.2901 90.5615 18.1844C90.6656 18.0834 90.7482 17.9627 90.8044 17.8296C90.8607 17.6964 90.8894 17.5535 90.889 17.4092C90.8905 17.2673 90.8622 17.1266 90.8058 16.9961C90.7494 16.8656 90.6662 16.7481 90.5615 16.6511C90.4606 16.5485 90.3397 16.4673 90.206 16.4126C90.0723 16.3578 89.9288 16.3306 89.7842 16.3326C89.6375 16.3315 89.492 16.359 89.3562 16.4137C89.2203 16.4683 89.0967 16.549 88.9924 16.6511C88.8845 16.7462 88.7985 16.8631 88.74 16.9938C88.6815 17.1246 88.652 17.2662 88.6534 17.4092C88.653 17.5546 88.6829 17.6984 88.7413 17.8318C88.7996 17.9652 88.8851 18.0852 88.9924 18.1844C89.0953 18.2891 89.2184 18.3723 89.3544 18.4289C89.4905 18.4856 89.6366 18.5146 89.7842 18.5143Z" fill="#58595B"/>
<path d="M108.419 30.842L110.26 29.8523V16.9696H108.419V30.842Z" fill="#58595B"/>
<path d="M130.892 26.7358C130.911 26.9233 130.892 27.1126 130.836 27.2926C130.78 27.4726 130.688 27.6395 130.565 27.7832C130.243 28.0165 129.845 28.1236 129.448 28.0839H128.92V23.6985C128.942 23.2747 128.873 22.851 128.717 22.4559C128.56 22.0607 128.321 21.7031 128.014 21.4071C127.329 20.8276 126.446 20.5314 125.547 20.5798C124.778 20.5513 124.018 20.7529 123.367 21.1584C122.96 21.4412 122.636 21.8247 122.427 22.2705C122.218 22.7163 122.13 23.2087 122.174 23.6985V28.0839H119.029V20.696H115.438C114.614 20.6546 113.805 20.9211 113.17 21.4427C112.848 21.7462 112.598 22.1159 112.436 22.5257C112.274 22.9356 112.206 23.3755 112.234 23.8146V26.7358C112.208 27.1487 112.267 27.5625 112.409 27.9517C112.551 28.3408 112.772 28.697 113.059 28.998C113.409 29.3028 113.818 29.5354 114.26 29.6822C114.703 29.829 115.171 29.8871 115.636 29.853H117.197V30.4024C117.197 32.1836 115.928 33.0814 113.403 33.0814H113.123L114.338 34.6838C115.583 34.6858 116.794 34.2903 117.793 33.5559C118.623 32.8213 119.039 31.6585 119.039 30.0789V29.853H122.212C122.342 30.4996 122.716 31.0727 123.259 31.4554C123.925 31.9331 124.734 32.1755 125.556 32.1437C126.346 32.1826 127.13 31.9742 127.794 31.5481C128.076 31.3513 128.315 31.0994 128.495 30.8078C128.675 30.5163 128.792 30.1913 128.841 29.853H129.501C130.343 29.9067 131.173 29.6396 131.822 29.1063C132.124 28.82 132.359 28.4717 132.51 28.086C132.662 27.7002 132.726 27.2863 132.699 26.8734V16.9696H130.887V26.7358H130.892ZM117.192 28.0896H115.777C115.305 28.1384 114.829 28.0414 114.415 27.8117C114.284 27.667 114.186 27.496 114.127 27.3104C114.069 27.1247 114.051 26.9288 114.076 26.7358V23.8146C114.042 23.4446 114.149 23.0753 114.374 22.7786C114.511 22.6593 114.671 22.5694 114.844 22.5145C115.018 22.4597 115.201 22.4412 115.382 22.4601H117.194L117.192 28.0896ZM127.134 29.05C127.134 29.9528 126.608 30.4038 125.55 30.4038C124.493 30.4038 123.967 29.9528 123.967 29.05V23.6692C123.967 22.7665 124.493 22.3155 125.55 22.3155C126.608 22.3155 127.134 22.7665 127.134 23.6692V29.05Z" fill="#58595B"/>
<path d="M134.709 16.9696V30.842L136.55 29.8523V16.9696H134.709Z" fill="#58595B"/>
<path d="M105.619 21.5232C105.349 21.2314 105.02 20.9995 104.653 20.8429C104.287 20.6863 103.891 20.6086 103.491 20.6148C103.117 20.6183 102.745 20.6746 102.386 20.7822L98.0783 22.2692V20.696H96.2962V28.0896H93.1514V20.696H89.4985C88.7075 20.6626 87.9316 20.9179 87.3182 21.4135C86.9872 21.7175 86.7288 22.0908 86.5619 22.5062C86.395 22.9215 86.3239 23.3685 86.3537 23.8146V28.0896H84.8573C84.1965 28.0896 83.864 27.7134 83.864 26.9553V16.9696H82.0228V27.0372C82.0138 27.4087 82.0808 27.7781 82.2199 28.1232C82.359 28.4684 82.5673 28.782 82.8321 29.0454C83.097 29.3087 83.413 29.5162 83.761 29.6553C84.1091 29.7945 84.482 29.8625 84.8573 29.8552H92.2099L93.0859 28.6974V29.8545H96.2594V31.5645L98.0712 30.6268V29.8545H103.226C103.674 29.8837 104.124 29.8177 104.544 29.661C104.964 29.5044 105.346 29.2606 105.663 28.946C106.162 28.3939 106.426 27.6725 106.4 26.9325V23.4035C106.406 23.054 106.339 22.7069 106.205 22.3836C106.071 22.0603 105.871 21.7675 105.619 21.5232ZM91.3102 28.0903H88.1949V23.8153C88.1949 22.9126 88.6268 22.4616 89.4985 22.4616H91.3102V28.0903ZM104.596 26.8983C104.596 27.6906 104.164 28.0846 103.292 28.0846H98.0791V25.0522C98.0484 24.7727 98.1143 24.4911 98.2662 24.2535C98.5152 24.0355 98.8104 23.8753 99.13 23.7847L102.614 22.5699C102.911 22.4506 103.228 22.3859 103.549 22.3789C103.694 22.3726 103.838 22.399 103.971 22.4562C104.104 22.5133 104.221 22.5997 104.315 22.7088C104.513 22.9608 104.613 23.2749 104.596 23.5937V26.8983Z" fill="#58595B"/>
</g>
<defs>
<clipPath id="clip0_5_3053">
<rect width="207" height="57" fill="white"/>
</clipPath>
</defs>
</svg>
