<svg xmlns="http://www.w3.org/2000/svg" width="59.898" height="57" viewBox="0 0 59.898 57">
  <g id="Group_1" data-name="Group 1" transform="translate(-6833.102 -3144)">
    <path id="Path_38" data-name="Path 38" d="M165.021,10.148a70.39,70.39,0,0,0-6.564,8.655c-.666,1.024-1.292,2.066-1.893,3.113s-1.216,2.095-1.783,3.171a70.481,70.481,0,0,0-4.3,9.966A73.429,73.429,0,0,0,147.1,49.542L166.455,38.5a58.826,58.826,0,0,1,3.988-8.636h.012v-.013a59.17,59.17,0,0,1,5.552-7.719V.006a74.565,74.565,0,0,0-10.988,10.142" transform="translate(6686 3144)" fill="#fff"/>
    <path id="Path_39" data-name="Path 39" d="M178.079,22.142a58.592,58.592,0,0,1,5.564,7.718l0,.011h.006a59.421,59.421,0,0,1,3.992,8.633L207,49.544a73.059,73.059,0,0,0-3.383-14.488,69.224,69.224,0,0,0-4.3-9.963q-.86-1.623-1.783-3.171c-.6-1.047-1.227-2.088-1.893-3.113a70.9,70.9,0,0,0-6.564-8.655A74.1,74.1,0,0,0,178.079,0Z" transform="translate(6686 3144)" fill="#fff"/>
    <path id="Path_40" data-name="Path 40" d="M167.547,40.223a60.924,60.924,0,0,0,9.545.891h.017a59.725,59.725,0,0,0,9.54-.914l19.362,11.034a75.666,75.666,0,0,1-14.367,4.38,71.946,71.946,0,0,1-10.854,1.319c-1.228.058-2.448.076-3.671.063-1.21.011-2.443,0-3.671-.052a73.3,73.3,0,0,1-10.855-1.267,75.788,75.788,0,0,1-14.4-4.333Z" transform="translate(6686 3144)" fill="#fff"/>
    <path id="Path_41" data-name="Path 41" d="M164.764,52.581a3.907,3.907,0,0,1-2.5-1.325l.917-1a3.458,3.458,0,0,0,1.713.931c.766.122,1.32-.167,1.414-.735a.782.782,0,0,0-.129-.584c-.4-.57-1.777-.983-2.461-1.932a2.012,2.012,0,0,1-.374-1.568c.234-1.394,1.525-2.118,3.1-1.852a3.648,3.648,0,0,1,2.326,1.255l-.936.931a3.06,3.06,0,0,0-1.511-.851c-.69-.115-1.24.133-1.321.625a.559.559,0,0,0,0,.264.571.571,0,0,0,.12.235c.31.427,1.864,1.047,2.542,1.984a1.977,1.977,0,0,1,.351,1.626C167.781,52.043,166.483,52.865,164.764,52.581Z" transform="translate(6686 3144)" fill="#d9d9d9"/>
    <path id="Path_42" data-name="Path 42" d="M174.648,53.4l-.485-1.672-2.852-.18-.684,1.6-1.695-.1,3.36-7.672,1.684.1,2.4,8.025Zm-1.628-6.194-1.2,3.089,2,.122Z" transform="translate(6686 3144)" fill="#d9d9d9"/>
    <path id="Path_43" data-name="Path 43" d="M180.136,53.542a3.928,3.928,0,0,1-2.712-.81l.7-1.157a3.5,3.5,0,0,0,1.876.57c.772-.029,1.257-.434,1.233-1.007a.82.82,0,0,0-.245-.544c-.515-.474-1.944-.613-2.807-1.4a2.012,2.012,0,0,1-.684-1.464c-.059-1.406,1.064-2.372,2.659-2.43a3.7,3.7,0,0,1,2.531.758l-.72,1.1a3.121,3.121,0,0,0-1.66-.532c-.7.023-1.192.376-1.163.868a.588.588,0,0,0,.051.258.6.6,0,0,0,.159.211c.4.356,2.04.654,2.888,1.435a1.957,1.957,0,0,1,.684,1.522C182.983,52.408,181.884,53.472,180.136,53.542Z" transform="translate(6686 3144)" fill="#d9d9d9"/>
    <path id="Path_44" data-name="Path 44" d="M188.577,52.807a3.854,3.854,0,0,1-4.471-3.562,3.875,3.875,0,1,1,7.656-1.145C192.142,50.614,190.81,52.471,188.577,52.807Zm-1.111-6.792c-1.256.191-1.9,1.463-1.66,3.078.246,1.632,1.345,2.516,2.584,2.326,1.624-.243,1.876-1.834,1.689-3.084C189.845,46.8,188.787,45.824,187.466,46.015Z" transform="translate(6686 3144)" fill="#d9d9d9"/>
  </g>
</svg>
