<svg width="18" height="18" viewBox="0 0 18 18" fill="none" xmlns="http://www.w3.org/2000/svg">
<path fill-rule="evenodd" clip-rule="evenodd" d="M8.16699 0.0419922C3.67968 0.0419922 0.0419922 3.67968 0.0419922 8.16699C0.0419922 12.6543 3.67968 16.292 8.16699 16.292C10.1857 16.292 12.0324 15.5558 13.4534 14.3373L16.8917 17.7756C17.1358 18.0197 17.5315 18.0197 17.7756 17.7756C18.0197 17.5315 18.0197 17.1358 17.7756 16.8917L14.3373 13.4534C15.5558 12.0324 16.292 10.1857 16.292 8.16699C16.292 3.67968 12.6543 0.0419922 8.16699 0.0419922ZM1.29199 8.16699C1.29199 4.37003 4.37004 1.29199 8.16699 1.29199C11.964 1.29199 15.042 4.37003 15.042 8.16699C15.042 11.964 11.964 15.042 8.16699 15.042C4.37004 15.042 1.29199 11.964 1.29199 8.16699Z" fill="#161616"/>
</svg>
