<svg width="32" height="32" viewBox="0 0 32 32" fill="none" xmlns="http://www.w3.org/2000/svg">
<path fill-rule="evenodd" clip-rule="evenodd" d="M15.9997 19.9582C18.646 19.9582 20.7913 17.8129 20.7913 15.1665V11.8332C20.7913 9.18681 18.646 7.0415 15.9997 7.0415C13.3533 7.0415 11.208 9.18681 11.208 11.8332V15.1665C11.208 17.8129 13.3533 19.9582 15.9997 19.9582ZM15.9997 8.2915C14.0437 8.2915 12.458 9.87716 12.458 11.8332V15.1665C12.458 17.1225 14.0437 18.7082 15.9997 18.7082C17.7424 18.7082 19.1912 17.4494 19.4864 15.7915H17.6663C17.3212 15.7915 17.0413 15.5117 17.0413 15.1665C17.0413 14.8213 17.3212 14.5415 17.6663 14.5415H19.5413V12.4582H17.6663C17.3212 12.4582 17.0413 12.1783 17.0413 11.8332C17.0413 11.488 17.3212 11.2082 17.6663 11.2082H19.4864C19.1912 9.55025 17.7424 8.2915 15.9997 8.2915Z" fill="#161616"/>
<path d="M9.95801 15.1665C9.95801 14.8213 9.67819 14.5415 9.33301 14.5415C8.98783 14.5415 8.70801 14.8213 8.70801 15.1665C8.70801 18.983 11.6402 22.1147 15.3747 22.4318V23.7082H13.4997C13.1545 23.7082 12.8747 23.988 12.8747 24.3332C12.8747 24.6783 13.1545 24.9582 13.4997 24.9582H18.4997C18.8449 24.9582 19.1247 24.6783 19.1247 24.3332C19.1247 23.988 18.8449 23.7082 18.4997 23.7082H16.6247V22.4318C20.3592 22.1147 23.2913 18.983 23.2913 15.1665C23.2913 14.8213 23.0115 14.5415 22.6663 14.5415C22.3212 14.5415 22.0413 14.8213 22.0413 15.1665C22.0413 18.5032 19.3364 21.2082 15.9997 21.2082C12.663 21.2082 9.95801 18.5032 9.95801 15.1665Z" fill="#161616"/>
</svg>
