<svg width="32" height="32" viewBox="0 0 32 32" fill="none" xmlns="http://www.w3.org/2000/svg">
<path d="M11.0602 8.28859C11.4037 8.25502 11.655 7.94931 11.6214 7.60577C11.5879 7.26222 11.2822 7.01094 10.9386 7.04451C9.77124 7.15858 8.84779 7.42802 8.13766 8.13815C7.42753 8.84828 7.15809 9.77173 7.04402 10.9391C7.01045 11.2826 7.26174 11.5883 7.60528 11.6219C7.94882 11.6555 8.25453 11.4042 8.2881 11.0607C8.39153 10.0022 8.61493 9.42865 9.02154 9.02203C9.42816 8.61541 10.0017 8.39201 11.0602 8.28859Z" fill="#161616"/>
<path d="M21.0602 7.04451C20.7166 7.01094 20.4109 7.26222 20.3774 7.60577C20.3438 7.94931 20.5951 8.25502 20.9386 8.28859C21.9971 8.39201 22.5706 8.61541 22.9772 9.02203C23.3839 9.42865 23.6073 10.0022 23.7107 11.0607C23.7443 11.4042 24.05 11.6555 24.3935 11.6219C24.7371 11.5883 24.9883 11.2826 24.9548 10.9391C24.8407 9.77173 24.5713 8.84828 23.8611 8.13815C23.151 7.42802 22.2275 7.15858 21.0602 7.04451Z" fill="#161616"/>
<path d="M14.3327 7.04155C13.9876 7.04155 13.7077 7.32137 13.7077 7.66655C13.7077 8.01173 13.9876 8.29155 14.3327 8.29155H17.6661C18.0112 8.29155 18.2911 8.01173 18.2911 7.66655C18.2911 7.32137 18.0112 7.04155 17.6661 7.04155L14.3327 7.04155Z" fill="#161616"/>
<path d="M8.29106 14.3332C8.29106 13.988 8.01124 13.7082 7.66606 13.7082C7.32088 13.7082 7.04106 13.988 7.04106 14.3332L7.04106 17.6665C7.04106 18.0117 7.32088 18.2915 7.66606 18.2915C8.01124 18.2915 8.29106 18.0117 8.29106 17.6665L8.29106 14.3332Z" fill="#161616"/>
<path d="M8.2881 20.9391C8.25453 20.5956 7.94882 20.3443 7.60528 20.3778C7.26174 20.4114 7.01045 20.7171 7.04402 21.0607C7.15809 22.228 7.42753 23.1515 8.13766 23.8616C8.84779 24.5717 9.77124 24.8412 10.9386 24.9553C11.2822 24.9888 11.5879 24.7375 11.6214 24.394C11.655 24.0505 11.4037 23.7447 11.0602 23.7112C10.0017 23.6077 9.42816 23.3843 9.02154 22.9777C8.61493 22.5711 8.39153 21.9976 8.2881 20.9391Z" fill="#161616"/>
<path d="M18.3745 16.1248C18.7196 16.1248 18.9995 16.4047 18.9995 16.7498V17.7498H19.9995C20.3446 17.7498 20.6245 18.0297 20.6245 18.3748C20.6245 18.72 20.3446 18.9998 19.9995 18.9998H18.9995V19.9998C18.9995 20.345 18.7196 20.6248 18.3745 20.6248C18.0293 20.6248 17.7495 20.345 17.7495 19.9998V18.9998H16.7495C16.4043 18.9998 16.1245 18.72 16.1245 18.3748C16.1245 18.0297 16.4043 17.7498 16.7495 17.7498H17.7495V16.7498C17.7495 16.4047 18.0293 16.1248 18.3745 16.1248Z" fill="#161616"/>
<path fill-rule="evenodd" clip-rule="evenodd" d="M12.8745 18.3748C12.8745 15.3373 15.3369 12.8748 18.3745 12.8748C21.412 12.8748 23.8745 15.3373 23.8745 18.3748C23.8745 19.5067 23.5325 20.5588 22.9463 21.4333C22.8626 21.5582 22.7739 21.6795 22.6804 21.7969L24.7747 23.8912C25.0188 24.1353 25.0188 24.531 24.7747 24.7751C24.5306 25.0192 24.1349 25.0192 23.8908 24.7751L21.7966 22.6808C20.8573 23.4282 19.6681 23.8748 18.3745 23.8748C15.3369 23.8748 12.8745 21.4124 12.8745 18.3748ZM18.3745 14.1248C16.0272 14.1248 14.1245 16.0276 14.1245 18.3748C14.1245 20.722 16.0272 22.6248 18.3745 22.6248C20.7217 22.6248 22.6245 20.722 22.6245 18.3748C22.6245 16.0276 20.7217 14.1248 18.3745 14.1248Z" fill="#161616"/>
</svg>
