<svg width="20" height="20" viewBox="0 0 20 20" fill="none" xmlns="http://www.w3.org/2000/svg">
<path d="M9.79169 6.24935C9.79169 5.90417 9.51187 5.62435 9.16669 5.62435C8.82151 5.62435 8.54169 5.90417 8.54169 6.24935V8.54102H6.25002C5.90484 8.54102 5.62502 8.82084 5.62502 9.16602C5.62502 9.51119 5.90484 9.79102 6.25002 9.79102H8.54169V12.0827C8.54169 12.4279 8.82151 12.7077 9.16669 12.7077C9.51187 12.7077 9.79169 12.4279 9.79169 12.0827V9.79102H12.0834C12.4285 9.79102 12.7084 9.51119 12.7084 9.16602C12.7084 8.82084 12.4285 8.54102 12.0834 8.54102H9.79169V6.24935Z" fill="white"/>
<path fill-rule="evenodd" clip-rule="evenodd" d="M1.04169 9.16602C1.04169 4.6787 4.67937 1.04102 9.16669 1.04102C13.654 1.04102 17.2917 4.6787 17.2917 9.16602C17.2917 11.1847 16.5555 13.0314 15.337 14.4524L18.7753 17.8907C19.0194 18.1348 19.0194 18.5305 18.7753 18.7746C18.5312 19.0187 18.1355 19.0187 17.8914 18.7746L14.4531 15.3363C13.0321 16.5548 11.1854 17.291 9.16669 17.291C4.67937 17.291 1.04169 13.6533 1.04169 9.16602ZM9.16669 2.29102C5.36973 2.29102 2.29169 5.36906 2.29169 9.16602C2.29169 12.963 5.36973 16.041 9.16669 16.041C12.9636 16.041 16.0417 12.963 16.0417 9.16602C16.0417 5.36906 12.9636 2.29102 9.16669 2.29102Z" fill="white"/>
</svg>
